<svg width="191" height="35" viewBox="0 0 191 35" fill="none" xmlns="http://www.w3.org/2000/svg">
<path d="M19.0977 12.7402C19.0977 13.1237 19.0792 13.4948 19.0421 13.8535C19.005 14.2122 18.9369 14.571 18.838 14.9297C18.4916 15.1647 18.1143 15.3317 17.7061 15.4307C17.3103 15.5296 16.9021 15.5791 16.4815 15.5791C16.3826 15.5791 16.2836 15.5729 16.1846 15.5605C16.0981 15.5482 16.0053 15.542 15.9063 15.542C15.8197 15.3441 15.7331 15.2204 15.6466 15.1709C15.56 15.109 15.4796 15.0534 15.4053 15.0039C15.3435 14.9544 15.2878 14.874 15.2384 14.7627C15.2012 14.6514 15.1827 14.4411 15.1827 14.1318C15.1827 13.9463 15.1456 13.8226 15.0714 13.7607C14.9971 13.6989 14.9477 13.5999 14.9229 13.4639C14.8487 13.0186 14.8178 12.6846 14.8302 12.4619C14.8549 12.2269 14.8673 12.0104 14.8673 11.8125C14.8796 11.6146 14.8487 11.3919 14.7745 11.1445C14.7126 10.8848 14.558 10.5137 14.3106 10.0312C14.2735 9.95703 14.2364 9.85189 14.1993 9.71582C14.1622 9.56738 14.1127 9.46842 14.0509 9.41895C13.989 9.3571 13.8962 9.29525 13.7725 9.2334C13.6488 9.15918 13.5128 9.09115 13.3643 9.0293C13.2159 8.95508 13.0736 8.89323 12.9376 8.84375C12.8015 8.7819 12.6902 8.72624 12.6036 8.67676C12.5046 8.62728 12.3871 8.56543 12.2511 8.49121C12.1274 8.40462 11.9913 8.32422 11.8428 8.25C11.6944 8.16341 11.5522 8.09538 11.4161 8.0459C11.28 7.98405 11.1563 7.95312 11.045 7.95312C10.9089 7.95312 10.779 7.97168 10.6553 8.00879C10.5317 8.0459 10.3956 8.06445 10.2471 8.06445C10.1111 8.06445 9.97501 8.0459 9.83894 8.00879C9.71525 7.97168 9.58536 7.95312 9.4493 7.95312C9.28849 7.95312 9.07202 7.99642 8.79988 8.08301C8.54012 8.1696 8.25561 8.28711 7.94637 8.43555C7.64949 8.57161 7.34025 8.73242 7.01863 8.91797C6.70939 9.09115 6.41251 9.27669 6.12801 9.47461C5.85587 9.66016 5.61466 9.8457 5.40437 10.0312C5.20646 10.2168 5.07039 10.3838 4.99617 10.5322C4.87247 10.7673 4.78588 11.0146 4.7364 11.2744C4.6993 11.5342 4.66219 11.7939 4.62508 12.0537C4.60034 12.3135 4.56323 12.5732 4.51375 12.833C4.46427 13.0928 4.3715 13.3402 4.23543 13.5752C4.35913 13.736 4.44571 13.9154 4.49519 14.1133C4.54467 14.2988 4.58797 14.4844 4.62508 14.6699C4.66219 14.8555 4.6993 15.0348 4.7364 15.208C4.78588 15.3812 4.87247 15.5296 4.99617 15.6533C5.09513 15.7646 5.20646 15.8636 5.33015 15.9502C5.46622 16.0368 5.58992 16.1296 5.70125 16.2285C5.81258 16.3151 5.90535 16.4202 5.97957 16.5439C6.06616 16.6676 6.10945 16.8285 6.10945 17.0264C6.24552 17.014 6.41251 17.0387 6.61043 17.1006C6.80834 17.1501 7.00626 17.2181 7.20418 17.3047C7.41446 17.3789 7.61857 17.4593 7.81648 17.5459C8.0144 17.6325 8.18139 17.7005 8.31746 17.75C8.42879 17.7871 8.52775 17.849 8.61433 17.9355C8.70092 18.0221 8.79988 18.084 8.91121 18.1211C9.19571 18.2077 9.48022 18.2386 9.76472 18.2139C10.0616 18.1768 10.3523 18.1891 10.6368 18.251C10.8595 18.3005 11.0388 18.3623 11.1749 18.4365C11.3233 18.4984 11.4594 18.5602 11.5831 18.6221C11.7192 18.6839 11.8676 18.7396 12.0284 18.7891C12.1892 18.8262 12.4057 18.8447 12.6778 18.8447C12.7768 18.8447 12.8819 18.8757 12.9932 18.9375C13.1046 18.9993 13.2221 19.0612 13.3458 19.123C13.4695 19.1849 13.5994 19.2467 13.7354 19.3086C13.8839 19.3581 14.0385 19.3704 14.1993 19.3457C14.3848 19.5312 14.5518 19.7415 14.7003 19.9766C14.8487 20.1992 14.991 20.4281 15.127 20.6631C15.2755 20.8857 15.4301 21.1084 15.5909 21.3311C15.7517 21.5413 15.9373 21.7393 16.1475 21.9248C16.1475 21.9867 16.1352 22.0423 16.1104 22.0918C16.0981 22.1289 16.0919 22.1784 16.0919 22.2402C16.0919 22.5 16.1537 22.7041 16.2774 22.8525C16.4135 22.9886 16.531 23.1618 16.63 23.3721C16.6052 23.4834 16.5928 23.5885 16.5928 23.6875C16.5928 23.7865 16.5928 23.8854 16.5928 23.9844C16.5928 24.4173 16.6423 24.8564 16.7413 25.3018C16.8402 25.7347 16.8897 26.1676 16.8897 26.6006C16.8897 27.0335 16.865 27.3984 16.8155 27.6953C16.766 27.9798 16.6918 28.252 16.5928 28.5117C16.4939 28.7591 16.364 29.0065 16.2032 29.2539C16.0548 29.5013 15.8692 29.7982 15.6466 30.1445C15.4858 30.3672 15.3497 30.6146 15.2384 30.8867C15.1394 31.1589 14.9971 31.3877 14.8116 31.5732H14.5333V31.8516C14.4343 31.9258 14.3168 31.9876 14.1807 32.0371C14.057 32.0866 13.9395 32.1484 13.8282 32.2227C13.42 32.4948 13.1108 32.6989 12.9005 32.835C12.6902 32.9834 12.4861 33.0947 12.2882 33.1689C12.1026 33.2432 11.88 33.2926 11.6202 33.3174C11.3728 33.3545 11.0017 33.3978 10.5069 33.4473C10.2224 33.472 9.94409 33.5153 9.67195 33.5771C9.41219 33.639 9.14624 33.6699 8.8741 33.6699C8.61433 33.6699 8.40405 33.6266 8.24324 33.54C8.0948 33.4658 7.91544 33.3978 7.70515 33.3359C7.55672 33.2988 7.40828 33.2741 7.25984 33.2617C7.1114 33.2493 6.96297 33.237 6.81453 33.2246C6.66609 33.2122 6.52384 33.1937 6.38777 33.1689C6.2517 33.1566 6.12182 33.1195 5.99812 33.0576C5.86206 32.9958 5.74454 32.9154 5.64558 32.8164C5.559 32.7298 5.46004 32.6494 5.34871 32.5752C5.3116 32.5505 5.25594 32.5195 5.18172 32.4824C5.11987 32.4577 5.05802 32.4268 4.99617 32.3896C4.94669 32.3525 4.9034 32.3092 4.86629 32.2598C4.84155 32.2103 4.84773 32.1484 4.88484 32.0742C4.4519 32 4.09936 31.8516 3.82722 31.6289C3.55509 31.3939 3.30769 31.1341 3.08504 30.8496C2.87475 30.5527 2.66446 30.2559 2.45418 29.959C2.25626 29.6497 2.00268 29.3776 1.69344 29.1426C1.69344 29.0807 1.69962 29.0312 1.71199 28.9941C1.72436 28.957 1.73055 28.9076 1.73055 28.8457C1.73055 28.6849 1.69962 28.5241 1.63777 28.3633C1.58829 28.2025 1.53263 28.0479 1.47078 27.8994C1.40893 27.751 1.34708 27.6025 1.28523 27.4541C1.23575 27.3057 1.21101 27.1634 1.21101 27.0273C1.21101 26.8294 1.26668 26.6253 1.37801 26.415C1.5017 26.1924 1.65014 25.9945 1.82332 25.8213C2.00887 25.6357 2.20678 25.4873 2.41707 25.376C2.63972 25.2523 2.84383 25.1904 3.02937 25.1904C3.23966 25.1904 3.43758 25.2275 3.62312 25.3018C3.80867 25.376 3.98803 25.4688 4.16121 25.5801C4.33439 25.6914 4.50138 25.8151 4.66219 25.9512C4.82299 26.0872 4.97762 26.2171 5.12605 26.3408C5.17553 26.5387 5.25594 26.7243 5.36726 26.8975C5.47859 27.0706 5.58992 27.2438 5.70125 27.417C5.81258 27.5902 5.91772 27.7695 6.01668 27.9551C6.11564 28.1283 6.18367 28.3262 6.22078 28.5488C6.40633 28.6107 6.5795 28.7035 6.74031 28.8271C6.91349 28.9508 7.08048 29.0745 7.24129 29.1982C7.41446 29.3219 7.58764 29.4271 7.76082 29.5137C7.934 29.6003 8.13191 29.6436 8.35457 29.6436C8.36694 29.6436 8.49064 29.6188 8.72566 29.5693C8.96069 29.5199 9.21427 29.4642 9.4864 29.4023C9.77091 29.3405 10.0307 29.2848 10.2657 29.2354C10.5007 29.1859 10.6244 29.1549 10.6368 29.1426C10.711 29.1055 10.7729 29.0498 10.8223 28.9756C10.8718 28.9014 10.9337 28.8333 11.0079 28.7715C11.1068 28.7096 11.2058 28.6911 11.3048 28.7158C11.4161 28.7406 11.5212 28.722 11.6202 28.6602C11.7686 28.5859 11.8985 28.4746 12.0098 28.3262C12.1335 28.1654 12.2943 28.0726 12.4923 28.0479C12.4923 27.9118 12.4861 27.7757 12.4737 27.6396C12.4613 27.4912 12.4552 27.349 12.4552 27.2129C12.4552 27.1758 12.4552 27.1325 12.4552 27.083C12.4552 27.0335 12.4675 26.9902 12.4923 26.9531L12.7149 26.6748V26.415C12.7149 26.3037 12.752 26.2171 12.8262 26.1553C12.9005 26.0811 12.9376 25.9759 12.9376 25.8398C12.9376 25.7904 12.9252 25.7038 12.9005 25.5801C12.8757 25.4564 12.8448 25.3327 12.8077 25.209C12.7706 25.0853 12.7335 24.9678 12.6964 24.8564C12.6593 24.7451 12.6283 24.6709 12.6036 24.6338L12.3438 24.4668C12.3067 24.3926 12.2943 24.3184 12.3067 24.2441C12.3191 24.1576 12.2943 24.0833 12.2325 24.0215L11.9913 23.873C11.9171 23.7741 11.8614 23.6751 11.8243 23.5762C11.7872 23.4648 11.7192 23.3597 11.6202 23.2607C11.4841 23.137 11.28 23.0195 11.0079 22.9082C10.7481 22.7845 10.4636 22.6794 10.1544 22.5928C9.8575 22.4938 9.56681 22.4196 9.2823 22.3701C8.9978 22.3083 8.76277 22.2773 8.57722 22.2773C8.44116 22.2773 8.30509 22.2897 8.16902 22.3145C8.04532 22.3268 7.92781 22.3639 7.81648 22.4258C7.66805 22.3887 7.55672 22.3454 7.4825 22.2959C7.42065 22.2464 7.36499 22.1969 7.31551 22.1475C7.26603 22.098 7.21655 22.0485 7.16707 21.999C7.11759 21.9495 7.031 21.9062 6.9073 21.8691C6.79597 21.832 6.63517 21.8011 6.42488 21.7764C6.21459 21.7516 5.93009 21.7393 5.57137 21.7393C5.21264 21.7393 4.84773 21.6217 4.47664 21.3867C4.10555 21.1517 3.74064 20.8734 3.38191 20.5518C3.03556 20.2178 2.71394 19.8776 2.41707 19.5312C2.12019 19.1725 1.87898 18.8695 1.69344 18.6221C1.65633 18.5602 1.63777 18.4798 1.63777 18.3809C1.63777 18.2695 1.60685 18.1829 1.545 18.1211L1.32234 18.0098C1.28523 17.8984 1.24812 17.7995 1.21101 17.7129C1.18627 17.6263 1.0935 17.5645 0.932693 17.5273V17.416C0.932693 17.1439 0.889399 16.8841 0.802811 16.6367C0.716222 16.3893 0.598709 16.1543 0.450272 15.9316C0.475011 15.8327 0.487381 15.7461 0.487381 15.6719C0.487381 15.5853 0.487381 15.4925 0.487381 15.3936C0.487381 14.9359 0.437902 14.4844 0.338943 14.0391C0.252355 13.5814 0.209061 13.1237 0.209061 12.666C0.209061 12.5423 0.239985 12.431 0.301834 12.332C0.376053 12.2331 0.425532 12.1156 0.450272 11.9795C0.54923 11.6579 0.623449 11.3239 0.672928 10.9775C0.734777 10.6188 0.784256 10.2663 0.821365 9.91992C1.05639 9.73438 1.24194 9.5612 1.37801 9.40039C1.52644 9.23958 1.58211 8.99837 1.545 8.67676C1.69344 8.59017 1.8295 8.4974 1.9532 8.39844C2.0769 8.28711 2.19441 8.17578 2.30574 8.06445C2.31811 7.92839 2.35522 7.80469 2.41707 7.69336C2.49129 7.58203 2.55932 7.4707 2.62117 7.35938C2.69539 7.24805 2.75724 7.13672 2.80672 7.02539C2.86857 6.90169 2.90568 6.76562 2.91805 6.61719C3.09122 6.48112 3.27058 6.35124 3.45613 6.22754C3.64168 6.09147 3.79012 5.93066 3.90144 5.74512C3.95092 5.74512 4.08699 5.68327 4.30965 5.55957C4.54467 5.43587 4.80444 5.2998 5.08894 5.15137C5.37345 4.99056 5.64558 4.84212 5.90535 4.70605C6.16512 4.55762 6.34448 4.45866 6.44344 4.40918C6.62898 4.32259 6.85782 4.26074 7.12996 4.22363C7.40209 4.17415 7.67423 4.12467 7.94637 4.0752C8.2185 4.02572 8.47208 3.97005 8.70711 3.9082C8.9545 3.84635 9.15242 3.75977 9.30086 3.64844C9.68432 3.73503 10.1296 3.79688 10.6368 3.83398C11.1563 3.87109 11.6697 3.92676 12.1768 4.00098C12.684 4.0752 13.1602 4.19889 13.6055 4.37207C14.0632 4.53288 14.4281 4.78646 14.7003 5.13281C14.9724 5.14518 15.2074 5.20085 15.4053 5.2998C15.6033 5.38639 15.7888 5.49154 15.962 5.61523C16.1475 5.73893 16.3269 5.86263 16.5001 5.98633C16.6856 6.09766 16.8959 6.17806 17.1309 6.22754C17.1309 6.37598 17.168 6.50586 17.2423 6.61719L17.502 6.72852C17.5762 6.85221 17.6381 6.98828 17.6876 7.13672C17.7494 7.27279 17.7989 7.40885 17.836 7.54492C17.8855 7.68099 17.935 7.81706 17.9845 7.95312C18.0463 8.08919 18.1267 8.21289 18.2257 8.32422C18.2875 8.38607 18.3555 8.44173 18.4298 8.49121C18.5164 8.52832 18.5782 8.59017 18.6153 8.67676C18.6401 8.75098 18.6401 8.8252 18.6153 8.89941C18.5906 8.96126 18.5782 9.02311 18.5782 9.08496L18.6153 9.15918L18.838 9.41895C18.8874 9.60449 18.9246 9.8457 18.9493 10.1426C18.9864 10.4271 19.0111 10.7301 19.0235 11.0518C19.0483 11.3734 19.0668 11.6888 19.0792 11.998C19.0915 12.2949 19.0977 12.5423 19.0977 12.7402ZM41.2134 31.4248C41.2134 31.8206 41.164 32.2103 41.065 32.5938C40.966 32.9772 40.8485 33.3483 40.7125 33.707C40.428 33.8678 40.1249 33.9854 39.8033 34.0596C39.494 34.1338 39.1786 34.1709 38.857 34.1709C38.4983 34.1709 38.1457 34.1029 37.7994 33.9668C37.4159 33.4102 37.1561 32.8473 37.0201 32.2783C36.8964 31.7093 36.8345 31.097 36.8345 30.4414C36.8345 29.9714 36.8531 29.4951 36.8902 29.0127C36.9397 28.5179 36.952 28.0293 36.9273 27.5469V26.9902C36.816 26.9779 36.7294 26.9964 36.6675 27.0459C36.6181 27.0954 36.5748 27.1572 36.5377 27.2314C36.5129 27.3057 36.4944 27.3861 36.482 27.4727C36.4696 27.5592 36.4511 27.6396 36.4263 27.7139C36.315 27.9736 36.1913 28.2396 36.0552 28.5117C35.9315 28.7715 35.814 29.0374 35.7027 29.3096C35.6408 29.4456 35.5976 29.5941 35.5728 29.7549C35.5604 29.9033 35.5171 30.0456 35.4429 30.1816C35.3811 30.2806 35.2883 30.3796 35.1646 30.4785C35.0409 30.5775 34.9296 30.6764 34.8306 30.7754C34.6822 30.9362 34.5461 31.1156 34.4224 31.3135C34.3111 31.499 34.2059 31.6908 34.107 31.8887C33.9586 32.1484 33.8101 32.3587 33.6617 32.5195C33.5132 32.6927 33.3524 32.835 33.1793 32.9463C33.0061 33.07 32.8143 33.1813 32.6041 33.2803C32.4061 33.3792 32.1711 33.4844 31.899 33.5957C31.7877 33.6328 31.6825 33.6947 31.5836 33.7812C31.4846 33.8678 31.3856 33.9297 31.2867 33.9668C30.9898 34.0534 30.6434 34.1029 30.2476 34.1152C29.8642 34.1276 29.5178 34.1338 29.2086 34.1338C29.0477 34.1338 28.8375 34.1152 28.5777 34.0781C28.3179 34.0534 28.0458 34.0163 27.7613 33.9668C27.4892 33.9173 27.2294 33.8555 26.982 33.7812C26.7346 33.7194 26.5367 33.6576 26.3882 33.5957C26.2398 33.5339 26.0852 33.4411 25.9244 33.3174C25.7636 33.1937 25.6028 33.0576 25.442 32.9092C25.2811 32.7731 25.1265 32.6309 24.9781 32.4824C24.8296 32.3464 24.6812 32.2227 24.5328 32.1113C24.4709 31.9382 24.4338 31.7588 24.4214 31.5732C24.4091 31.3877 24.372 31.2021 24.3101 31.0166C24.2483 30.8558 24.1617 30.7135 24.0504 30.5898C23.9514 30.4661 23.871 30.3301 23.8091 30.1816C23.7349 29.9095 23.6978 29.6374 23.6978 29.3652C23.6978 29.0931 23.6483 28.8333 23.5494 28.5859C23.4999 28.4375 23.4319 28.2891 23.3453 28.1406C23.2711 27.9922 23.1906 27.8499 23.1041 27.7139C23.0298 27.5654 22.9618 27.417 22.9 27.2686C22.8505 27.1201 22.8257 26.9717 22.8257 26.8232C22.8257 26.5387 22.8876 26.2666 23.0113 26.0068C23.135 25.7471 23.1968 25.4749 23.1968 25.1904C23.1968 24.943 23.1535 24.7142 23.067 24.5039C22.9804 24.2812 22.9371 24.0462 22.9371 23.7988C22.9371 23.4525 22.9865 23.1247 23.0855 22.8154C23.1968 22.4938 23.2711 22.1598 23.3082 21.8135C23.2711 21.7887 23.2401 21.7578 23.2154 21.7207C23.203 21.6712 23.1968 21.6279 23.1968 21.5908C23.1968 21.2816 23.2525 20.9723 23.3638 20.6631C23.4875 20.3538 23.5494 20.0384 23.5494 19.7168C23.5494 19.4941 23.5061 19.2962 23.4195 19.123C23.469 18.9622 23.5556 18.82 23.6793 18.6963C23.803 18.5726 23.8834 18.4365 23.9205 18.2881C23.9947 18.016 24.0132 17.75 23.9761 17.4902C23.9514 17.2181 23.9699 16.9521 24.0318 16.6924C24.0936 16.5192 24.1802 16.3584 24.2916 16.21C24.4153 16.0615 24.4957 15.8883 24.5328 15.6904C24.607 15.4059 24.6317 15.1214 24.607 14.8369C24.5946 14.5524 24.5699 14.2679 24.5328 13.9834C24.8049 13.736 24.9905 13.4886 25.0894 13.2412C25.1884 12.9814 25.2811 12.734 25.3677 12.499C25.4667 12.2516 25.6089 12.0166 25.7945 11.7939C25.98 11.5713 26.2955 11.3672 26.7408 11.1816C26.815 11.1445 26.8768 11.0889 26.9263 11.0146C26.9758 10.9404 27.05 10.9033 27.149 10.9033C27.3964 10.9033 27.6685 10.9466 27.9654 11.0332C28.2746 11.1074 28.5653 11.2249 28.8375 11.3857C29.1096 11.5342 29.3323 11.7197 29.5054 11.9424C29.691 12.165 29.7837 12.4186 29.7837 12.7031C29.7837 13.1484 29.7714 13.5072 29.7466 13.7793C29.7219 14.0514 29.6848 14.2741 29.6353 14.4473C29.5858 14.6204 29.524 14.7627 29.4498 14.874C29.3755 14.9854 29.2951 15.1029 29.2086 15.2266C29.122 15.3379 29.023 15.4801 28.9117 15.6533C28.8127 15.8141 28.7076 16.0306 28.5962 16.3027C28.3612 16.8841 28.1942 17.4964 28.0953 18.1396C27.9963 18.7829 27.8726 19.4014 27.7242 19.9951C27.6871 20.1683 27.6252 20.3353 27.5386 20.4961C27.452 20.6445 27.384 20.8053 27.3345 20.9785L27.0005 23.5576C27.0005 23.9535 27.0191 24.3802 27.0562 24.8379C27.1057 25.2956 27.1614 25.7223 27.2232 26.1182C27.2479 26.1924 27.2727 26.248 27.2974 26.2852C27.3222 26.3223 27.3345 26.3903 27.3345 26.4893C27.3345 26.5264 27.316 26.5573 27.2789 26.582C27.2418 26.6068 27.2232 26.6501 27.2232 26.7119C27.2232 26.7738 27.2356 26.8665 27.2603 26.9902C27.2974 27.1139 27.3407 27.2438 27.3902 27.3799C27.4397 27.516 27.483 27.652 27.5201 27.7881C27.5572 27.9118 27.5881 28.0107 27.6129 28.085C27.6623 28.3324 27.6994 28.555 27.7242 28.7529C27.7613 28.9385 27.8108 29.1055 27.8726 29.2539C27.9345 29.4023 28.0334 29.5446 28.1695 29.6807C28.3179 29.8044 28.5344 29.9219 28.8189 30.0332C28.9797 30.1074 29.1405 30.1878 29.3013 30.2744C29.4745 30.361 29.6477 30.4043 29.8209 30.4043C30.0806 30.4043 30.3466 30.2682 30.6187 29.9961C30.8908 29.724 31.1506 29.4085 31.398 29.0498C31.6578 28.6911 31.8928 28.3262 32.1031 27.9551C32.3134 27.584 32.4865 27.2995 32.6226 27.1016C32.635 27.015 32.6721 26.9469 32.7339 26.8975C32.7958 26.848 32.8576 26.8047 32.9195 26.7676C32.9813 26.7181 33.0308 26.6686 33.0679 26.6191C33.1174 26.5573 33.136 26.4769 33.1236 26.3779C33.2349 26.1058 33.3772 25.8584 33.5504 25.6357C33.7359 25.4131 33.8843 25.1657 33.9957 24.8936C34.0823 24.6709 34.1503 24.4544 34.1998 24.2441C34.2492 24.0339 34.3049 23.8298 34.3668 23.6318C34.4286 23.4339 34.5028 23.2422 34.5894 23.0566C34.676 22.8587 34.7935 22.6608 34.942 22.4629C35.0409 22.3268 35.078 22.1908 35.0533 22.0547C35.0285 21.9062 35.0162 21.7764 35.0162 21.665C35.0162 21.5661 35.0409 21.4671 35.0904 21.3682L35.3316 21.2012C35.4182 21.0033 35.4924 20.7559 35.5543 20.459C35.6285 20.1621 35.6903 19.8529 35.7398 19.5312C35.7893 19.2096 35.8264 18.8942 35.8511 18.585C35.8759 18.2757 35.9006 18.0098 35.9254 17.7871C35.9501 17.7129 35.981 17.651 36.0181 17.6016C36.0552 17.5521 36.0614 17.4902 36.0367 17.416C35.9625 17.3789 35.9254 17.2985 35.9254 17.1748C35.9254 17.0882 35.9625 16.9707 36.0367 16.8223C36.1233 16.6738 36.2099 16.5007 36.2964 16.3027C36.3954 16.1048 36.482 15.8945 36.5562 15.6719C36.6428 15.4368 36.6861 15.1895 36.6861 14.9297C36.6861 14.707 36.6737 14.4844 36.649 14.2617C36.6242 14.0267 36.6119 13.7979 36.6119 13.5752C36.6119 13.4639 36.6304 13.3216 36.6675 13.1484C36.7046 12.9629 36.7479 12.7773 36.7974 12.5918C36.8593 12.3939 36.9211 12.2083 36.983 12.0352C37.0448 11.862 37.1005 11.7383 37.15 11.6641C37.3355 11.5898 37.4654 11.5218 37.5396 11.46C37.6138 11.3981 37.6695 11.3424 37.7066 11.293C37.7437 11.2435 37.7684 11.2002 37.7808 11.1631C37.8056 11.126 37.8489 11.0951 37.9107 11.0703C38.2323 11.1074 38.5849 11.1383 38.9683 11.1631C39.3518 11.1755 39.692 11.2559 39.9888 11.4043C40.1125 11.8249 40.261 12.2331 40.4341 12.6289C40.6197 13.0247 40.7125 13.4515 40.7125 13.9092C40.7125 14.1566 40.6939 14.4102 40.6568 14.6699C40.6197 14.9297 40.6011 15.1956 40.6011 15.4678C40.6011 15.7152 40.6197 15.9564 40.6568 16.1914C40.6939 16.4264 40.7125 16.6676 40.7125 16.915C40.7125 17.1995 40.6939 17.4779 40.6568 17.75C40.6197 18.0098 40.6011 18.2757 40.6011 18.5479C40.6011 18.8571 40.6259 19.1663 40.6754 19.4756C40.7248 19.7725 40.7496 20.0693 40.7496 20.3662C40.7496 20.5023 40.7372 20.6445 40.7125 20.793C40.7001 20.929 40.663 21.0651 40.6011 21.2012C40.7496 21.6836 40.8485 22.234 40.898 22.8525C40.9475 23.4587 40.9784 24.0895 40.9908 24.7451C41.0031 25.3883 40.997 26.0254 40.9722 26.6562C40.9599 27.2871 40.9537 27.8623 40.9537 28.3818C40.9537 28.555 40.9784 28.7344 41.0279 28.9199C41.0774 29.0931 41.1021 29.2601 41.1021 29.4209C41.065 29.4951 41.0279 29.5755 40.9908 29.6621C40.966 29.7487 40.9537 29.8291 40.9537 29.9033C40.9537 30.1507 40.997 30.4043 41.0836 30.6641C41.1701 30.9115 41.2134 31.165 41.2134 31.4248ZM64.5909 21.3682C64.529 21.6403 64.4362 21.9062 64.3125 22.166C64.2012 22.4258 64.0837 22.6855 63.96 22.9453C63.8487 23.2051 63.7435 23.471 63.6446 23.7432C63.558 24.0029 63.5085 24.2751 63.4961 24.5596C63.4714 24.7204 63.4343 24.8255 63.3848 24.875C63.3353 24.9121 63.2797 24.9554 63.2178 25.0049C63.156 25.0544 63.1003 25.1286 63.0508 25.2275C63.0137 25.3265 62.9952 25.5059 62.9952 25.7656C62.9952 25.9264 62.9766 26.1553 62.9395 26.4521C62.9024 26.749 62.8467 27.083 62.7725 27.4541C62.6983 27.8128 62.6117 28.1901 62.5127 28.5859C62.4261 28.9694 62.3272 29.3343 62.2159 29.6807C62.1045 30.0146 61.987 30.3053 61.8633 30.5527C61.752 30.8001 61.6345 30.9671 61.5108 31.0537C61.4737 31.1527 61.4489 31.2578 61.4366 31.3691C61.4366 31.4681 61.4242 31.5671 61.3995 31.666C61.3747 31.765 61.3314 31.8516 61.2696 31.9258C61.2201 32 61.1768 32.0742 61.1397 32.1484C61.0284 32.4701 60.9541 32.6989 60.917 32.835C60.8923 32.9834 60.8552 33.0947 60.8057 33.1689C60.7686 33.2555 60.6882 33.3421 60.5645 33.4287C60.4408 33.5153 60.2243 33.6576 59.9151 33.8555C59.8037 33.9544 59.6553 34.0596 59.4698 34.1709C59.2842 34.2946 59.1172 34.3564 58.9688 34.3564C58.7461 34.3564 58.5358 34.3132 58.3379 34.2266C58.14 34.1523 57.9483 34.0534 57.7627 33.9297C57.5772 33.8184 57.3855 33.7008 57.1875 33.5771C57.002 33.4535 56.8103 33.3483 56.6123 33.2617V33.1689C56.6123 33.07 56.5752 32.9648 56.501 32.8535C56.4268 32.7422 56.3897 32.637 56.3897 32.5381L56.501 32.4268C56.4763 32.266 56.4454 32.1113 56.4082 31.9629C56.3711 31.8145 56.3526 31.6598 56.3526 31.499C56.3526 31.3877 56.4206 31.165 56.5567 30.8311C56.6927 30.4847 56.8536 30.1198 57.0391 29.7363C57.2246 29.3529 57.404 28.9941 57.5772 28.6602C57.7627 28.3138 57.8988 28.085 57.9854 27.9736C58.0967 27.8252 58.2266 27.6953 58.375 27.584C58.5235 27.4603 58.6348 27.3118 58.709 27.1387C58.808 26.8913 58.8513 26.6253 58.8389 26.3408C58.8389 26.0563 58.8698 25.7904 58.9317 25.543C58.9688 25.4069 59.0306 25.2894 59.1172 25.1904C59.2038 25.0791 59.2718 24.9554 59.3213 24.8193C59.3955 24.5472 59.4141 24.2751 59.377 24.0029C59.3523 23.7308 59.3708 23.471 59.4327 23.2236C59.4698 23.0257 59.5378 22.8216 59.6368 22.6113C59.7481 22.401 59.8037 22.1969 59.8037 21.999C59.8037 21.8258 59.7852 21.665 59.7481 21.5166C59.711 21.3558 59.6924 21.1888 59.6924 21.0156C59.6924 20.7064 59.6986 20.4095 59.711 20.125C59.7233 19.8405 59.7295 19.556 59.7295 19.2715C59.7295 18.7148 59.6553 18.2077 59.5069 17.75C59.3708 17.2799 59.0677 16.9027 58.5977 16.6182L58.4307 16.3398C58.3936 16.3151 58.3565 16.3151 58.3194 16.3398C58.2823 16.3646 58.2328 16.377 58.1709 16.377C58.0967 16.377 58.0287 16.3398 57.9668 16.2656C57.9174 16.179 57.837 16.0924 57.7256 16.0059C57.6267 15.9069 57.4844 15.8203 57.2989 15.7461C57.1257 15.6595 56.8845 15.6162 56.5752 15.6162C56.167 15.6162 55.8145 15.7028 55.5176 15.876C55.2331 16.0368 54.9672 16.2409 54.7198 16.4883C54.4724 16.7233 54.2312 16.9769 53.9961 17.249C53.7611 17.5088 53.4952 17.7376 53.1983 17.9355C53.2107 18.1211 53.1859 18.2757 53.1241 18.3994C53.0622 18.5231 52.9818 18.6406 52.8829 18.752C52.7963 18.8509 52.6973 18.9561 52.586 19.0674C52.487 19.1663 52.4004 19.2839 52.3262 19.4199C52.2891 19.4941 52.2705 19.5807 52.2705 19.6797C52.2705 19.7663 52.252 19.8467 52.2149 19.9209C52.1159 20.0693 51.986 20.1992 51.8252 20.3105C51.6768 20.4095 51.5655 20.5579 51.4912 20.7559C51.4047 20.9414 51.3614 21.1455 51.3614 21.3682C51.3614 21.5785 51.349 21.7764 51.3243 21.9619C51.3243 22.0609 51.3057 22.1413 51.2686 22.2031C51.2439 22.265 51.2129 22.3268 51.1758 22.3887C51.1387 22.4382 51.1016 22.4876 51.0645 22.5371C51.0274 22.5866 51.0026 22.6484 50.9903 22.7227C50.9532 23.0072 50.9346 23.2917 50.9346 23.5762C50.9346 23.8607 50.8666 24.1452 50.7305 24.4297C50.8295 24.7142 50.9346 24.9987 51.0459 25.2832C51.1573 25.5553 51.2129 25.846 51.2129 26.1553C51.2129 26.514 51.1573 26.8665 51.0459 27.2129C50.9346 27.5592 50.8789 27.9118 50.8789 28.2705C50.8789 28.5798 50.9532 28.8457 51.1016 29.0684C50.9284 29.5508 50.7985 30.0456 50.712 30.5527C50.6254 31.0475 50.514 31.5423 50.378 32.0371C50.2295 32.1732 50.0564 32.2721 49.8584 32.334C49.6605 32.3958 49.4688 32.4268 49.2832 32.4268C48.9245 32.4268 48.572 32.3835 48.2256 32.2969C47.8793 32.2227 47.5329 32.1732 47.1866 32.1484C47.1495 32 47.0752 31.8763 46.9639 31.7773C46.8649 31.666 46.7536 31.5609 46.6299 31.4619C46.5186 31.363 46.4196 31.2516 46.333 31.1279C46.2465 30.9919 46.2032 30.8249 46.2032 30.627C46.2032 30.4538 46.2526 30.262 46.3516 30.0518C46.4629 29.8415 46.5371 29.6436 46.5743 29.458C46.599 29.2848 46.599 29.1055 46.5743 28.9199C46.5495 28.7344 46.5371 28.5426 46.5371 28.3447C46.5371 28.0107 46.5928 27.6706 46.7041 27.3242C46.8278 26.9779 46.9021 26.6253 46.9268 26.2666C46.9392 26.0811 46.9454 25.8893 46.9454 25.6914C46.9454 25.4811 46.9515 25.277 46.9639 25.0791C46.9763 24.8688 47.001 24.6647 47.0381 24.4668C47.0876 24.2689 47.1742 24.0957 47.2979 23.9473C47.2608 23.8112 47.2237 23.6751 47.1866 23.5391C47.1618 23.3906 47.1495 23.2484 47.1495 23.1123C47.1495 22.9762 47.1742 22.8525 47.2237 22.7412C47.2732 22.6175 47.2979 22.5 47.2979 22.3887C47.2979 22.2773 47.2608 22.1908 47.1866 22.1289C47.1123 22.0547 47.0752 21.9619 47.0752 21.8506L47.1866 21.7393C47.1618 21.5908 47.1371 21.4486 47.1123 21.3125C47.0876 21.1641 47.0752 21.0156 47.0752 20.8672C47.0752 20.5208 47.1309 20.193 47.2422 19.8838C47.3659 19.5622 47.4278 19.2282 47.4278 18.8818C47.4278 18.5973 47.403 18.3252 47.3536 18.0654C47.3164 17.7933 47.2979 17.5212 47.2979 17.249C47.2979 17.0635 47.3164 16.8841 47.3536 16.7109C47.403 16.5254 47.4463 16.346 47.4834 16.1729C47.5329 15.9997 47.5762 15.8265 47.6133 15.6533C47.6628 15.4678 47.6875 15.2822 47.6875 15.0967C47.6875 14.9482 47.6628 14.806 47.6133 14.6699C47.5762 14.5339 47.5267 14.3978 47.4649 14.2617C47.4154 14.1257 47.3659 13.9896 47.3164 13.8535C47.2793 13.7174 47.2608 13.5752 47.2608 13.4268C47.2608 12.833 47.4092 12.2702 47.7061 11.7383C48.003 11.2064 48.3617 10.7425 48.7823 10.3467C48.807 10.3467 48.8317 10.3529 48.8565 10.3652C48.8812 10.3776 48.906 10.3838 48.9307 10.3838C49.0668 10.3838 49.1843 10.359 49.2832 10.3096C49.3946 10.2477 49.5059 10.2168 49.6172 10.2168C49.9388 10.2168 50.2172 10.2972 50.4522 10.458C50.6996 10.6064 50.9532 10.7301 51.2129 10.8291C51.3861 11.2992 51.5284 11.7754 51.6397 12.2578C51.7634 12.7402 51.8252 13.2412 51.8252 13.7607C51.9613 13.7236 52.085 13.6742 52.1963 13.6123C52.32 13.5381 52.4375 13.4639 52.5489 13.3896C52.6726 13.3154 52.7901 13.2474 52.9014 13.1855C53.0251 13.1113 53.1612 13.0618 53.3096 13.0371C53.4333 12.9505 53.5384 12.8516 53.625 12.7402C53.7116 12.6165 53.792 12.4928 53.8662 12.3691C53.9528 12.2454 54.0332 12.1279 54.1075 12.0166C54.194 11.8929 54.293 11.7878 54.4043 11.7012C54.5528 11.5898 54.7878 11.4723 55.1094 11.3486C55.4434 11.2249 55.7898 11.1136 56.1485 11.0146C56.5196 10.9033 56.8783 10.8167 57.2246 10.7549C57.571 10.6807 57.837 10.6436 58.0225 10.6436C58.2452 10.6436 58.4431 10.6683 58.6162 10.7178C58.8018 10.7549 58.975 10.8105 59.1358 10.8848C59.309 10.9466 59.4759 11.0208 59.6368 11.1074C59.8099 11.1816 59.9955 11.2559 60.1934 11.3301C60.2676 11.3548 60.3418 11.3734 60.4161 11.3857C60.4903 11.3857 60.5769 11.4043 60.6758 11.4414C60.8243 11.5033 60.9541 11.5898 61.0655 11.7012C61.1892 11.8001 61.3129 11.9053 61.4366 12.0166C61.5603 12.1279 61.684 12.2331 61.8077 12.332C61.9437 12.4186 62.086 12.4867 62.2344 12.5361C62.3086 12.7464 62.4076 12.932 62.5313 13.0928C62.6674 13.2536 62.822 13.402 62.9952 13.5381C63.0323 13.7979 63.1003 14.0452 63.1993 14.2803C63.3106 14.5029 63.4157 14.7318 63.5147 14.9668C63.626 15.1895 63.725 15.4183 63.8116 15.6533C63.8982 15.876 63.9414 16.1172 63.9414 16.377C63.9414 16.5378 63.9229 16.68 63.8858 16.8037C63.8487 16.915 63.8301 17.0387 63.8301 17.1748C63.8301 17.2861 63.8487 17.3727 63.8858 17.4346C63.9353 17.4964 63.9786 17.5583 64.0157 17.6201C64.0651 17.6696 64.1084 17.7314 64.1455 17.8057C64.195 17.8675 64.2198 17.9479 64.2198 18.0469C64.2198 18.3314 64.2074 18.6097 64.1827 18.8818C64.1579 19.154 64.1455 19.4323 64.1455 19.7168C64.1455 20.0013 64.1765 20.2858 64.2383 20.5703C64.3002 20.8548 64.4177 21.1208 64.5909 21.3682ZM85.853 4.33496C85.7912 4.75553 85.6922 5.16374 85.5562 5.55957C85.4325 5.9554 85.3706 6.36979 85.3706 6.80273C85.3706 7.08724 85.4015 7.34082 85.4634 7.56348C85.5376 7.77376 85.6304 8.0026 85.7417 8.25C85.7417 8.59635 85.6799 8.93034 85.5562 9.25195C85.4325 9.5612 85.3706 9.88281 85.3706 10.2168C85.3706 10.5013 85.4325 10.7796 85.5562 11.0518C85.6799 11.3115 85.7417 11.5837 85.7417 11.8682C85.7417 12.3877 85.7232 12.901 85.6861 13.4082C85.6489 13.903 85.6304 14.4102 85.6304 14.9297C85.6304 15.0905 85.6489 15.2327 85.6861 15.3564C85.7232 15.4678 85.7417 15.5915 85.7417 15.7275C85.7417 15.8883 85.7046 16.0368 85.6304 16.1729C85.5562 16.2965 85.5191 16.445 85.5191 16.6182C85.5191 16.8408 85.5562 17.0635 85.6304 17.2861C85.7046 17.4964 85.7417 17.7129 85.7417 17.9355C85.7417 18.3561 85.6799 18.7643 85.5562 19.1602C85.4325 19.5436 85.3706 19.9456 85.3706 20.3662C85.3706 20.5518 85.3892 20.7311 85.4263 20.9043C85.4758 21.0775 85.5252 21.2507 85.5747 21.4238C85.6242 21.597 85.6675 21.7764 85.7046 21.9619C85.7541 22.1351 85.7788 22.3145 85.7788 22.5C85.7788 22.735 85.7355 22.9391 85.6489 23.1123C85.5624 23.2731 85.5191 23.4463 85.5191 23.6318C85.5191 23.8298 85.5314 24.0277 85.5562 24.2256C85.5809 24.4111 85.6056 24.609 85.6304 24.8193C85.6551 25.4502 85.6613 26.0934 85.6489 26.749C85.6366 27.3923 85.6304 28.0417 85.6304 28.6973C85.6304 29.2539 85.6056 29.8105 85.5562 30.3672C85.5067 30.9238 85.5314 31.4805 85.6304 32.0371C85.4572 32.2721 85.3026 32.5072 85.1665 32.7422C85.0305 32.9896 84.8944 33.2493 84.7583 33.5215L84.6099 33.4844C84.4491 33.4844 84.3068 33.5277 84.1831 33.6143C84.0594 33.7008 83.9234 33.7441 83.7749 33.7441C83.6265 33.7441 83.4904 33.7132 83.3667 33.6514C83.2554 33.5895 83.1379 33.5153 83.0142 33.4287C82.9028 33.3545 82.7915 33.2741 82.6802 33.1875C82.5689 33.1133 82.4513 33.0576 82.3277 33.0205C82.2287 32.7236 82.1607 32.4268 82.1236 32.1299C82.0988 31.833 82.0803 31.5361 82.0679 31.2393C82.0555 30.9424 82.0431 30.6455 82.0308 30.3486C82.0184 30.0518 81.9875 29.7549 81.938 29.458H81.8638C81.7648 29.458 81.6968 29.4889 81.6597 29.5508C81.6349 29.6003 81.6102 29.6683 81.5855 29.7549C81.5731 29.8291 81.5607 29.9095 81.5484 29.9961C81.536 30.0703 81.5051 30.1322 81.4556 30.1816C81.2082 30.4785 80.967 30.7878 80.7319 31.1094C80.4969 31.4186 80.2433 31.7279 79.9712 32.0371C79.9094 32.1113 79.7671 32.167 79.5444 32.2041C79.3342 32.2536 79.161 32.3278 79.0249 32.4268C78.7775 32.5999 78.5487 32.7298 78.3384 32.8164C78.1281 32.9154 77.9178 32.9896 77.7075 33.0391C77.5096 33.1009 77.2931 33.138 77.0581 33.1504C76.8231 33.1628 76.551 33.1689 76.2417 33.1689C76.0191 33.1689 75.8397 33.1566 75.7036 33.1318C75.5799 33.1195 75.4686 33.0947 75.3696 33.0576C75.2707 33.0205 75.1655 32.9772 75.0542 32.9277C74.9429 32.8783 74.7944 32.8226 74.6089 32.7607C74.4234 32.6989 74.2316 32.637 74.0337 32.5752C73.8358 32.5257 73.6502 32.4577 73.4771 32.3711C73.3039 32.2969 73.1431 32.1917 72.9946 32.0557C72.8462 31.932 72.7287 31.7588 72.6421 31.5361H72.4751C72.3885 31.5361 72.2772 31.5052 72.1411 31.4434C72.0051 31.3815 71.8628 31.3073 71.7144 31.2207C71.5783 31.1217 71.4422 31.0228 71.3062 30.9238C71.1825 30.8249 71.0959 30.7383 71.0464 30.6641C70.9227 30.528 70.8237 30.3672 70.7495 30.1816C70.6877 29.9961 70.6196 29.8105 70.5454 29.625C70.4712 29.4395 70.3784 29.2601 70.2671 29.0869C70.1681 28.9137 70.0197 28.7591 69.8218 28.623C69.7599 28.388 69.6981 28.1592 69.6362 27.9365C69.5868 27.7139 69.5249 27.485 69.4507 27.25C69.3641 27.0645 69.2713 26.8851 69.1724 26.7119C69.0858 26.5264 69.0116 26.3408 68.9497 26.1553C68.8755 25.7718 68.8198 25.3389 68.7827 24.8564C68.7456 24.3617 68.7271 23.9163 68.7271 23.5205C68.7271 23.236 68.7889 22.9762 68.9126 22.7412C69.0363 22.4938 69.0982 22.3021 69.0982 22.166C69.0982 22.1165 69.0858 22.0114 69.0611 21.8506C69.0487 21.6898 69.0301 21.5166 69.0054 21.3311C68.993 21.1455 68.9806 20.9723 68.9683 20.8115C68.9559 20.6383 68.9497 20.527 68.9497 20.4775C68.9497 20.4033 68.9868 20.3229 69.0611 20.2363C69.1353 20.1497 69.1847 20.0693 69.2095 19.9951C69.2961 19.6117 69.3332 19.2282 69.3208 18.8447C69.3208 18.4489 69.3641 18.0592 69.4507 17.6758C69.5125 17.3542 69.593 17.0449 69.6919 16.748C69.7909 16.4512 69.8713 16.1419 69.9331 15.8203C69.9702 15.5853 69.9764 15.3317 69.9517 15.0596C69.9393 14.7874 69.9702 14.5462 70.0444 14.3359C70.0939 14.2246 70.1929 14.07 70.3413 13.8721C70.5021 13.6742 70.6753 13.4762 70.8609 13.2783C71.0588 13.0804 71.2505 12.9072 71.4361 12.7588C71.634 12.6104 71.7948 12.5238 71.9185 12.499C71.9927 12.2393 72.1597 11.9795 72.4194 11.7197C72.6792 11.46 72.9761 11.2249 73.3101 11.0146C73.6441 10.8044 73.9842 10.6374 74.3306 10.5137C74.6893 10.3776 74.9986 10.3096 75.2583 10.3096C75.4439 10.3096 75.6294 10.3281 75.815 10.3652C76.0129 10.4023 76.217 10.4209 76.4273 10.4209C76.6994 10.4209 76.9653 10.3776 77.2251 10.291C77.4972 10.1921 77.7632 10.1426 78.023 10.1426C78.2333 10.1426 78.4188 10.1797 78.5796 10.2539C78.7528 10.3158 78.9198 10.39 79.0806 10.4766C79.2414 10.5508 79.4022 10.625 79.563 10.6992C79.7238 10.7611 79.9094 10.792 80.1196 10.792C80.1939 10.792 80.2372 10.8415 80.2495 10.9404C80.2743 11.0394 80.3052 11.1198 80.3423 11.1816C80.4289 11.2559 80.5835 11.3239 80.8062 11.3857C81.0288 11.4476 81.2082 11.5404 81.3443 11.6641C81.468 11.528 81.5669 11.4105 81.6411 11.3115C81.7277 11.2126 81.7896 11.1136 81.8267 11.0146C81.8762 10.9033 81.9071 10.792 81.9194 10.6807C81.9318 10.557 81.938 10.4023 81.938 10.2168C81.938 9.89518 81.9009 9.58594 81.8267 9.28906C81.7525 8.97982 81.7153 8.67057 81.7153 8.36133C81.7153 8.21289 81.7339 8.06445 81.771 7.91602C81.8081 7.76758 81.8638 7.6377 81.938 7.52637C81.9133 7.48926 81.8823 7.36556 81.8452 7.15527C81.8205 6.93262 81.7896 6.67285 81.7525 6.37598C81.7153 6.0791 81.6782 5.76367 81.6411 5.42969C81.604 5.08333 81.5669 4.76172 81.5298 4.46484C81.4927 4.1556 81.4618 3.88965 81.437 3.66699C81.4247 3.44434 81.4185 3.30208 81.4185 3.24023C81.4185 3.0918 81.4247 2.98665 81.437 2.9248C81.4494 2.86296 81.468 2.80729 81.4927 2.75781C81.5174 2.70833 81.5484 2.65885 81.5855 2.60938C81.6226 2.5599 81.6659 2.47949 81.7153 2.36816C81.7401 2.28158 81.7525 2.20117 81.7525 2.12695C81.7648 2.05273 81.7896 1.97852 81.8267 1.9043C81.8885 1.79297 81.9875 1.68164 82.1236 1.57031C82.272 1.45898 82.4266 1.36003 82.5874 1.27344C82.7606 1.18685 82.9338 1.11882 83.1069 1.06934C83.2801 1.01986 83.4347 0.995117 83.5708 0.995117C83.6574 0.995117 83.7378 0.995117 83.812 0.995117C83.8862 0.995117 83.9605 1.00749 84.0347 1.03223L84.2573 1.25488C84.3192 1.27962 84.3749 1.28581 84.4243 1.27344C84.4862 1.26107 84.5357 1.25488 84.5728 1.25488C84.647 1.25488 84.7088 1.29199 84.7583 1.36621C84.8078 1.44043 84.8573 1.52083 84.9068 1.60742C84.9686 1.69401 85.0305 1.7806 85.0923 1.86719C85.1665 1.95378 85.2593 2.00326 85.3706 2.01562C85.3706 2.05273 85.3644 2.09603 85.3521 2.14551C85.3397 2.19499 85.3335 2.23828 85.3335 2.27539C85.3335 2.42383 85.3583 2.5599 85.4077 2.68359C85.4696 2.80729 85.5314 2.93099 85.5933 3.05469C85.6551 3.16602 85.7108 3.27734 85.7603 3.38867C85.8221 3.5 85.853 3.61133 85.853 3.72266C85.853 3.82161 85.8345 3.89583 85.7974 3.94531C85.7603 3.98242 85.7417 4.03809 85.7417 4.1123C85.7417 4.14941 85.7541 4.18652 85.7788 4.22363C85.8036 4.26074 85.8283 4.29785 85.853 4.33496ZM81.8267 17.7871C81.6659 17.6634 81.5298 17.5273 81.4185 17.3789C81.3071 17.2181 81.202 17.0573 81.103 16.8965C81.0041 16.7233 80.9051 16.5563 80.8062 16.3955C80.7072 16.2223 80.5959 16.0677 80.4722 15.9316C80.3114 15.7585 80.1506 15.641 79.9898 15.5791C79.8413 15.5173 79.6805 15.4307 79.5073 15.3193C79.2476 15.1709 79.0682 15.041 78.9693 14.9297C78.8703 14.8184 78.7713 14.7256 78.6724 14.6514C78.5858 14.5771 78.4559 14.5277 78.2827 14.5029C78.1096 14.4658 77.825 14.4473 77.4292 14.4473C77.0705 14.4473 76.718 14.5029 76.3716 14.6143C76.0376 14.7132 75.6913 14.7812 75.3325 14.8184C75.1099 15.1029 74.8934 15.3997 74.6831 15.709C74.4728 16.0182 74.2316 16.3089 73.9595 16.5811L73.9966 16.7295C73.9966 16.9893 73.9533 17.2428 73.8667 17.4902C73.7925 17.7376 73.6997 17.9974 73.5884 18.2695C73.4894 18.5417 73.3967 18.8324 73.3101 19.1416C73.2359 19.4508 73.1987 19.7848 73.1987 20.1436C73.1987 20.3291 73.1987 20.5765 73.1987 20.8857C73.2111 21.195 73.2235 21.5166 73.2359 21.8506C73.2482 22.1846 73.2544 22.5062 73.2544 22.8154C73.2668 23.1247 73.273 23.3721 73.273 23.5576C73.273 23.805 73.2606 24.0524 73.2359 24.2998C73.2235 24.5472 73.1864 24.7946 73.1245 25.042C73.2482 25.1904 73.341 25.3636 73.4028 25.5615C73.4771 25.7594 73.5265 25.9635 73.5513 26.1738C73.5884 26.3717 73.6069 26.5758 73.6069 26.7861C73.6193 26.984 73.6255 27.1758 73.6255 27.3613C73.7863 27.5098 73.9347 27.6768 74.0708 27.8623C74.2193 28.0479 74.3677 28.2272 74.5161 28.4004C74.6769 28.5612 74.8501 28.7035 75.0357 28.8271C75.2212 28.9385 75.4377 28.9941 75.6851 28.9941C75.8088 28.9941 75.9387 28.9818 76.0747 28.957C76.2108 28.9199 76.3469 28.889 76.4829 28.8643C76.619 28.8271 76.7551 28.8024 76.8911 28.79C77.0272 28.7777 77.1694 28.7962 77.3179 28.8457C77.6024 28.6354 77.8683 28.4004 78.1157 28.1406C78.3755 27.8809 78.6786 27.6706 79.0249 27.5098C79.161 27.1882 79.328 26.8913 79.5259 26.6191C79.7362 26.347 79.9712 26.112 80.231 25.9141C80.2681 25.7285 80.3237 25.5492 80.398 25.376C80.4722 25.2028 80.5464 25.0358 80.6206 24.875C80.7072 24.7018 80.7876 24.5348 80.8618 24.374C80.9484 24.2008 81.0165 24.0215 81.0659 23.8359C81.0907 23.7617 81.134 23.5452 81.1958 23.1865C81.27 22.8154 81.3443 22.4196 81.4185 21.999C81.4927 21.5661 81.5545 21.1764 81.604 20.8301C81.6659 20.4714 81.703 20.2673 81.7153 20.2178C81.7401 19.9704 81.7339 19.7168 81.6968 19.457C81.6597 19.1973 81.6411 18.9313 81.6411 18.6592C81.6411 18.5107 81.6535 18.3623 81.6782 18.2139C81.703 18.0654 81.7525 17.9232 81.8267 17.7871ZM107.783 29.3467C107.746 29.5322 107.697 29.693 107.635 29.8291C107.585 29.9528 107.536 30.0827 107.486 30.2188C107.449 30.3424 107.418 30.4785 107.394 30.627C107.381 30.7754 107.387 30.9548 107.412 31.165C107.301 31.2269 107.22 31.3135 107.171 31.4248C107.121 31.5238 107.078 31.6351 107.041 31.7588C107.016 31.8701 106.985 31.9876 106.948 32.1113C106.924 32.235 106.874 32.3402 106.8 32.4268C106.528 32.3402 106.256 32.3031 105.983 32.3154C105.711 32.3278 105.439 32.334 105.167 32.334C104.882 32.334 104.666 32.3092 104.518 32.2598C104.369 32.2227 104.19 32.1113 103.979 31.9258C103.831 31.7773 103.683 31.7155 103.534 31.7402C103.398 31.765 103.268 31.7712 103.145 31.7588C103.033 31.7464 102.94 31.666 102.866 31.5176C102.804 31.3568 102.773 31.0352 102.773 30.5527C102.773 30.4785 102.767 30.3981 102.755 30.3115C102.743 30.2249 102.699 30.1445 102.625 30.0703C102.303 30.1445 102.007 30.2806 101.734 30.4785C101.462 30.6641 101.202 30.862 100.955 31.0723C100.708 31.2702 100.46 31.4434 100.213 31.5918C99.9655 31.7402 99.7057 31.8021 99.4336 31.7773C99.2975 31.9134 99.1676 32.0495 99.0439 32.1855C98.9202 32.3216 98.7718 32.4391 98.5986 32.5381C98.512 32.5752 98.3636 32.6185 98.1533 32.668C97.9554 32.7174 97.7451 32.7607 97.5225 32.7979C97.2998 32.835 97.0833 32.8659 96.873 32.8906C96.6628 32.9277 96.5143 32.9463 96.4277 32.9463C96.168 32.9463 95.8649 32.8597 95.5186 32.6865C95.1722 32.5257 94.8258 32.3525 94.4795 32.167C94.1455 31.9814 93.8301 31.8206 93.5332 31.6846C93.2363 31.5361 92.9951 31.4867 92.8096 31.5361C92.6735 31.4248 92.5745 31.2887 92.5127 31.1279C92.4508 30.9548 92.3519 30.8001 92.2158 30.6641C92.055 30.528 91.8818 30.4167 91.6963 30.3301C91.5107 30.2435 91.3499 30.1136 91.2139 29.9404C91.1273 29.8167 91.0592 29.6868 91.0098 29.5508C90.9727 29.4023 90.9294 29.2539 90.8799 29.1055C90.8428 28.9447 90.7933 28.79 90.7314 28.6416C90.682 28.4932 90.6016 28.3571 90.4902 28.2334C90.5397 28.0231 90.5706 27.7633 90.583 27.4541C90.5954 27.1449 90.6139 26.8356 90.6387 26.5264C90.6758 26.2048 90.7314 25.9079 90.8057 25.6357C90.8923 25.3636 91.0283 25.1657 91.2139 25.042V24.8936C91.2139 24.5101 91.2757 24.2008 91.3994 23.9658C91.5231 23.7184 91.6777 23.502 91.8633 23.3164C92.0488 23.1185 92.2529 22.9329 92.4756 22.7598C92.6982 22.5866 92.9023 22.3763 93.0879 22.1289C93.1992 22.0423 93.3167 22.0114 93.4404 22.0361C93.5641 22.0485 93.6878 22.0238 93.8115 21.9619L93.9229 21.7393C93.9847 21.7145 94.0404 21.7083 94.0898 21.7207C94.1393 21.7331 94.1826 21.7393 94.2197 21.7393C94.2816 21.7393 94.3434 21.7145 94.4053 21.665C94.4671 21.6156 94.529 21.5661 94.5908 21.5166C94.6527 21.4548 94.7145 21.3991 94.7764 21.3496C94.8506 21.3001 94.931 21.2754 95.0176 21.2754C95.0547 21.2754 95.098 21.2878 95.1475 21.3125C95.1969 21.3249 95.2402 21.3434 95.2773 21.3682C95.3639 21.2321 95.4629 21.1146 95.5742 21.0156C95.6979 20.9043 95.8216 20.7992 95.9453 20.7002C96.069 20.6012 96.1865 20.5023 96.2979 20.4033C96.4215 20.292 96.5267 20.1683 96.6133 20.0322C96.6628 20.057 96.737 20.0693 96.8359 20.0693C96.9473 20.0693 97.0339 20.0446 97.0957 19.9951C97.1576 19.9333 97.2194 19.8714 97.2812 19.8096C97.3555 19.7354 97.4359 19.6735 97.5225 19.624C97.609 19.5622 97.7389 19.5312 97.9121 19.5312C97.9492 19.5312 98.0234 19.5065 98.1348 19.457C98.2461 19.4076 98.3636 19.3519 98.4873 19.29C98.611 19.2158 98.7285 19.1478 98.8398 19.0859C98.9512 19.0117 99.0316 18.9561 99.0811 18.9189L99.2852 18.8818C99.3965 18.8818 99.5016 18.9066 99.6006 18.9561C99.6995 18.9932 99.8047 19.0241 99.916 19.0488C100.077 18.888 100.238 18.7334 100.398 18.585C100.559 18.4365 100.689 18.2572 100.788 18.0469C100.949 17.9974 101.134 17.9046 101.345 17.7686C101.555 17.6325 101.753 17.4779 101.938 17.3047C102.136 17.1315 102.297 16.946 102.421 16.748C102.557 16.5378 102.625 16.3398 102.625 16.1543C102.625 15.9564 102.569 15.7646 102.458 15.5791C102.359 15.3936 102.242 15.2142 102.105 15.041C101.969 14.8555 101.833 14.6699 101.697 14.4844C101.561 14.2988 101.462 14.1071 101.4 13.9092H101.326C101.178 13.9092 101.042 13.8411 100.918 13.7051C100.807 13.5566 100.677 13.4639 100.528 13.4268C100.405 13.3773 100.275 13.3525 100.139 13.3525C100.003 13.3525 99.8665 13.3525 99.7305 13.3525C99.5944 13.3525 99.4583 13.3402 99.3223 13.3154C99.1986 13.2907 99.0811 13.235 98.9697 13.1484C98.7223 13.1979 98.5244 13.2907 98.376 13.4268C98.2275 13.5505 98.0791 13.6803 97.9307 13.8164C97.7822 13.9525 97.609 14.07 97.4111 14.1689C97.2132 14.2555 96.9473 14.2865 96.6133 14.2617C96.3906 14.7194 96.1865 15.1956 96.001 15.6904C95.8278 16.1852 95.5866 16.6429 95.2773 17.0635C95.2031 17.3356 95.1289 17.6077 95.0547 17.8799C94.9928 18.1396 94.8691 18.3623 94.6836 18.5479C94.4362 18.6221 94.1826 18.6592 93.9229 18.6592C93.6507 18.6592 93.3477 18.6097 93.0137 18.5107C92.6921 18.3994 92.389 18.251 92.1045 18.0654C91.82 17.8799 91.5788 17.6634 91.3809 17.416C91.1953 17.1562 91.1025 16.8779 91.1025 16.5811C91.1025 16.2594 91.1644 15.944 91.2881 15.6348C91.4242 15.3132 91.4922 14.9792 91.4922 14.6328C91.6654 14.571 91.8014 14.472 91.9004 14.3359C91.9993 14.1999 92.0859 14.0576 92.1602 13.9092C92.2467 13.7484 92.3333 13.5999 92.4199 13.4639C92.5189 13.3278 92.6488 13.2227 92.8096 13.1484V13C92.8096 12.8887 92.8405 12.8083 92.9023 12.7588C92.9642 12.6969 92.9766 12.5856 92.9395 12.4248C93.5085 12.0908 93.96 11.6393 94.2939 11.0703C94.5042 10.9714 94.7269 10.891 94.9619 10.8291C95.1969 10.7673 95.4196 10.6807 95.6299 10.5693C95.8154 10.4951 95.9886 10.39 96.1494 10.2539C96.3226 10.1178 96.5143 10.0189 96.7246 9.95703C97.0339 9.89518 97.3369 9.889 97.6338 9.93848C97.943 9.97559 98.2399 9.99414 98.5244 9.99414C98.7718 9.99414 98.9821 9.94466 99.1553 9.8457C99.3408 9.74674 99.5573 9.69727 99.8047 9.69727C100.052 9.69727 100.299 9.71582 100.547 9.75293C100.794 9.77767 101.042 9.80859 101.289 9.8457C101.4 9.87044 101.499 9.91374 101.586 9.97559C101.685 10.0251 101.79 10.0684 101.901 10.1055C102.285 10.1797 102.563 10.223 102.736 10.2354C102.91 10.2354 103.058 10.2601 103.182 10.3096C103.305 10.359 103.435 10.458 103.571 10.6064C103.707 10.7425 103.924 10.9837 104.221 11.3301H104.295C104.456 11.3301 104.623 11.3919 104.796 11.5156C104.969 11.627 105.13 11.7692 105.278 11.9424C105.439 12.1032 105.575 12.2764 105.687 12.4619C105.798 12.6351 105.878 12.7897 105.928 12.9258C106.002 13.1113 106.045 13.3154 106.058 13.5381C106.07 13.7484 106.113 13.9463 106.188 14.1318C106.262 14.305 106.354 14.4658 106.466 14.6143C106.577 14.7627 106.682 14.9111 106.781 15.0596C106.893 15.208 106.985 15.3626 107.06 15.5234C107.146 15.6842 107.189 15.8574 107.189 16.043C107.189 16.2904 107.159 16.5316 107.097 16.7666C107.047 16.9893 107.022 17.2181 107.022 17.4531C107.022 17.6634 107.066 17.8675 107.152 18.0654C107.251 18.251 107.301 18.4489 107.301 18.6592C107.301 18.9313 107.251 19.1911 107.152 19.4385C107.066 19.6859 107.022 19.9456 107.022 20.2178C107.022 20.5765 107.066 20.9352 107.152 21.2939C107.251 21.6527 107.375 22.0052 107.523 22.3516C107.449 22.5742 107.412 22.8154 107.412 23.0752C107.412 23.4339 107.449 23.7865 107.523 24.1328C107.598 24.4668 107.635 24.807 107.635 25.1533C107.635 25.3265 107.616 25.4873 107.579 25.6357C107.542 25.7842 107.499 25.9326 107.449 26.0811C107.4 26.2295 107.356 26.3779 107.319 26.5264C107.282 26.6748 107.264 26.8418 107.264 27.0273C107.264 27.4232 107.313 27.8128 107.412 28.1963C107.511 28.5798 107.635 28.9632 107.783 29.3467ZM103.386 23.2979C103.386 23.0628 103.367 22.8402 103.33 22.6299C103.293 22.4196 103.274 22.1969 103.274 21.9619C103.274 21.7021 103.231 21.5104 103.145 21.3867C103.058 21.263 102.885 21.2135 102.625 21.2383H102.384C102.211 21.3991 102.05 21.5723 101.901 21.7578C101.765 21.9434 101.598 22.1042 101.4 22.2402C101.227 22.3516 101.035 22.432 100.825 22.4814C100.615 22.5309 100.442 22.6484 100.306 22.834H100.231C100.058 22.834 99.9098 22.8649 99.7861 22.9268C99.6624 22.9762 99.5387 23.0319 99.415 23.0938C99.2913 23.1432 99.1553 23.1865 99.0068 23.2236C98.8708 23.2607 98.6976 23.2607 98.4873 23.2236C98.2894 23.5329 98.0977 23.8545 97.9121 24.1885C97.7266 24.5101 97.4606 24.7575 97.1143 24.9307L96.7988 24.8936C96.5762 24.8812 96.3473 24.9059 96.1123 24.9678C95.8896 25.0296 95.6855 25.1224 95.5 25.2461C95.3268 25.3698 95.1846 25.5244 95.0732 25.71C94.9619 25.8955 94.9062 26.1182 94.9062 26.3779C94.9062 26.7119 94.9557 26.9655 95.0547 27.1387C95.1536 27.2995 95.2773 27.4355 95.4258 27.5469C95.5742 27.6458 95.735 27.7386 95.9082 27.8252C96.0814 27.9118 96.2422 28.0479 96.3906 28.2334C96.5267 28.2581 96.6689 28.2643 96.8174 28.252C96.9658 28.2396 97.1143 28.2334 97.2627 28.2334C97.3617 28.2334 97.4606 28.2396 97.5596 28.252C97.6709 28.252 97.7637 28.2829 97.8379 28.3447C97.9863 28.2087 98.11 28.1097 98.209 28.0479C98.3079 27.9736 98.4749 27.9489 98.71 27.9736C98.9945 27.6149 99.347 27.3366 99.7676 27.1387C100.188 26.9408 100.609 26.7738 101.029 26.6377C101.054 26.5016 101.11 26.3841 101.196 26.2852C101.295 26.1862 101.4 26.0996 101.512 26.0254C101.623 25.9388 101.734 25.8646 101.846 25.8027C101.957 25.7285 102.05 25.6419 102.124 25.543C102.198 25.4688 102.303 25.3265 102.439 25.1162C102.588 24.9059 102.73 24.6833 102.866 24.4482C103.015 24.2008 103.138 23.972 103.237 23.7617C103.336 23.5514 103.386 23.3968 103.386 23.2979ZM128.136 12.3877C128.136 12.6598 128.056 12.901 127.895 13.1113C127.747 13.3092 127.623 13.5257 127.524 13.7607C127.301 13.7979 127.103 13.8659 126.93 13.9648C126.769 14.0514 126.602 14.1504 126.429 14.2617C126.268 14.3607 126.089 14.4473 125.891 14.5215C125.693 14.5957 125.464 14.6328 125.205 14.6328C124.957 14.6328 124.716 14.6081 124.481 14.5586C124.258 14.5091 124.029 14.4844 123.794 14.4844C123.485 14.4844 123.188 14.5462 122.904 14.6699C122.632 14.7936 122.335 14.8555 122.013 14.8555C121.704 14.8555 121.388 14.8245 121.067 14.7627C120.758 14.7008 120.455 14.6699 120.158 14.6699C120.059 14.6699 119.966 14.6761 119.879 14.6885C119.805 14.7008 119.731 14.707 119.657 14.707C119.545 14.9421 119.496 15.1833 119.508 15.4307C119.533 15.6781 119.545 15.9193 119.545 16.1543C119.545 16.5749 119.502 16.9954 119.416 17.416C119.341 17.8366 119.304 18.2633 119.304 18.6963C119.304 19.0426 119.341 19.3828 119.416 19.7168C119.502 20.0384 119.545 20.3724 119.545 20.7188C119.545 20.9043 119.521 21.0775 119.471 21.2383C119.422 21.3867 119.36 21.5352 119.286 21.6836C119.224 21.832 119.168 21.9805 119.119 22.1289C119.069 22.2773 119.044 22.4382 119.044 22.6113C119.044 22.7227 119.063 22.8402 119.1 22.9639C119.137 23.0752 119.156 23.1865 119.156 23.2979L119.044 23.4092C119.044 23.4587 119.057 23.502 119.082 23.5391C119.106 23.5638 119.137 23.6009 119.174 23.6504C119.211 23.6875 119.242 23.737 119.267 23.7988C119.292 23.8607 119.304 23.9473 119.304 24.0586C119.304 24.3802 119.279 24.7018 119.23 25.0234C119.18 25.3451 119.156 25.6667 119.156 25.9883C119.156 26.0501 119.168 26.1862 119.193 26.3965C119.218 26.5944 119.249 26.8294 119.286 27.1016C119.335 27.3737 119.378 27.6582 119.416 27.9551C119.465 28.252 119.514 28.5303 119.564 28.79C119.613 29.0498 119.657 29.2725 119.694 29.458C119.743 29.6436 119.78 29.7549 119.805 29.792C119.904 29.9281 120.022 30.0394 120.158 30.126C120.294 30.2002 120.417 30.293 120.529 30.4043C120.578 30.429 120.652 30.4414 120.751 30.4414C120.888 30.4414 121.011 30.4229 121.123 30.3857C121.246 30.3486 121.376 30.3177 121.512 30.293C121.648 30.2559 121.784 30.2373 121.92 30.2373C122.069 30.2373 122.211 30.2188 122.347 30.1816C122.496 30.1198 122.625 30.0394 122.737 29.9404C122.848 29.8415 122.953 29.7487 123.052 29.6621C123.164 29.5632 123.281 29.4827 123.405 29.4209C123.528 29.3467 123.671 29.3096 123.832 29.3096C124.042 28.9261 124.271 28.5612 124.518 28.2148C124.778 27.8685 124.994 27.4974 125.167 27.1016C125.217 27.1263 125.266 27.1387 125.316 27.1387C125.415 27.1387 125.495 27.1139 125.557 27.0645C125.631 27.015 125.718 26.9902 125.817 26.9902C125.829 26.9902 125.891 27.0088 126.002 27.0459C126.114 27.0706 126.231 27.1077 126.355 27.1572C126.479 27.1943 126.596 27.2376 126.707 27.2871C126.819 27.3242 126.887 27.349 126.912 27.3613C126.986 27.4232 127.041 27.5345 127.079 27.6953C127.128 27.8561 127.184 27.986 127.246 28.085C127.307 28.1839 127.363 28.2581 127.413 28.3076C127.462 28.3571 127.499 28.4128 127.524 28.4746C127.561 28.5241 127.586 28.5859 127.598 28.6602C127.623 28.7344 127.635 28.8457 127.635 28.9941C127.635 29.3776 127.555 29.7425 127.394 30.0889C127.246 30.4229 127.122 30.7692 127.023 31.1279C126.862 31.1898 126.732 31.2826 126.633 31.4062C126.534 31.5176 126.435 31.6351 126.336 31.7588C126.25 31.8825 126.145 31.9938 126.021 32.0928C125.91 32.1917 125.749 32.2474 125.539 32.2598C125.44 32.5443 125.279 32.7855 125.056 32.9834C124.833 33.1813 124.592 33.3483 124.332 33.4844C124.258 33.5586 124.153 33.5957 124.017 33.5957C123.943 33.5957 123.856 33.5771 123.757 33.54C123.671 33.5029 123.609 33.4473 123.572 33.373C123.411 33.4349 123.293 33.4967 123.219 33.5586C123.157 33.6328 123.102 33.707 123.052 33.7812C123.003 33.8678 122.947 33.9482 122.885 34.0225C122.836 34.0967 122.749 34.1647 122.625 34.2266C122.514 34.2884 122.347 34.3379 122.124 34.375C121.914 34.4121 121.624 34.4307 121.252 34.4307C121.079 34.4307 120.906 34.4368 120.733 34.4492C120.572 34.474 120.417 34.5173 120.269 34.5791C119.985 34.3812 119.632 34.2575 119.211 34.208C118.791 34.1709 118.407 34.1338 118.061 34.0967C118.086 33.973 118.049 33.9111 117.95 33.9111C117.851 33.9111 117.77 33.8802 117.708 33.8184C117.572 33.7441 117.461 33.6328 117.374 33.4844C117.288 33.3483 117.146 33.2617 116.948 33.2246C116.935 33.0762 116.886 32.9339 116.799 32.7979C116.713 32.6742 116.614 32.5505 116.502 32.4268C116.403 32.3031 116.305 32.1732 116.206 32.0371C116.107 31.9134 116.039 31.7773 116.001 31.6289C115.89 31.2702 115.754 30.9115 115.593 30.5527C115.445 30.1816 115.327 29.8044 115.241 29.4209C115.204 29.2477 115.166 29.0251 115.129 28.7529C115.105 28.4684 115.08 28.1715 115.055 27.8623C115.043 27.5531 115.03 27.2562 115.018 26.9717C115.018 26.6872 115.018 26.4521 115.018 26.2666C115.018 25.9574 115.055 25.6667 115.129 25.3945C115.204 25.11 115.241 24.8193 115.241 24.5225C115.241 24.1266 115.21 23.737 115.148 23.3535C115.086 22.9701 115.043 22.5866 115.018 22.2031C114.993 21.9928 114.993 21.7826 115.018 21.5723C115.043 21.362 115.055 21.1517 115.055 20.9414C115.055 20.6198 115.006 20.3415 114.907 20.1064C114.981 20.057 115.043 19.9827 115.092 19.8838C115.154 19.7848 115.204 19.6797 115.241 19.5684C115.278 19.4447 115.303 19.321 115.315 19.1973C115.34 19.0736 115.352 18.9684 115.352 18.8818L115.241 18.7705C115.265 18.585 115.284 18.3994 115.296 18.2139C115.309 18.016 115.315 17.8242 115.315 17.6387C115.315 17.4408 115.29 17.2552 115.241 17.082C115.204 16.8965 115.129 16.7295 115.018 16.5811C114.993 16.3831 115.012 16.1976 115.074 16.0244C115.136 15.8512 115.166 15.6781 115.166 15.5049L115.129 15.208C114.845 15.1709 114.548 15.1647 114.239 15.1895C113.93 15.2018 113.633 15.208 113.348 15.208C113.15 15.208 112.952 15.208 112.754 15.208C112.556 15.1956 112.371 15.1585 112.198 15.0967C112.012 14.8245 111.82 14.5586 111.623 14.2988C111.425 14.0267 111.326 13.7174 111.326 13.3711C111.326 12.9753 111.425 12.6289 111.623 12.332C111.82 12.0352 112.012 11.7259 112.198 11.4043C112.346 11.3919 112.495 11.3548 112.643 11.293C112.791 11.2311 112.934 11.1631 113.07 11.0889C113.218 11.0146 113.36 10.9466 113.497 10.8848C113.633 10.8229 113.775 10.792 113.923 10.792C114.183 10.792 114.43 10.86 114.666 10.9961C114.901 11.1198 115.16 11.1816 115.445 11.1816H115.63C115.692 11.0456 115.748 10.9033 115.797 10.7549C115.859 10.6064 115.878 10.458 115.853 10.3096C115.791 10.2601 115.735 10.2106 115.686 10.1611C115.649 10.0993 115.63 10.0312 115.63 9.95703C115.63 9.89518 115.649 9.8457 115.686 9.80859C115.723 9.75911 115.742 9.6849 115.742 9.58594C115.742 9.30143 115.705 9.01693 115.63 8.73242C115.556 8.43555 115.519 8.13249 115.519 7.82324C115.519 7.57585 115.556 7.27279 115.63 6.91406C115.717 6.55534 115.822 6.19661 115.946 5.83789C116.082 5.4668 116.236 5.12044 116.41 4.79883C116.583 4.47721 116.762 4.236 116.948 4.0752C117.109 4.05046 117.263 4.03809 117.412 4.03809C117.56 4.03809 117.715 4.03809 117.875 4.03809C118.247 4.03809 118.562 4.11849 118.822 4.2793C119.082 4.4401 119.292 4.65039 119.453 4.91016C119.613 5.16992 119.731 5.4668 119.805 5.80078C119.879 6.1224 119.916 6.44401 119.916 6.76562C119.916 6.97591 119.861 7.23568 119.749 7.54492C119.638 7.85417 119.582 8.18815 119.582 8.54688C119.582 8.83138 119.595 9.12826 119.62 9.4375C119.644 9.73438 119.657 10.0251 119.657 10.3096C119.719 10.3096 119.78 10.3034 119.842 10.291C119.904 10.2786 119.966 10.2725 120.028 10.2725C120.275 10.2725 120.51 10.3158 120.733 10.4023C120.956 10.4889 121.191 10.5322 121.438 10.5322C121.611 10.5322 121.753 10.4951 121.865 10.4209C121.964 10.4209 122.044 10.4456 122.106 10.4951C122.168 10.5322 122.217 10.5817 122.254 10.6436C122.304 10.693 122.353 10.7487 122.403 10.8105C122.465 10.86 122.539 10.891 122.625 10.9033C122.811 10.8291 122.984 10.7301 123.145 10.6064C123.318 10.4827 123.51 10.3838 123.72 10.3096H126.912C127.011 10.3838 127.097 10.4642 127.171 10.5508C127.246 10.6374 127.363 10.6807 127.524 10.6807C127.536 10.8291 127.573 10.9714 127.635 11.1074C127.709 11.2435 127.784 11.3796 127.858 11.5156C127.932 11.6517 127.994 11.7939 128.043 11.9424C128.105 12.0785 128.136 12.2269 128.136 12.3877ZM147.97 27.1016V27.25C147.982 27.5964 147.926 27.8809 147.803 28.1035C147.691 28.3262 147.543 28.5179 147.357 28.6787C147.172 28.8395 146.962 28.988 146.727 29.124C146.491 29.2601 146.256 29.4085 146.021 29.5693V29.7178C146.021 29.9281 145.984 30.1322 145.91 30.3301C145.848 30.5156 145.799 30.7074 145.762 30.9053H145.687C145.502 30.8805 145.335 30.9115 145.186 30.998C145.05 31.0846 144.914 31.1279 144.778 31.1279C144.667 31.1279 144.549 31.0908 144.426 31.0166C144.302 31.0413 144.222 31.0846 144.185 31.1465C144.147 31.2083 144.11 31.2764 144.073 31.3506C144.036 31.4248 143.98 31.4928 143.906 31.5547C143.832 31.6042 143.702 31.6289 143.517 31.6289C143.455 31.6289 143.38 31.666 143.294 31.7402C143.22 31.8021 143.133 31.8763 143.034 31.9629C142.948 32.0495 142.861 32.1299 142.774 32.2041C142.688 32.2907 142.62 32.3464 142.57 32.3711C142.508 32.4082 142.428 32.4268 142.329 32.4268C142.23 32.4391 142.119 32.4453 141.995 32.4453C141.884 32.4577 141.772 32.4639 141.661 32.4639C141.55 32.4762 141.451 32.4886 141.364 32.501C141.265 32.5257 141.172 32.5752 141.086 32.6494C141.012 32.7236 140.937 32.7607 140.863 32.7607C140.764 32.7607 140.672 32.736 140.585 32.6865C140.511 32.637 140.424 32.6123 140.325 32.6123C140.239 32.6123 140.133 32.637 140.01 32.6865C139.886 32.736 139.75 32.7917 139.602 32.8535C139.453 32.9154 139.292 32.971 139.119 33.0205C138.946 33.07 138.767 33.0947 138.581 33.0947C138.334 33.0947 138.117 33.0576 137.932 32.9834C137.919 32.9834 137.845 32.9401 137.709 32.8535C137.585 32.7793 137.424 32.6803 137.227 32.5566C137.041 32.4329 136.837 32.2969 136.614 32.1484C136.392 32.0124 136.181 31.8825 135.983 31.7588C135.785 31.6227 135.618 31.5114 135.482 31.4248C135.346 31.3382 135.266 31.2887 135.241 31.2764L135.13 31.0166C134.957 30.9424 134.802 30.8496 134.666 30.7383C134.542 30.627 134.443 30.4785 134.369 30.293C134.245 30.2188 134.14 30.126 134.054 30.0146C133.967 29.891 133.88 29.7673 133.794 29.6436C133.707 29.5199 133.615 29.4085 133.516 29.3096C133.417 29.1982 133.293 29.1178 133.144 29.0684C133.033 28.821 132.928 28.5736 132.829 28.3262C132.73 28.0788 132.631 27.8314 132.532 27.584L132.272 27.3613C132.248 27.2871 132.248 27.2191 132.272 27.1572C132.297 27.083 132.31 27.015 132.31 26.9531C132.31 26.9036 132.266 26.7985 132.18 26.6377C132.105 26.4769 132.019 26.3037 131.92 26.1182C131.833 25.9202 131.747 25.7285 131.66 25.543C131.586 25.3574 131.549 25.2152 131.549 25.1162C131.549 24.9307 131.567 24.7513 131.604 24.5781C131.642 24.4049 131.66 24.2318 131.66 24.0586C131.66 23.9102 131.629 23.7679 131.567 23.6318C131.505 23.4834 131.462 23.335 131.437 23.1865C131.4 22.9886 131.388 22.7845 131.4 22.5742C131.425 22.3639 131.437 22.1598 131.437 21.9619C131.437 21.8135 131.413 21.665 131.363 21.5166C131.314 21.3682 131.289 21.2135 131.289 21.0527C131.289 20.9043 131.332 20.7682 131.419 20.6445C131.505 20.5208 131.549 20.391 131.549 20.2549C131.549 19.859 131.493 19.4694 131.382 19.0859C131.27 18.6901 131.215 18.2943 131.215 17.8984C131.215 17.5892 131.295 17.2552 131.456 16.8965C131.617 16.5378 131.815 16.2656 132.05 16.0801V15.208C132.161 15.1833 132.241 15.1276 132.291 15.041C132.353 14.9544 132.402 14.8555 132.439 14.7441C132.477 14.6328 132.507 14.5215 132.532 14.4102C132.569 14.2865 132.613 14.1813 132.662 14.0947C132.724 13.9834 132.786 13.8906 132.848 13.8164C132.909 13.7298 132.965 13.6494 133.015 13.5752C133.064 13.4886 133.101 13.3958 133.126 13.2969C133.151 13.1855 133.157 13.0495 133.144 12.8887C133.355 12.8145 133.547 12.7093 133.72 12.5732C133.893 12.4372 134.06 12.2949 134.221 12.1465C134.394 11.998 134.567 11.8558 134.74 11.7197C134.926 11.5837 135.13 11.4785 135.352 11.4043C135.513 11.194 135.779 10.9899 136.15 10.792C136.521 10.5817 136.899 10.39 137.282 10.2168C137.666 10.0436 138.006 9.89518 138.303 9.77148C138.6 9.63542 138.754 9.53646 138.767 9.47461C139.113 9.51172 139.472 9.53027 139.843 9.53027C140.214 9.53027 140.585 9.53646 140.956 9.54883C141.327 9.5612 141.692 9.59831 142.051 9.66016C142.409 9.70964 142.75 9.80859 143.071 9.95703C143.108 10.0312 143.152 10.0993 143.201 10.1611C143.263 10.223 143.319 10.2848 143.368 10.3467C143.418 10.3962 143.461 10.458 143.498 10.5322C143.535 10.6064 143.554 10.693 143.554 10.792C143.999 10.9652 144.389 11.2559 144.723 11.6641C145.069 12.0599 145.353 12.5114 145.576 13.0186C145.811 13.5133 145.984 14.0329 146.096 14.5771C146.207 15.109 146.263 15.5977 146.263 16.043C146.263 16.179 146.232 16.2904 146.17 16.377C146.12 16.4635 146.071 16.5687 146.021 16.6924C145.96 16.8037 145.935 16.9274 145.947 17.0635C145.96 17.1995 145.935 17.3171 145.873 17.416C145.811 17.6016 145.718 17.7686 145.595 17.917C145.471 18.0654 145.36 18.2262 145.261 18.3994C145.038 18.9189 144.803 19.4261 144.556 19.9209C144.308 20.4157 144.011 20.8981 143.665 21.3682C143.529 21.5413 143.368 21.7083 143.183 21.8691C142.997 22.0299 142.88 22.2279 142.83 22.4629C142.607 22.4629 142.434 22.5186 142.311 22.6299C142.187 22.7288 142.075 22.8402 141.977 22.9639C141.878 23.0752 141.766 23.1803 141.643 23.2793C141.519 23.3783 141.346 23.4215 141.123 23.4092C141.024 23.5824 140.919 23.737 140.808 23.873C140.709 23.9967 140.597 24.1328 140.474 24.2812C140.35 24.2812 140.245 24.3122 140.158 24.374C140.084 24.4235 140.004 24.4854 139.917 24.5596C139.83 24.6214 139.738 24.6771 139.639 24.7266C139.54 24.776 139.416 24.7946 139.268 24.7822C139.156 24.943 139.026 25.0853 138.878 25.209C138.729 25.3203 138.575 25.4316 138.414 25.543C138.266 25.6543 138.123 25.778 137.987 25.9141C137.851 26.0378 137.746 26.1924 137.672 26.3779C137.536 26.415 137.375 26.4521 137.189 26.4893C137.016 26.514 136.899 26.6006 136.837 26.749C136.837 26.984 136.886 27.2067 136.985 27.417C137.084 27.6149 137.276 27.7139 137.561 27.7139C137.659 27.8994 137.789 28.0602 137.95 28.1963C138.111 28.32 138.272 28.4499 138.433 28.5859C138.742 28.5612 139.051 28.5612 139.36 28.5859C139.67 28.6107 139.979 28.623 140.288 28.623C140.659 28.623 140.95 28.5921 141.16 28.5303C141.37 28.4684 141.537 28.4004 141.661 28.3262C141.797 28.2396 141.908 28.1654 141.995 28.1035C142.094 28.0293 142.212 27.986 142.348 27.9736C142.521 27.6644 142.7 27.3675 142.886 27.083C143.071 26.7985 143.331 26.6006 143.665 26.4893C143.764 26.3037 143.875 26.1182 143.999 25.9326C144.123 25.7347 144.234 25.5368 144.333 25.3389C144.444 25.1286 144.519 24.9183 144.556 24.708C144.605 24.4977 144.605 24.2812 144.556 24.0586C144.667 23.9102 144.791 23.7246 144.927 23.502C145.075 23.2669 145.236 23.0443 145.409 22.834C145.582 22.6237 145.762 22.4443 145.947 22.2959C146.145 22.1475 146.349 22.0732 146.56 22.0732C146.757 22.0732 146.931 22.1413 147.079 22.2773C147.227 22.401 147.357 22.5371 147.469 22.6855C147.716 22.7227 147.92 22.8154 148.081 22.9639C148.254 23.0999 148.384 23.2669 148.471 23.4648C148.57 23.6504 148.638 23.8607 148.675 24.0957C148.712 24.3184 148.73 24.5348 148.73 24.7451C148.73 25.1286 148.669 25.5492 148.545 26.0068C148.434 26.4645 148.242 26.8294 147.97 27.1016ZM141.847 14.4844C141.785 14.4967 141.741 14.4906 141.717 14.4658C141.704 14.4287 141.692 14.3916 141.68 14.3545C141.667 14.305 141.655 14.2617 141.643 14.2246C141.63 14.1751 141.612 14.1318 141.587 14.0947C141.525 14.0205 141.395 13.9339 141.197 13.835C141.012 13.736 140.801 13.6494 140.566 13.5752C140.344 13.4886 140.115 13.4144 139.88 13.3525C139.657 13.2907 139.49 13.2598 139.379 13.2598C139.131 13.2598 138.927 13.3031 138.767 13.3896C138.618 13.4762 138.482 13.569 138.358 13.668C138.235 13.7669 138.111 13.8597 137.987 13.9463C137.876 14.0329 137.734 14.0824 137.561 14.0947C137.561 14.2061 137.53 14.3112 137.468 14.4102C137.418 14.5091 137.35 14.6019 137.264 14.6885C137.189 14.7751 137.109 14.8617 137.022 14.9482C136.948 15.0348 136.886 15.1214 136.837 15.208C136.738 15.3936 136.67 15.5977 136.633 15.8203C136.596 16.0306 136.534 16.2409 136.447 16.4512C136.348 16.6862 136.243 16.9089 136.132 17.1191C136.02 17.3171 135.928 17.5397 135.853 17.7871L135.575 18.0469C135.513 18.2819 135.476 18.5293 135.464 18.7891C135.464 19.0365 135.464 19.2839 135.464 19.5312C135.464 19.8529 135.501 20.1621 135.575 20.459C135.649 20.7435 135.699 21.0465 135.724 21.3682C135.724 21.4795 135.711 21.6032 135.686 21.7393C135.662 21.863 135.649 21.9928 135.649 22.1289C135.649 22.1908 135.649 22.2464 135.649 22.2959C135.662 22.3454 135.686 22.401 135.724 22.4629H135.816C135.952 22.4753 136.07 22.4567 136.169 22.4072C136.268 22.3577 136.361 22.2959 136.447 22.2217C136.534 22.1475 136.614 22.0671 136.688 21.9805C136.763 21.8815 136.849 21.7887 136.948 21.7021C137.022 21.6403 137.103 21.6032 137.189 21.5908C137.276 21.5785 137.363 21.5413 137.449 21.4795C137.511 21.4176 137.548 21.3558 137.561 21.2939C137.573 21.2197 137.61 21.1517 137.672 21.0898C137.783 20.9909 137.919 20.9043 138.08 20.8301C138.253 20.7559 138.408 20.6816 138.544 20.6074C138.692 20.5332 138.816 20.4404 138.915 20.3291C139.026 20.2178 139.131 20.1064 139.23 19.9951C139.342 19.8838 139.459 19.7848 139.583 19.6982C139.707 19.5993 139.855 19.5312 140.028 19.4941C140.102 19.4076 140.195 19.2715 140.307 19.0859C140.418 18.888 140.529 18.6777 140.641 18.4551C140.752 18.2324 140.851 18.016 140.937 17.8057C141.036 17.583 141.098 17.4098 141.123 17.2861H141.197C141.321 17.2861 141.414 17.249 141.476 17.1748C141.55 17.0882 141.636 17.014 141.735 16.9521C141.797 16.8161 141.834 16.68 141.847 16.5439C141.871 16.3955 141.884 16.2533 141.884 16.1172C141.884 15.8327 141.859 15.5605 141.81 15.3008C141.772 15.041 141.785 14.7689 141.847 14.4844ZM168.712 17.6016C168.712 17.8861 168.688 18.1644 168.638 18.4365C168.589 18.7087 168.564 18.987 168.564 19.2715C168.329 19.3704 168.15 19.5251 168.026 19.7354C167.914 19.9456 167.76 20.1188 167.562 20.2549H167.228C166.832 20.2549 166.436 20.2363 166.04 20.1992C165.645 20.1621 165.255 20.0941 164.872 19.9951C164.674 19.8343 164.531 19.5869 164.445 19.2529C164.358 18.9066 164.296 18.5231 164.259 18.1025C164.222 17.6696 164.191 17.2181 164.166 16.748C164.154 16.278 164.105 15.8327 164.018 15.4121C163.944 14.9915 163.82 14.6204 163.647 14.2988C163.486 13.9772 163.239 13.7484 162.905 13.6123C162.694 13.6865 162.478 13.7236 162.255 13.7236C161.946 13.7236 161.637 13.6803 161.328 13.5938C161.031 13.5072 160.728 13.4639 160.418 13.4639C160.072 13.4639 159.701 13.637 159.305 13.9834C158.909 14.3298 158.532 14.7441 158.173 15.2266C157.827 15.6966 157.524 16.1852 157.264 16.6924C157.004 17.1872 156.844 17.5892 156.782 17.8984C156.745 18.0592 156.732 18.2139 156.745 18.3623C156.769 18.5107 156.782 18.6592 156.782 18.8076C156.782 18.9561 156.757 19.1045 156.707 19.2529C156.67 19.389 156.627 19.5251 156.578 19.6611C156.54 19.7848 156.497 19.9147 156.448 20.0508C156.411 20.1745 156.392 20.3044 156.392 20.4404C156.392 20.6755 156.417 20.9105 156.466 21.1455C156.528 21.3682 156.559 21.6032 156.559 21.8506C156.559 22.0609 156.528 22.265 156.466 22.4629C156.417 22.6608 156.392 22.8773 156.392 23.1123C156.392 23.3226 156.429 23.5391 156.503 23.7617C156.578 23.972 156.633 24.1823 156.67 24.3926C156.707 24.6029 156.738 24.8193 156.763 25.042C156.8 25.2646 156.856 25.4811 156.93 25.6914C157.004 25.8893 157.103 26.0687 157.227 26.2295C157.363 26.3903 157.542 26.514 157.765 26.6006L157.728 26.7119C157.728 26.8975 157.87 27.1016 158.155 27.3242C158.452 27.5469 158.792 27.7572 159.175 27.9551C159.571 28.1406 159.955 28.3014 160.326 28.4375C160.709 28.5612 160.994 28.623 161.179 28.623C161.389 28.623 161.581 28.6045 161.754 28.5674C161.94 28.5179 162.119 28.4313 162.292 28.3076L162.404 28.085H162.775C162.899 27.9736 162.991 27.8438 163.053 27.6953C163.115 27.5469 163.189 27.3923 163.276 27.2314C163.362 27.0583 163.474 26.8789 163.61 26.6934C163.758 26.5078 163.975 26.3161 164.259 26.1182C164.284 25.9326 164.333 25.7594 164.408 25.5986C164.494 25.4378 164.581 25.2832 164.667 25.1348C164.754 24.974 164.834 24.8193 164.909 24.6709C164.995 24.5101 165.057 24.3431 165.094 24.1699C165.366 24.0957 165.626 24.0153 165.873 23.9287C166.133 23.8421 166.368 23.7184 166.579 23.5576C166.863 23.6442 167.148 23.7432 167.432 23.8545C167.717 23.9658 168.001 24.071 168.286 24.1699C168.595 24.6276 168.749 25.1595 168.749 25.7656C168.749 26.0007 168.731 26.2295 168.694 26.4521C168.669 26.6748 168.626 26.8913 168.564 27.1016C168.49 27.3118 168.385 27.5036 168.248 27.6768C168.125 27.8376 168.013 28.0107 167.914 28.1963C167.803 28.5055 167.704 28.8086 167.618 29.1055C167.543 29.39 167.401 29.6559 167.191 29.9033C166.993 30.1507 166.77 30.3734 166.523 30.5713C166.275 30.7568 166.09 30.9919 165.966 31.2764C165.744 31.3011 165.539 31.3568 165.354 31.4434C165.168 31.5299 164.983 31.6289 164.797 31.7402C164.624 31.8392 164.445 31.9382 164.259 32.0371C164.074 32.1361 163.876 32.2103 163.665 32.2598C163.492 32.2969 163.319 32.3154 163.146 32.3154C162.985 32.3154 162.824 32.334 162.664 32.3711C162.416 32.4329 162.2 32.5195 162.014 32.6309C161.829 32.7422 161.606 32.7979 161.346 32.7979C161.198 32.7979 161.08 32.7793 160.994 32.7422C160.919 32.7174 160.851 32.6865 160.789 32.6494C160.728 32.6123 160.672 32.5752 160.622 32.5381C160.585 32.5133 160.53 32.501 160.456 32.501C160.27 32.501 160.091 32.5381 159.917 32.6123C159.744 32.6865 159.559 32.736 159.361 32.7607C159.014 32.6123 158.699 32.4701 158.414 32.334C158.13 32.2103 157.79 32.1361 157.394 32.1113C157.233 31.901 157.023 31.7588 156.763 31.6846C156.516 31.598 156.281 31.5361 156.058 31.499C155.996 31.4124 155.916 31.332 155.817 31.2578C155.73 31.1836 155.637 31.1156 155.539 31.0537C155.452 30.9795 155.365 30.8991 155.279 30.8125C155.192 30.7259 155.124 30.627 155.075 30.5156C155.013 30.4167 154.97 30.3177 154.945 30.2188C154.932 30.1074 154.883 30.0023 154.796 29.9033C154.697 29.7549 154.586 29.6374 154.462 29.5508C154.351 29.4518 154.246 29.3529 154.147 29.2539C154.06 29.1549 153.986 29.0374 153.924 28.9014C153.862 28.7529 153.838 28.555 153.85 28.3076C153.751 28.221 153.621 28.0417 153.46 27.7695C153.312 27.4974 153.164 27.2129 153.015 26.916C152.867 26.6068 152.731 26.3099 152.607 26.0254C152.483 25.7409 152.403 25.5306 152.366 25.3945C152.304 25.2214 152.279 25.042 152.291 24.8564C152.304 24.6709 152.291 24.4792 152.254 24.2812C152.205 24.1204 152.155 23.9967 152.106 23.9102C152.056 23.8112 152.013 23.7184 151.976 23.6318C151.939 23.5452 151.908 23.4463 151.883 23.335C151.859 23.2236 151.846 23.069 151.846 22.8711C151.846 22.5495 151.877 22.2279 151.939 21.9062C152.013 21.5723 152.094 21.2445 152.18 20.9229C152.267 20.6012 152.341 20.2982 152.403 20.0137C152.477 19.7168 152.514 19.4447 152.514 19.1973C152.514 19.0365 152.489 18.8942 152.44 18.7705C152.39 18.6344 152.329 18.5107 152.254 18.3994C152.353 18.2262 152.415 18.0531 152.44 17.8799C152.465 17.7067 152.477 17.5335 152.477 17.3604C152.489 17.1748 152.496 16.9954 152.496 16.8223C152.508 16.6491 152.545 16.4759 152.607 16.3027C152.706 16.0801 152.842 15.8822 153.015 15.709C153.201 15.5234 153.355 15.3193 153.479 15.0967C153.578 14.8988 153.621 14.6947 153.609 14.4844C153.596 14.2741 153.627 14.07 153.702 13.8721C153.776 13.6865 153.869 13.5195 153.98 13.3711C154.104 13.2227 154.221 13.0742 154.332 12.9258C154.456 12.765 154.561 12.6042 154.648 12.4434C154.734 12.2826 154.784 12.1032 154.796 11.9053C155.093 11.8311 155.365 11.7259 155.613 11.5898C155.86 11.4538 156.095 11.3053 156.318 11.1445C156.54 10.9714 156.757 10.792 156.967 10.6064C157.19 10.4209 157.419 10.2415 157.654 10.0684H157.802C157.938 10.0684 158.081 10.0436 158.229 9.99414C158.377 9.94466 158.526 9.889 158.674 9.82715C158.823 9.7653 158.971 9.70964 159.12 9.66016C159.268 9.61068 159.41 9.58594 159.546 9.58594C159.781 9.58594 160.01 9.61686 160.233 9.67871C160.468 9.74056 160.709 9.78385 160.956 9.80859C161.241 9.8457 161.525 9.85807 161.81 9.8457C162.107 9.82096 162.404 9.80859 162.701 9.80859C162.997 9.80859 163.263 9.85189 163.498 9.93848C163.746 10.0251 163.975 10.1178 164.185 10.2168C164.408 10.3158 164.624 10.4085 164.834 10.4951C165.045 10.5693 165.261 10.5941 165.484 10.5693C165.57 10.7178 165.682 10.8477 165.818 10.959C165.954 11.0703 166.096 11.1816 166.245 11.293C166.393 11.3919 166.541 11.5033 166.69 11.627C166.838 11.7507 166.968 11.8929 167.08 12.0537C167.191 12.2269 167.271 12.4372 167.321 12.6846C167.37 12.932 167.451 13.1608 167.562 13.3711C167.735 13.5072 167.89 13.7669 168.026 14.1504C168.174 14.5215 168.298 14.9297 168.397 15.375C168.496 15.8203 168.57 16.2533 168.62 16.6738C168.681 17.082 168.712 17.3913 168.712 17.6016ZM189.603 25.9883C189.603 26.1862 189.628 26.3717 189.678 26.5449C189.727 26.7181 189.752 26.9036 189.752 27.1016C189.752 27.25 189.715 27.3737 189.641 27.4727C189.579 27.5716 189.529 27.7015 189.492 27.8623C189.418 28.1097 189.331 28.3695 189.232 28.6416C189.133 28.9014 189.041 29.1673 188.954 29.4395C188.88 29.7116 188.818 29.9837 188.768 30.2559C188.731 30.528 188.731 30.7939 188.768 31.0537C188.583 31.2516 188.422 31.4805 188.286 31.7402C188.162 31.9876 188.051 32.2474 187.952 32.5195C187.853 32.7917 187.76 33.0638 187.674 33.3359C187.587 33.6204 187.494 33.8864 187.395 34.1338C187.024 34.3317 186.653 34.4307 186.282 34.4307C186.059 34.4307 185.818 34.3626 185.559 34.2266C185.311 34.1029 185.076 33.9421 184.853 33.7441C184.643 33.5586 184.464 33.3483 184.315 33.1133C184.167 32.8783 184.093 32.6494 184.093 32.4268C184.093 32.1175 184.136 31.8145 184.223 31.5176C184.309 31.2207 184.352 30.8991 184.352 30.5527C184.352 30.4167 184.42 30.2806 184.557 30.1445C184.693 29.9961 184.779 29.8538 184.816 29.7178C184.829 29.6683 184.853 29.5384 184.891 29.3281C184.928 29.1055 184.959 28.8704 184.983 28.623C185.02 28.3757 185.045 28.1406 185.058 27.918C185.082 27.6953 185.088 27.5592 185.076 27.5098C185.262 27.3242 185.41 27.1139 185.521 26.8789C185.645 26.6439 185.75 26.4027 185.837 26.1553C185.936 25.8955 186.029 25.6419 186.115 25.3945C186.202 25.1348 186.301 24.8936 186.412 24.6709C186.387 24.609 186.375 24.541 186.375 24.4668C186.375 24.3926 186.375 24.3184 186.375 24.2441C186.375 23.9225 186.424 23.6133 186.523 23.3164C186.622 23.0195 186.672 22.7103 186.672 22.3887C186.672 22.1908 186.653 21.999 186.616 21.8135C186.579 21.6279 186.56 21.4362 186.56 21.2383C186.56 20.9785 186.598 20.7188 186.672 20.459C186.746 20.1868 186.783 19.9147 186.783 19.6426C186.783 19.4199 186.752 19.1354 186.69 18.7891C186.629 18.4303 186.542 18.0654 186.431 17.6943C186.332 17.3232 186.208 16.9769 186.059 16.6553C185.911 16.3337 185.75 16.1048 185.577 15.9688C185.416 15.4121 185.033 15.1338 184.427 15.1338C184.155 15.1338 183.864 15.1895 183.555 15.3008C183.258 15.4121 182.967 15.5605 182.683 15.7461C182.398 15.9193 182.138 16.1234 181.903 16.3584C181.681 16.5811 181.507 16.8161 181.384 17.0635C181.359 17.1377 181.34 17.2057 181.328 17.2676C181.328 17.3294 181.309 17.3913 181.272 17.4531C181.161 17.6634 181.013 17.849 180.827 18.0098C180.654 18.1582 180.512 18.3376 180.4 18.5479C180.289 18.7952 180.221 19.055 180.196 19.3271C180.171 19.5993 180.128 19.8714 180.066 20.1436C179.868 20.3167 179.695 20.5146 179.547 20.7373C179.398 20.96 179.238 21.1702 179.064 21.3682C179.064 21.3805 179.033 21.4857 178.972 21.6836C178.91 21.8815 178.829 22.1289 178.73 22.4258C178.644 22.7227 178.545 23.0443 178.434 23.3906C178.335 23.737 178.236 24.0648 178.137 24.374C178.05 24.6709 177.976 24.9245 177.914 25.1348C177.852 25.3451 177.821 25.4564 177.821 25.4688C177.821 25.679 177.846 25.8955 177.895 26.1182C177.945 26.3285 177.97 26.5387 177.97 26.749C177.97 26.984 177.951 27.2191 177.914 27.4541C177.877 27.6768 177.858 27.8994 177.858 28.1221C177.858 28.6787 177.914 29.2292 178.025 29.7734C178.137 30.3053 178.192 30.8558 178.192 31.4248C178.192 31.7835 178.143 32.0557 178.044 32.2412C177.945 32.4391 177.827 32.5999 177.691 32.7236C177.568 32.8473 177.444 32.9648 177.32 33.0762C177.209 33.1875 177.135 33.3359 177.098 33.5215L176.986 33.4844C176.875 33.472 176.757 33.4844 176.634 33.5215C176.51 33.571 176.386 33.6204 176.263 33.6699C176.139 33.7318 176.009 33.7812 175.873 33.8184C175.749 33.8678 175.613 33.8926 175.465 33.8926C175.205 33.8926 174.97 33.8122 174.76 33.6514C174.549 33.4906 174.364 33.2865 174.203 33.0391C174.055 32.804 173.937 32.5505 173.851 32.2783C173.764 32.0062 173.721 31.7588 173.721 31.5361C173.721 30.8187 173.758 30.1012 173.832 29.3838C173.906 28.6663 173.943 27.9427 173.943 27.2129C173.943 26.2852 173.943 25.3574 173.943 24.4297C173.943 23.4896 173.931 22.5557 173.906 21.6279C173.906 21.5166 173.888 21.4115 173.851 21.3125C173.813 21.2135 173.795 21.1146 173.795 21.0156C173.795 20.9043 173.813 20.7992 173.851 20.7002C173.888 20.6012 173.906 20.4899 173.906 20.3662C173.906 20.1559 173.869 19.9395 173.795 19.7168C173.721 19.4941 173.684 19.2715 173.684 19.0488C173.684 18.8757 173.714 18.7087 173.776 18.5479C173.838 18.387 173.881 18.2201 173.906 18.0469C173.98 17.6016 174.018 17.1501 174.018 16.6924C174.018 16.0615 174.005 15.4368 173.98 14.8184C173.956 14.1875 173.943 13.5566 173.943 12.9258C173.943 12.7773 173.937 12.6289 173.925 12.4805C173.912 12.332 173.869 12.1898 173.795 12.0537C173.832 11.8805 173.881 11.7197 173.943 11.5713C174.018 11.4229 174.055 11.2559 174.055 11.0703C174.055 10.7858 173.993 10.5137 173.869 10.2539C173.745 9.98177 173.684 9.70345 173.684 9.41895C173.684 8.986 173.721 8.55306 173.795 8.12012C173.869 7.6748 173.906 7.23568 173.906 6.80273C173.906 6.44401 173.881 6.09147 173.832 5.74512C173.782 5.38639 173.758 5.02767 173.758 4.66895C173.758 4.03809 173.943 3.57422 174.314 3.27734C174.685 2.9681 175.156 2.81348 175.725 2.81348C175.922 2.81348 176.114 2.77637 176.3 2.70215C176.498 2.62793 176.677 2.59082 176.838 2.59082C176.924 2.59082 176.999 2.62174 177.06 2.68359C177.122 2.73307 177.172 2.80111 177.209 2.8877C177.246 2.97428 177.283 3.06087 177.32 3.14746C177.357 3.23405 177.407 3.30208 177.469 3.35156L177.71 3.46289C177.759 3.54948 177.815 3.76595 177.877 4.1123C177.951 4.44629 178.019 4.8112 178.081 5.20703C178.155 5.59049 178.217 5.96159 178.267 6.32031C178.316 6.66667 178.341 6.88932 178.341 6.98828C178.341 7.17383 178.316 7.35319 178.267 7.52637C178.217 7.68717 178.161 7.84798 178.1 8.00879C178.038 8.1696 177.982 8.3304 177.933 8.49121C177.883 8.65202 177.858 8.8252 177.858 9.01074C177.858 9.50553 177.895 10.0003 177.97 10.4951C178.044 10.9775 178.081 11.4723 178.081 11.9795C178.081 12.3753 178.031 12.7773 177.933 13.1855C177.834 13.5814 177.784 13.9772 177.784 14.373C177.784 14.6452 177.846 14.9359 177.97 15.2451C178.143 15.2204 178.279 15.1585 178.378 15.0596C178.489 14.9606 178.582 14.8493 178.656 14.7256C178.73 14.5895 178.792 14.4473 178.842 14.2988C178.904 14.1504 178.978 14.0205 179.064 13.9092C179.126 13.835 179.213 13.7484 179.324 13.6494C179.435 13.5381 179.547 13.4329 179.658 13.334C179.782 13.235 179.893 13.1423 179.992 13.0557C180.091 12.9567 180.153 12.8763 180.178 12.8145C180.24 12.6908 180.289 12.5918 180.326 12.5176C180.363 12.4434 180.437 12.3753 180.549 12.3135C180.71 12.2021 180.87 12.1094 181.031 12.0352C181.204 11.9486 181.322 11.7878 181.384 11.5527C181.817 11.4167 182.256 11.2806 182.701 11.1445C183.146 11.0085 183.61 10.9404 184.093 10.9404C184.464 10.9404 184.835 11.0023 185.206 11.126C185.589 11.2373 185.954 11.361 186.301 11.4971C186.647 11.6331 186.969 11.763 187.266 11.8867C187.562 11.998 187.822 12.0537 188.045 12.0537C188.144 12.0537 188.255 12.1279 188.379 12.2764C188.503 12.4124 188.632 12.499 188.768 12.5361C188.867 12.8206 188.923 13.1113 188.935 13.4082C188.948 13.7051 189.004 13.9896 189.102 14.2617C189.214 14.5215 189.356 14.7689 189.529 15.0039C189.715 15.2266 189.863 15.4678 189.975 15.7275C189.95 15.8636 189.925 15.9935 189.9 16.1172C189.876 16.2285 189.863 16.3522 189.863 16.4883C189.863 16.7604 189.931 17.0078 190.067 17.2305C190.203 17.4531 190.302 17.6882 190.364 17.9355C190.401 18.1706 190.42 18.4056 190.42 18.6406C190.432 18.8633 190.438 19.0983 190.438 19.3457C190.438 20.0384 190.426 20.7682 190.401 21.5352C190.389 22.3021 190.321 23.0319 190.197 23.7246C190.172 23.8978 190.123 24.0771 190.049 24.2627C189.987 24.4482 189.919 24.6338 189.845 24.8193C189.783 25.0049 189.727 25.1966 189.678 25.3945C189.628 25.5924 189.603 25.7904 189.603 25.9883Z" fill="#FED136"/>
</svg>
