<svg width="1280" height="375" viewBox="0 0 1280 375" fill="none" xmlns="http://www.w3.org/2000/svg">
<path d="M109.249 66.6C145.969 66.6 166.039 83.61 169.459 117.63L128.419 124.11C125.719 107.55 117.799 99.27 104.659 99.27C99.2586 99.27 94.9386 100.8 91.6986 103.86C88.6386 106.92 87.1086 110.61 87.1086 114.93C87.1086 119.07 87.7386 122.58 88.9986 125.46C90.4386 128.34 92.9586 131.22 96.5586 134.1C100.339 136.98 103.309 139.14 105.469 140.58C107.629 141.84 111.769 144.09 117.889 147.33C124.009 150.57 129.229 153.45 133.549 155.97C138.049 158.31 142.369 160.83 146.509 163.53C150.649 166.23 155.149 169.74 160.009 174.06C169.009 182.34 173.509 193.86 173.509 208.62C173.509 223.2 167.209 236.16 154.609 247.5C142.009 258.66 125.809 264.24 106.009 264.24C95.2086 264.24 83.9586 262.44 72.2586 258.84C60.7386 255.24 50.3886 250.29 41.2086 243.99L57.1386 214.56C74.7786 224.46 90.7986 229.41 105.199 229.41C110.959 229.41 116.089 227.88 120.589 224.82C125.269 221.76 127.609 217.26 127.609 211.32C127.609 204.84 124.549 199.35 118.429 194.85C111.229 189.63 103.669 185.22 95.7486 181.62C88.7286 178.74 81.7086 175.14 74.6886 170.82C67.8486 166.5 63.0786 163.08 60.3786 160.56C57.8586 157.86 55.1586 154.62 52.2786 150.84C46.6986 143.28 43.9086 133.83 43.9086 122.49C43.9086 106.29 50.1186 92.97 62.5386 82.53C75.1386 71.91 90.7086 66.6 109.249 66.6ZM232.706 264.24C219.746 264.24 209.576 260.28 202.196 252.36C194.816 244.44 191.126 233.55 191.126 219.69V118.98L232.436 115.2V214.56C232.436 226.26 237.836 232.11 248.636 232.11C255.476 232.11 261.326 229.5 266.186 224.28V118.98L307.766 115.2V219.42L310.736 258.57L278.336 262.62L274.826 246.15H273.746C263.126 258.21 249.446 264.24 232.706 264.24ZM408.569 113.85C422.069 113.85 432.509 117.81 439.889 125.73C447.269 133.65 450.959 144.72 450.959 158.94V261H409.379V163.53C409.379 151.83 403.799 145.98 392.639 145.98C386.159 145.98 380.489 148.59 375.629 153.81V261H334.319V158.94L331.349 119.25L363.479 115.2L367.259 131.4H368.609C378.329 119.7 391.649 113.85 408.569 113.85ZM491.282 129.78C497.222 124.2 503.252 120.15 509.372 117.63C515.492 115.11 523.142 113.85 532.322 113.85C541.682 113.85 549.422 115.74 555.542 119.52L556.352 118.71L552.302 111.42V57.96L593.612 53.37V218.34L596.582 258.57L564.452 262.62L560.672 245.61H559.592C549.512 258.03 537.362 264.24 523.142 264.24C488.582 264.24 471.302 240.21 471.302 192.15C471.302 177.57 473.102 164.88 476.702 154.08C480.482 143.28 485.342 135.18 491.282 129.78ZM552.302 150.3C547.982 147.42 543.752 145.98 539.612 145.98C535.472 145.98 532.322 146.43 530.162 147.33C528.002 148.05 525.662 149.76 523.142 152.46C517.922 158.04 515.312 169.92 515.312 188.1C515.312 206.1 516.842 217.98 519.902 223.74C522.962 229.32 528.002 232.11 535.022 232.11C542.222 232.11 547.982 229.41 552.302 224.01V150.3ZM682.239 162.72C682.239 156.78 680.979 152.46 678.459 149.76C675.939 146.88 671.079 145.44 663.879 145.44C656.679 145.44 644.799 148.05 628.239 153.27L616.629 127.89C622.749 124.47 631.209 121.32 642.009 118.44C652.989 115.38 663.699 113.85 674.139 113.85C684.759 113.85 693.579 115.11 700.599 117.63C707.799 120.15 712.929 123.93 715.989 128.97C719.229 133.83 721.299 138.69 722.199 143.55C723.279 148.41 723.819 154.53 723.819 161.91V212.67C723.819 219.33 724.449 224.73 725.709 228.87C727.149 233.01 730.119 237.51 734.619 242.37L711.129 264.24C706.989 262.26 702.939 259.29 698.979 255.33C695.199 251.37 692.409 247.68 690.609 244.26H689.529C679.089 257.58 665.859 264.24 649.839 264.24C623.919 264.24 610.959 250.83 610.959 224.01C610.959 209.79 615.009 199.17 623.109 192.15C631.389 185.13 643.269 180.27 658.749 177.57L682.239 173.52V162.72ZM650.109 219.69C650.109 228.51 654.789 232.92 664.149 232.92C671.349 232.92 677.469 230.4 682.509 225.36V199.98C670.989 201.6 662.709 203.85 657.669 206.73C652.629 209.43 650.109 213.75 650.109 219.69ZM798.189 116.01H834.639L829.779 145.98H798.189V207.81C798.189 216.99 799.449 223.38 801.969 226.98C804.489 230.58 808.809 232.38 814.929 232.38C817.449 232.38 822.579 231.48 830.319 229.68L837.609 253.71C834.189 256.41 828.609 258.84 820.869 261C813.309 263.16 806.379 264.24 800.079 264.24C782.259 264.24 770.559 259.74 764.979 250.74C759.579 241.56 756.879 226.62 756.879 205.92V145.98H736.089L739.869 118.98L757.689 116.55L759.309 89.55L798.189 77.94V116.01ZM911.583 113.85C929.583 113.85 942.813 118.8 951.273 128.7C958.293 136.8 962.613 150.3 964.233 169.2C964.773 176.76 965.043 186.21 965.043 197.55L945.873 200.25H890.253C890.253 210.87 892.233 218.88 896.193 224.28C900.153 229.5 907.173 232.11 917.253 232.11C927.513 232.11 939.843 229.5 954.243 224.28L962.613 249.66C945.513 259.38 927.693 264.24 909.153 264.24C867.213 264.24 846.243 239.4 846.243 189.72C846.243 166.32 851.643 147.87 862.443 134.37C873.423 120.69 889.803 113.85 911.583 113.85ZM920.763 152.19C918.963 148.05 914.913 145.98 908.613 145.98C902.313 145.98 897.813 148.32 895.113 153C892.413 157.5 890.883 164.34 890.523 173.52H923.463C923.463 163.26 922.563 156.15 920.763 152.19ZM979.925 191.07C979.925 167.13 985.595 148.32 996.935 134.64C1008.27 120.78 1023.93 113.85 1043.91 113.85C1064.07 113.85 1077.48 118.44 1084.14 127.62C1090.98 136.8 1094.4 150.84 1094.4 169.74L1055.25 171.36C1055.25 160.92 1054.35 154.08 1052.55 150.84C1050.93 147.6 1047.06 145.98 1040.94 145.98C1034.82 145.98 1030.41 149.31 1027.71 155.97C1025.19 162.45 1023.93 173.43 1023.93 188.91C1023.93 204.39 1026.09 215.46 1030.41 222.12C1034.91 228.78 1042.02 232.11 1051.74 232.11C1061.64 232.11 1073.7 229.41 1087.92 224.01L1096.56 248.58C1081.44 259.02 1063.26 264.24 1042.02 264.24C1000.62 264.24 979.925 239.85 979.925 191.07ZM1154.19 126.54C1163.73 118.08 1175.43 113.85 1189.29 113.85C1203.15 113.85 1213.77 117.81 1221.15 125.73C1228.53 133.65 1232.22 144.81 1232.22 159.21V261H1190.64V163.53C1190.64 151.83 1185.06 145.98 1173.9 145.98C1167.24 145.98 1161.57 148.59 1156.89 153.81V261H1115.58V57.96L1156.89 53.37V114.93L1153.11 126L1154.19 126.54Z" fill="#222222"/>
</svg>
