<svg width="580" height="437" viewBox="0 0 580 437" fill="none" xmlns="http://www.w3.org/2000/svg">
<path d="M224.451 388.21C222.678 388.762 220.687 389.663 220.236 391.421C225.817 394.966 232.721 395.78 239.319 395.606C245.918 395.431 252.502 394.269 259.115 394.226C267.835 394.226 277.66 395.78 284.666 390.491C281.555 388.522 277.982 387.4 274.303 387.237C275.597 379.1 229.625 386.598 224.451 388.21Z" fill="url(#paint0_linear)"/>
<path d="M112.407 291.285C110.053 291.285 106.797 292.476 107.379 294.757L214.829 303.475C227.474 304.507 240.133 305.524 252.836 305.524C272.021 305.524 291.119 303.17 310.26 302.066C328.283 301.034 346.334 301.107 364.371 301.194C381.071 301.281 401.607 304.289 417.827 299.915C420.269 299.262 422.725 297.3 422.566 294.786C422.493 293.624 421.882 292.418 422.333 291.343C422.594 290.815 423.01 290.38 423.525 290.093C426.853 288.045 431.097 289.643 434.934 290.486C441.041 291.813 447.419 291.003 453 288.19C454.046 287.755 454.937 287.016 455.558 286.069C455.854 285.59 455.961 285.019 455.859 284.466C455.757 283.913 455.453 283.417 455.006 283.076C454.554 282.852 454.056 282.738 453.552 282.742L420.662 280.184C419.447 279.996 418.205 280.106 417.043 280.504C415.749 281.071 415.822 282.582 414.775 283.207C413.075 284.209 409.209 283.672 407.261 283.788C402.276 284.064 397.291 284.34 392.291 284.587C382.34 285.061 372.37 285.463 362.38 285.793C342.032 286.476 321.582 286.883 301.191 287.246C260.859 287.9 220.512 288.248 180.195 289.803C157.594 290.646 135.008 290.791 112.407 291.285Z" fill="url(#paint1_linear)"/>
<path d="M195.034 67.4308C193.142 66.774 191.077 66.8256 189.22 67.5761C188.023 68.0031 186.928 68.6763 186.007 69.5521C185.086 70.428 184.358 71.4872 183.872 72.6614C183.862 72.814 183.82 72.9628 183.748 73.0979C183.677 73.233 183.577 73.3513 183.456 73.4448C183.335 73.5383 183.195 73.6049 183.046 73.6402C182.898 73.6755 182.743 73.6786 182.593 73.6494C180.478 73.6445 178.436 74.4265 176.866 75.8433C175.035 77.5142 175.035 79.5628 174.788 81.9602C174.488 81.8094 174.157 81.7309 173.821 81.7309C173.486 81.7309 173.155 81.8094 172.855 81.9602C172.256 82.2552 171.711 82.6481 171.242 83.1225C170.44 83.7661 169.798 84.5867 169.367 85.5199C168.785 87.1036 169.439 88.8471 169.468 90.5325C169.479 90.608 169.472 90.6848 169.45 90.7576C169.427 90.8304 169.389 90.8974 169.338 90.9538C169.278 90.9794 169.214 90.9926 169.149 90.9926C169.084 90.9926 169.019 90.9794 168.96 90.9538C168.509 90.8667 168.102 90.6342 167.652 90.5906C167.125 90.5956 166.616 90.7839 166.213 91.1234C165.809 91.4628 165.537 91.932 165.442 92.4504C165.271 93.4911 165.326 94.5564 165.602 95.5742C165.872 96.5926 165.842 97.6673 165.515 98.6689C165.167 99.3269 164.71 99.9212 164.163 100.427C162.587 101.896 161.561 103.859 161.257 105.992C161.171 107.022 161.449 108.05 162.041 108.898C162.346 109.316 162.754 109.648 163.225 109.862C163.696 110.076 164.215 110.164 164.73 110.118C167.143 109.798 167.986 106.413 170.282 105.614C172.579 104.815 175.151 102.112 176.634 99.9766C177.826 98.2621 178.988 96.2716 180.994 95.6178C181.654 95.4775 182.29 95.2426 182.883 94.9204C183.278 94.6127 183.604 94.2268 183.843 93.7871C184.673 92.5629 185.315 91.2209 185.747 89.806C186.473 87.0164 185.747 83.878 187.098 81.3063C187.484 80.5686 188.022 79.9207 188.675 79.4049C189.329 78.8891 190.084 78.5171 190.892 78.3133C191.575 78.1389 192.345 78.0953 192.97 77.9065C193.76 77.6784 194.507 77.3199 195.179 76.8458C196.063 76.3376 196.824 75.6404 197.407 74.8039C197.99 73.9675 198.381 73.0126 198.551 72.0075C198.682 69.9589 196.836 68.1282 195.034 67.4308Z" fill="#FF681C"/>
<path d="M200.979 70.8743C201.705 71.1545 202.307 71.6844 202.677 72.3689C203.048 73.0533 203.162 73.8474 202.999 74.6083C202.75 75.2236 202.379 75.7821 201.909 76.2501L199.278 79.156L198.188 75.1168C198.075 74.3589 197.7 73.6647 197.127 73.1554C196.753 72.9413 196.33 72.8286 195.899 72.8286C195.468 72.8286 195.045 72.9413 194.671 73.1554C193.9 73.5477 193.217 74.1579 192.534 74.6083C192.345 74.7245 192.084 74.8553 191.88 74.7391C191.677 74.6228 191.648 74.2015 191.749 73.9109C192.999 70.4529 197.781 69.494 200.979 70.8743Z" fill="#FF681C"/>
<path d="M202.766 180.179C202.846 181.539 203.298 182.851 204.074 183.971C205.251 185.424 207.213 186.15 208.841 187.211C209.009 187.296 209.156 187.417 209.271 187.565C209.387 187.713 209.468 187.885 209.51 188.068C209.5 188.245 209.439 188.416 209.333 188.558C209.227 188.7 209.081 188.808 208.914 188.867C208.569 188.965 208.208 188.99 207.853 188.94C206.193 188.68 204.518 188.519 202.839 188.461C201.996 188.461 201.022 188.548 200.484 187.894C200.138 187.34 200.018 186.674 200.15 186.034C200.299 183.631 200.103 181.219 199.569 178.871C199.39 178.298 199.326 177.696 199.38 177.099C199.434 176.822 199.56 176.565 199.744 176.352C199.929 176.14 200.166 175.979 200.432 175.887C200.698 175.794 200.984 175.773 201.261 175.825C201.538 175.877 201.796 176 202.01 176.183C202.97 177.011 202.65 179.06 202.766 180.179Z" fill="#FCBDBA"/>
<path d="M175.878 189.172C175.681 190.52 175.852 191.895 176.372 193.153C177.23 194.882 179.017 195.914 180.398 197.28C180.548 197.394 180.669 197.541 180.752 197.71C180.835 197.879 180.878 198.065 180.878 198.253C180.835 198.424 180.741 198.579 180.609 198.695C180.476 198.812 180.312 198.886 180.136 198.907C179.782 198.944 179.424 198.899 179.09 198.776C177.511 198.2 175.9 197.715 174.265 197.323C173.436 197.178 172.462 197.033 172.07 196.306C171.832 195.699 171.832 195.025 172.07 194.418C172.701 192.089 172.995 189.681 172.942 187.269C172.883 186.672 172.942 186.07 173.116 185.497C173.226 185.237 173.401 185.011 173.625 184.84C173.849 184.669 174.114 184.56 174.393 184.523C174.672 184.486 174.956 184.523 175.217 184.63C175.477 184.737 175.705 184.911 175.878 185.133C176.706 186.107 175.98 188.054 175.878 189.172Z" fill="#FCBDBA"/>
<path d="M170.588 123.79C170.588 123.79 184.453 144.364 193.537 150.51C193.362 152.567 193.406 154.637 193.668 156.685C194.133 160.012 195.746 162.932 196.269 166.201L198.014 177.2C198.086 177.694 198.232 178.29 198.711 178.464C198.999 178.557 199.309 178.557 199.598 178.464L203.435 177.418C203.205 170.809 203.345 164.193 203.856 157.6C204.171 154.934 204.239 152.244 204.06 149.565C203.42 143.754 198.653 138.567 195.339 133.903C193.348 131.084 191.212 126.87 188.421 124.735C186.096 122.962 182.811 123.805 179.889 124.095C177.699 124.304 175.488 124.147 173.349 123.63C172.912 123.426 172.43 123.333 171.948 123.361C171.466 123.389 170.998 123.536 170.588 123.79Z" fill="#473F47"/>
<path d="M165.312 123.66C165.312 123.66 170.704 147.88 176.939 156.917C176.033 158.778 175.317 160.725 174.803 162.729C174.458 164.37 174.259 166.037 174.207 167.713L172.957 187.937C174.889 188.039 176.823 187.793 178.669 187.211L185.761 169.383C187.116 166.544 187.915 163.471 188.116 160.332C188.116 154.258 182.302 132.087 181.619 130.968C180.093 128.454 176.736 128.062 173.916 127.248C171.799 126.65 169.799 125.697 168.001 124.43C167.114 123.877 166.315 123.34 165.312 123.66Z" fill="#473F47"/>
<path d="M215.091 104.8C218.046 106.163 221.325 106.667 224.553 106.253C225.5 105.993 226.492 105.943 227.46 106.108C227.038 106.704 226.631 107.561 227.227 108.07C227.41 108.189 227.62 108.259 227.838 108.273C228.621 108.374 229.418 108.289 230.163 108.026C230.515 107.852 230.904 107.767 231.297 107.779C231.643 107.865 231.941 108.084 232.126 108.389C232.311 108.694 232.368 109.059 232.285 109.406C232.079 110.098 231.623 110.688 231.006 111.063C230.008 111.723 228.852 112.107 227.656 112.173C226.461 112.24 225.269 111.987 224.204 111.44C223.594 111.106 223.027 110.685 222.402 110.351C221.2 109.803 219.928 109.422 218.623 109.217C214.802 108.427 211.046 107.348 207.388 105.992C206.834 105.86 206.312 105.617 205.855 105.277C205.398 104.937 205.014 104.508 204.728 104.016C203.987 102.185 205.353 99.1194 207.533 100.311C210.062 101.778 212.344 103.667 215.091 104.8Z" fill="#FCBDBA"/>
<path d="M197.04 94.3683C201.356 97.189 206.17 99.1614 211.225 100.18C211.443 100.18 211.705 100.325 211.763 100.543C211.786 100.692 211.749 100.843 211.661 100.965C210.629 103.042 209.324 104.972 207.78 106.704C207.615 106.924 207.401 107.102 207.155 107.227C206.914 107.298 206.661 107.319 206.411 107.289C206.161 107.259 205.92 107.178 205.702 107.052C202.437 105.745 199.239 104.292 196.11 102.694C193.324 101.472 190.843 99.6517 188.842 97.3614C187.845 96.1729 187.254 94.6963 187.156 93.1479C187.156 91.4334 188.726 88.3532 190.892 89.1959C191.866 89.5737 192.723 90.7796 193.464 91.4625C194.595 92.5034 195.789 93.4739 197.04 94.3683V94.3683Z" fill="#2E82EF"/>
<path d="M197.04 94.3683C201.356 97.189 206.17 99.1614 211.225 100.18C211.443 100.18 211.705 100.325 211.763 100.543C211.786 100.692 211.749 100.843 211.661 100.965C210.629 103.042 209.324 104.972 207.78 106.704C207.615 106.924 207.401 107.102 207.155 107.227C206.914 107.298 206.661 107.319 206.411 107.289C206.161 107.259 205.92 107.178 205.702 107.052C202.437 105.745 199.239 104.292 196.11 102.694C193.324 101.472 190.843 99.6517 188.842 97.3614C187.845 96.1729 187.254 94.6963 187.156 93.1479C187.156 91.4334 188.726 88.3532 190.892 89.1959C191.866 89.5737 192.723 90.7796 193.464 91.4625C194.595 92.5034 195.789 93.4739 197.04 94.3683V94.3683Z" fill="url(#paint2_linear)"/>
<path d="M257.879 85.7088C258.656 86.6877 259.119 87.8777 259.209 89.1238C259.3 90.3698 259.012 91.6141 258.385 92.6945C257.757 93.7749 256.819 94.6413 255.692 95.1809C254.565 95.7205 253.301 95.9082 252.066 95.7196C252.066 95.7196 245.191 95.8794 246.746 102.359L259.827 119.01L243.171 132.087C236.689 133.641 236.529 126.769 236.529 126.769C236.707 125.535 236.51 124.277 235.966 123.156C235.421 122.035 234.552 121.103 233.472 120.48C232.392 119.857 231.15 119.573 229.906 119.663C228.663 119.753 227.475 120.214 226.496 120.986C225.517 121.758 224.792 122.805 224.415 123.993C224.037 125.181 224.025 126.455 224.379 127.65C224.733 128.845 225.438 129.907 226.401 130.697C227.365 131.488 228.544 131.972 229.785 132.087C235.7 134.034 233.404 139.787 233.404 139.787L216.748 152.864L182.898 109.9L199.394 96.8238C205.876 95.2691 206.036 102.142 206.036 102.142C205.882 103.16 205.983 104.202 206.331 105.172C206.679 106.142 207.263 107.01 208.03 107.699C208.797 108.387 209.723 108.875 210.725 109.117C211.727 109.359 212.773 109.349 213.77 109.086C214.767 108.824 215.683 108.318 216.436 107.614C217.189 106.911 217.755 106.031 218.083 105.054C218.412 104.077 218.492 103.034 218.317 102.018C218.143 101.003 217.718 100.047 217.082 99.2357C216.552 98.5694 215.892 98.0174 215.143 97.6128C214.394 97.2083 213.57 96.9597 212.722 96.8819C206.865 94.9495 209.161 89.1378 209.161 89.1378L225.977 75.8724L239.058 92.5376C239.058 92.5376 244.871 94.8333 246.761 88.9198C246.886 87.6815 247.378 86.5089 248.176 85.553C248.973 84.597 250.038 83.9016 251.234 83.5562C252.43 83.2107 253.702 83.2312 254.887 83.6148C256.071 83.9985 257.113 84.7278 257.879 85.7088V85.7088Z" fill="#2E82EF"/>
<path d="M257.879 85.7088C258.656 86.6877 259.119 87.8777 259.209 89.1238C259.3 90.3698 259.012 91.6141 258.385 92.6945C257.757 93.7749 256.819 94.6413 255.692 95.1809C254.565 95.7205 253.301 95.9082 252.066 95.7196C252.066 95.7196 245.191 95.8794 246.746 102.359L259.827 119.01L243.171 132.087C236.689 133.641 236.529 126.769 236.529 126.769C236.707 125.535 236.51 124.277 235.966 123.156C235.421 122.035 234.552 121.103 233.472 120.48C232.392 119.857 231.15 119.573 229.906 119.663C228.663 119.753 227.475 120.214 226.496 120.986C225.517 121.758 224.792 122.805 224.415 123.993C224.037 125.181 224.025 126.455 224.379 127.65C224.733 128.845 225.438 129.907 226.401 130.697C227.365 131.488 228.544 131.972 229.785 132.087C235.7 134.034 233.404 139.787 233.404 139.787L216.748 152.864L182.898 109.9L199.394 96.8238C205.876 95.2691 206.036 102.142 206.036 102.142C205.882 103.16 205.983 104.202 206.331 105.172C206.679 106.142 207.263 107.01 208.03 107.699C208.797 108.387 209.723 108.875 210.725 109.117C211.727 109.359 212.773 109.349 213.77 109.086C214.767 108.824 215.683 108.318 216.436 107.614C217.189 106.911 217.755 106.031 218.083 105.054C218.412 104.077 218.492 103.034 218.317 102.018C218.143 101.003 217.718 100.047 217.082 99.2357C216.552 98.5694 215.892 98.0174 215.143 97.6128C214.394 97.2083 213.57 96.9597 212.722 96.8819C206.865 94.9495 209.161 89.1378 209.161 89.1378L225.977 75.8724L239.058 92.5376C239.058 92.5376 244.871 94.8333 246.761 88.9198C246.886 87.6815 247.378 86.5089 248.176 85.553C248.973 84.597 250.038 83.9016 251.234 83.5562C252.43 83.2107 253.702 83.2312 254.887 83.6148C256.071 83.9985 257.113 84.7278 257.879 85.7088V85.7088Z" fill="url(#paint3_linear)"/>
<path d="M202.839 123.601C206.4 126.507 210.106 129.631 214.466 130.387C215.305 130.574 216.173 130.593 217.019 130.441C217.865 130.288 218.672 129.969 219.393 129.5C219.642 129.352 219.844 129.138 219.978 128.881C220.111 128.625 220.171 128.336 220.149 128.047C219.989 127.335 219.117 127.088 218.405 126.958C215.074 126.502 211.875 125.354 209.016 123.587C207.955 122.836 206.95 122.011 206.007 121.117L198.929 114.811C198.843 114.706 198.734 114.621 198.611 114.564C198.488 114.506 198.353 114.476 198.217 114.477C197.926 114.477 197.752 114.811 197.621 115.073C197.182 115.965 196.85 116.906 196.633 117.877C196.415 118.937 196.633 119.083 197.548 119.693C199.38 120.933 201.143 122.236 202.839 123.601Z" fill="url(#paint4_linear)"/>
<path d="M206.124 118.284C208.587 120.438 211.611 121.849 214.844 122.352C215.806 122.365 216.754 122.588 217.62 123.006C217.024 123.456 216.385 124.226 216.835 124.822C216.98 124.988 217.165 125.113 217.373 125.185C218.097 125.494 218.883 125.633 219.669 125.592C220.059 125.533 220.456 125.562 220.832 125.679C220.984 125.768 221.117 125.885 221.223 126.025C221.33 126.165 221.407 126.325 221.452 126.495C221.496 126.665 221.507 126.842 221.483 127.016C221.459 127.19 221.401 127.358 221.312 127.51C220.932 128.125 220.327 128.568 219.626 128.745C218.484 129.105 217.267 129.152 216.101 128.881C214.936 128.61 213.864 128.031 212.998 127.205C212.49 126.711 212.068 126.144 211.545 125.665C210.545 124.802 209.43 124.083 208.231 123.529C204.784 121.698 201.48 119.609 198.348 117.281C197.853 117.001 197.421 116.623 197.076 116.171C196.731 115.719 196.482 115.202 196.342 114.651C196.139 112.675 198.304 110.104 200.077 111.876C202.141 113.968 203.813 116.366 206.124 118.284Z" fill="#FCBDBA"/>
<path d="M165.312 126.769C165.572 127.081 165.9 127.329 166.271 127.495C167.733 128.329 169.254 129.058 170.82 129.675C174.891 131.131 179.346 131.095 183.392 129.573C185.011 128.99 186.531 128.162 187.898 127.117C188.416 126.764 188.853 126.303 189.177 125.766C189.563 124.89 189.684 123.921 189.526 122.977C189.162 118.08 188.625 113.024 189.526 108.273C189.815 106.641 190.303 105.05 190.979 103.536C192.156 101.471 193.129 99.2955 193.886 97.0417C194.145 95.6566 194.099 94.2317 193.75 92.8665C193.401 91.5013 192.758 90.2287 191.866 89.1377C189.976 86.7258 186.517 84.59 183.465 85.6797C179.939 87.0078 176.882 89.3419 174.672 92.3923C172.262 95.8083 170.353 99.5511 169.003 103.507C168.422 105.062 167.855 106.617 167.405 108.215C166.442 112.081 165.82 116.024 165.544 119.998C165.384 121.654 165.239 123.311 165.065 124.967C164.927 125.578 165.015 126.218 165.312 126.769V126.769Z" fill="#2E82EF"/>
<path d="M183.392 129.573C185.011 128.99 186.531 128.162 187.898 127.118C188.417 126.764 188.853 126.303 189.177 125.766C189.563 124.89 189.684 123.921 189.526 122.977C189.162 118.08 188.625 113.024 189.526 108.273C188.944 107.692 188.29 107.169 187.651 106.646C186.197 105.454 184.105 103.1 181.997 103.26C182.506 105.483 182.913 107.75 183.218 110.016C183.523 112.283 183.407 114.637 183.77 116.874C184.252 120.833 184.159 124.841 183.494 128.774C183.432 129.036 183.398 129.304 183.392 129.573V129.573Z" fill="url(#paint5_linear)"/>
<path d="M201.08 110.656C201.194 110.714 201.295 110.793 201.377 110.891C201.46 110.988 201.522 111.101 201.56 111.222C201.564 111.464 201.476 111.698 201.313 111.876C199.992 113.739 198.336 115.341 196.429 116.598C196.245 116.744 196.024 116.835 195.79 116.86C195.522 116.831 195.271 116.713 195.078 116.526C192.171 114.303 189.264 112.167 186.43 109.842C184.597 108.542 182.979 106.963 181.634 105.164C180.645 103.539 179.892 101.783 179.395 99.9475C177.666 94.499 182.898 92.1307 186.401 96.1263C191.023 101.415 195.238 106.573 201.08 110.656Z" fill="#2E82EF"/>
<path d="M200.368 188.097C200.292 187.917 200.266 187.72 200.291 187.526C200.317 187.332 200.393 187.148 200.513 186.993C200.833 186.688 201.356 186.833 201.763 186.993C202.662 187.429 203.602 187.774 204.568 188.025C205.542 188.281 206.576 188.172 207.475 187.72C207.969 187.429 208.449 186.993 209.016 187.037C209.301 187.079 209.574 187.183 209.815 187.342C210.688 187.794 211.624 188.112 212.591 188.286C212.998 188.321 213.391 188.45 213.739 188.664C213.845 188.738 213.921 188.846 213.957 188.969C213.957 189.26 213.681 189.478 213.405 189.579C210.382 190.756 206.996 190.32 203.769 189.972C203.407 189.921 203.04 189.921 202.679 189.972C202.141 190.073 201.487 190.349 201.037 189.972C200.651 189.417 200.42 188.77 200.368 188.097Z" fill="#473F47"/>
<path d="M171.663 196.379C171.616 196.191 171.616 195.994 171.664 195.806C171.713 195.619 171.807 195.446 171.939 195.304C172.303 195.042 172.797 195.304 173.189 195.464C174.034 196.001 174.924 196.463 175.849 196.844C176.786 197.192 177.818 197.192 178.756 196.844C179.279 196.626 179.802 196.248 180.369 196.365C180.644 196.445 180.901 196.578 181.125 196.757C181.925 197.343 182.813 197.799 183.755 198.108C184.16 198.192 184.539 198.371 184.86 198.631C184.907 198.671 184.946 198.719 184.973 198.774C185.001 198.829 185.016 198.889 185.02 198.951C185.02 199.241 184.7 199.416 184.409 199.488C181.256 200.287 177.956 199.488 174.802 198.689C174.448 198.586 174.081 198.533 173.712 198.529C173.175 198.529 172.492 198.762 172.085 198.268C171.79 197.683 171.645 197.034 171.663 196.379Z" fill="#473F47"/>
<path d="M198.58 80.8414C198.333 81.6405 198.086 82.4396 197.883 83.2533C197.652 84.4668 197.331 85.6615 196.923 86.8275C196.716 87.409 196.386 87.9387 195.954 88.3802C195.522 88.8216 195 89.1643 194.424 89.3847C193.835 89.5726 193.197 89.5264 192.642 89.2557C192.087 88.9851 191.658 88.5108 191.444 87.9317C190.746 88.0916 190.499 88.9488 190.514 89.6753C190.631 90.386 190.497 91.1152 190.136 91.7384C189.482 92.5085 188.203 92.1889 187.345 91.6367C186.047 90.7622 185.038 89.5222 184.445 88.0737C183.853 86.6252 183.704 85.0335 184.017 83.5003C184.729 80.2602 184.7 76.3809 186.546 73.5767C187.209 72.6304 188.054 71.8254 189.031 71.2084C189.888 70.5816 190.887 70.1772 191.938 70.0316C192.674 69.9884 193.413 70.0471 194.133 70.2059C197.214 70.729 199.83 71.1794 199.845 74.71C199.75 76.8078 199.323 78.8773 198.58 80.8414Z" fill="#FCBDBA"/>
<path d="M194.787 75.1314C194.307 75.1314 193.755 75.0152 193.333 75.3057C192.912 75.5963 192.883 76.2502 192.621 76.7587C192.113 77.7031 190.819 77.8338 189.845 78.3278C189.255 78.6434 188.764 79.1156 188.426 79.6924C188.087 80.2693 187.915 80.9283 187.927 81.597C187.946 81.1692 187.84 80.7451 187.622 80.3765C187.563 80.2891 187.488 80.2146 187.4 80.1574C187.312 80.1002 187.213 80.0616 187.11 80.0439C187.007 80.0262 186.901 80.0298 186.799 80.0545C186.697 80.0793 186.601 80.1245 186.517 80.1876C186.386 80.3429 186.309 80.5368 186.299 80.7397C186.259 81.1547 186.327 81.5728 186.495 81.9543C186.663 82.3358 186.925 82.668 187.258 82.9191C186.956 83.5422 186.483 84.066 185.893 84.4289C185.303 84.7919 184.622 84.9788 183.93 84.9678C183.492 84.9782 183.065 84.8342 182.724 84.561C182.509 84.3399 182.349 84.071 182.258 83.7764C181.43 81.4517 182.694 78.9671 183 76.5117C183.029 75.6446 183.17 74.785 183.421 73.9545C183.691 73.3678 184.059 72.8321 184.511 72.3708C185.868 70.7421 187.664 69.5368 189.685 68.8983C191.633 68.3607 195.499 68.6368 197.025 70.1769C197.371 70.6176 197.59 71.1448 197.658 71.7011C197.725 72.2574 197.639 72.8216 197.408 73.3324C197.178 73.8432 196.811 74.2809 196.349 74.5981C195.887 74.9152 195.347 75.0997 194.787 75.1314V75.1314Z" fill="#FF681C"/>
<path d="M193.929 295.702V268.517C197.505 260.759 204.554 266.047 204.554 266.047C205.654 267.2 207.075 267.997 208.633 268.336C210.19 268.674 211.814 268.538 213.294 267.945C214.773 267.353 216.042 266.331 216.935 265.011C217.828 263.691 218.306 262.134 218.306 260.541C218.306 258.947 217.828 257.39 216.935 256.07C216.042 254.751 214.773 253.729 213.294 253.136C211.814 252.543 210.19 252.408 208.633 252.746C207.075 253.084 205.654 253.881 204.554 255.034C197.897 259.393 193.929 252.564 193.929 252.564V225.365H221.123C221.123 225.365 228.012 221.399 223.594 214.744C222.44 213.644 221.643 212.224 221.305 210.667C220.966 209.109 221.102 207.487 221.695 206.007C222.288 204.528 223.31 203.26 224.63 202.367C225.95 201.474 227.508 200.997 229.102 200.997C230.696 200.997 232.254 201.474 233.574 202.367C234.894 203.26 235.916 204.528 236.509 206.007C237.102 207.487 237.238 209.109 236.899 210.667C236.561 212.224 235.764 213.644 234.61 214.744C234.61 214.744 229.32 221.791 237.081 225.365H264.275V295.702H193.929Z" fill="url(#paint6_linear)"/>
<path d="M141.825 294.249H136.912L187.2 161.509C187.369 161.08 187.664 160.712 188.045 160.453C188.426 160.194 188.876 160.056 189.337 160.056V160.056C189.709 160.055 190.075 160.145 190.405 160.317C190.735 160.49 191.018 160.74 191.229 161.046C191.441 161.351 191.575 161.704 191.62 162.073C191.665 162.443 191.62 162.817 191.488 163.165L141.825 294.249Z" fill="#2E82EF"/>
<path d="M171.285 294.249H166.373L217.213 160.026H222.126L171.285 294.249Z" fill="#2E82EF"/>
<path d="M209.278 180.992H183.291L184.599 177.534H210.586L209.278 180.992Z" fill="#2E82EF"/>
<path d="M201.284 202.075H175.297L176.619 198.617H202.606L201.284 202.075Z" fill="#2E82EF"/>
<path d="M193.304 223.157H167.317L168.625 219.684H194.612L193.304 223.157Z" fill="#2E82EF"/>
<path d="M185.325 244.224H159.338L160.646 240.766H186.633L185.325 244.224Z" fill="#2E82EF"/>
<path d="M177.331 265.306H151.344L152.667 261.848H178.64L177.331 265.306Z" fill="#2E82EF"/>
<path d="M184.729 180.992L178.044 198.617H202.65L201.342 202.075H176.779L170.108 219.684H194.656L193.348 223.142H168.756L162.085 240.766H186.662L185.354 244.224H160.777L154.091 261.848H178.654L177.332 265.306H152.783L141.825 294.249H136.912L187.2 161.508C187.419 161.053 187.781 160.682 188.232 160.454C188.682 160.225 189.196 160.151 189.692 160.244C190.189 160.337 190.641 160.591 190.979 160.966C191.317 161.342 191.521 161.819 191.56 162.322C191.56 162.6 191.511 162.875 191.415 163.136L185.965 177.534H210.513L209.205 180.992H184.729Z" fill="url(#paint7_linear)"/>
<path d="M171.285 294.249H166.373L217.213 160.026H222.126L171.285 294.249Z" fill="url(#paint8_linear)"/>
<path d="M415.008 179.481C414.282 180.095 413.412 180.515 412.479 180.702C411.623 180.738 410.769 180.584 409.979 180.251L397.887 176.227C396.973 176.938 396.363 177.969 396.18 179.113C395.996 180.256 396.253 181.426 396.898 182.387C398.084 183.685 399.626 184.605 401.331 185.032L409.63 188.01C411.546 188.905 413.636 189.362 415.75 189.35C417.864 189.337 419.949 188.855 421.854 187.937C424.324 187.109 427.042 186.078 428.234 183.753C429.426 181.428 428.554 178.348 428.903 175.631C429.361 173.905 429.687 172.147 429.876 170.371C429.876 168.846 428.626 166.55 426.81 166.87C425.24 167.146 424.194 169.877 423.365 171.025C421.029 174.256 418.211 177.108 415.008 179.481V179.481Z" fill="white"/>
<path d="M396.375 175.544C396.249 175.217 396.056 174.92 395.809 174.672C395.686 174.548 395.53 174.462 395.36 174.426C395.189 174.39 395.011 174.405 394.849 174.469C394.691 174.566 394.563 174.707 394.48 174.874C394.398 175.041 394.365 175.228 394.384 175.413C394.396 175.479 394.394 175.546 394.379 175.611C394.364 175.676 394.336 175.737 394.297 175.791C394.21 175.878 394.05 175.791 393.919 175.791C392.553 175.529 391.158 175.326 389.762 175.181C389.613 175.151 389.458 175.162 389.314 175.213C389.17 175.264 389.043 175.354 388.946 175.472C388.849 175.589 388.786 175.731 388.763 175.882C388.741 176.033 388.759 176.187 388.818 176.328C388.969 176.791 389.2 177.224 389.501 177.607C390.213 178.769 390.475 180.295 391.608 181.051C392.301 181.456 393.107 181.624 393.905 181.53C394.704 181.53 395.489 181.341 396.288 181.385C396.817 181.498 397.367 181.437 397.858 181.21C398.041 181.073 398.186 180.892 398.28 180.684C398.374 180.476 398.414 180.247 398.396 180.019C398.311 179.301 398.057 178.614 397.654 178.014C397.204 177.229 396.782 176.387 396.375 175.544Z" fill="#FDB9A9"/>
<path d="M430.094 266.541C425.473 265.495 426.374 272.048 425.153 274.489C424.38 275.742 423.397 276.853 422.246 277.773C421.113 278.716 420.372 280.047 420.168 281.507C420.14 281.778 420.196 282.052 420.327 282.291C420.563 282.579 420.892 282.774 421.258 282.843C423.9 283.615 426.739 283.334 429.179 282.059C430.322 281.52 431.271 280.642 431.897 279.545C432.403 278.362 432.641 277.082 432.594 275.797C432.74 273.065 433.961 267.399 430.094 266.541Z" fill="#FDB9A9"/>
<path d="M425.996 280.054C425.996 280.054 412.828 280.62 418.409 284.747C423.99 288.873 432.318 283.744 433.132 282.8C433.946 281.855 433.277 280.243 433.277 280.243L425.996 280.054Z" fill="#2E82EF"/>
<path d="M432.551 281.87C431.388 283.323 425.196 285.226 422.449 285.023C419.702 284.819 417.246 283.57 417.522 281.783C417.798 279.996 422.624 275.884 423.539 275.898C424.455 275.913 425.167 278.02 426.998 278.455C427.817 278.591 428.656 278.515 429.437 278.236C430.218 277.956 430.915 277.481 431.46 276.857C431.624 276.639 431.856 276.482 432.119 276.41C432.383 276.339 432.663 276.358 432.914 276.465C433.297 277.328 433.464 278.271 433.401 279.212C433.337 280.154 433.046 281.066 432.551 281.87Z" fill="white"/>
<path d="M445.98 269.128C441.358 268.053 442.259 274.62 441.039 277.046C440.266 278.304 439.283 279.42 438.132 280.344C437 281.282 436.258 282.609 436.053 284.064C436.029 284.34 436.085 284.617 436.213 284.863C436.453 285.146 436.78 285.34 437.143 285.415C439.787 286.18 442.623 285.899 445.065 284.631C446.205 284.082 447.153 283.2 447.782 282.102C448.287 280.924 448.525 279.649 448.48 278.368C448.625 275.608 449.846 269.956 445.98 269.128Z" fill="#FDB9A9"/>
<path d="M441.881 282.582C441.881 282.582 428.713 283.134 434.295 287.289C439.876 291.445 448.204 286.272 449.018 285.328C449.832 284.383 449.163 282.771 449.163 282.771L441.881 282.582Z" fill="#2E82EF"/>
<path d="M448.437 284.369C447.274 285.822 441.082 287.74 438.335 287.536C435.588 287.333 433.132 286.083 433.408 284.296C433.684 282.509 438.51 278.397 439.425 278.485C440.341 278.572 441.053 280.606 442.884 281.027C443.702 281.166 444.541 281.093 445.322 280.816C446.103 280.539 446.8 280.066 447.346 279.443C447.508 279.223 447.74 279.064 448.004 278.993C448.269 278.922 448.549 278.942 448.8 279.051C449.168 279.902 449.327 280.829 449.264 281.754C449.201 282.679 448.917 283.576 448.437 284.369Z" fill="white"/>
<path d="M434.048 209.368L440.239 274.518L449.163 273.414C452.695 257.519 451.823 209.964 451.823 209.964L434.048 209.368Z" fill="#473F47"/>
<path d="M440.239 207.61L434.048 272.745L425.095 271.641C419.993 230.436 424.208 204.806 424.208 204.806L440.239 207.61Z" fill="#473F47"/>
<path d="M425.022 184.058C424.906 182.867 424.586 181.675 424.47 180.455C424.179 178 424.223 175.517 424.6 173.074C425.021 170.467 425.809 167.933 426.94 165.548C427.958 163.485 429.847 162.642 431.911 161.567C433.667 160.623 435.568 159.98 437.536 159.663C438.92 159.537 440.316 159.615 441.678 159.896C445.893 160.695 451.43 162.802 454.308 166.187C456.474 168.672 456.721 172.246 456.794 175.544C456.881 180.092 456.794 184.639 456.503 189.187C456.503 189.841 456.43 190.495 456.372 191.163C456.138 196.222 455.373 201.243 454.09 206.143C453.85 207.674 453.02 209.05 451.779 209.979C448.48 211.896 443.451 210.836 439.89 210.342C435.167 209.673 430.327 208.976 426.141 206.68C425.272 206.308 424.569 205.631 424.164 204.777C423.956 203.702 424.093 202.588 424.557 201.595C426.01 196.946 424.877 192.049 424.877 187.298C424.877 186.441 424.978 185.569 424.978 184.697C425.022 184.494 425.022 184.276 425.022 184.058Z" fill="white"/>
<path d="M439.847 192.471C440.967 193.168 442.202 193.659 443.495 193.924C447.346 195.042 451.3 195.638 455.122 196.829C455.382 196.88 455.623 197.001 455.82 197.178C455.976 197.419 456.048 197.706 456.023 197.992C456.041 199.111 455.874 200.225 455.529 201.29C455.417 201.822 455.111 202.293 454.672 202.612C454.113 202.815 453.501 202.815 452.942 202.612L438.539 199.561C437.508 199.298 436.448 199.171 435.385 199.183C434.125 199.33 432.889 199.637 431.708 200.099C429.499 200.806 427.225 201.292 424.92 201.552C425.043 198.803 425.378 196.068 425.923 193.372C426.134 192.574 426.437 191.804 426.824 191.076C427.289 190.357 427.835 189.694 428.452 189.1C430.777 186.673 432.391 183.637 434.745 181.21C435.981 179.932 437.521 179.118 438.611 177.752C439.047 177.2 442.826 172.449 442.463 171.941C443.19 172.841 444.992 171.941 445.646 172.871C446.053 173.452 445.646 174.236 445.268 174.832C442.483 179.494 440.54 184.608 439.527 189.943C439.236 191.178 438.8 191.613 439.847 192.471Z" fill="url(#paint9_linear)"/>
<path d="M428.103 132.827C429.439 133.686 430.489 134.923 431.118 136.381C431.746 137.839 431.925 139.452 431.632 141.012C431.338 142.573 430.586 144.01 429.47 145.14C428.355 146.27 426.928 147.042 425.371 147.357C425.371 147.357 417.115 150.466 421.752 157.644L444.687 172.246L430.152 195.173C422.973 199.808 419.862 191.555 419.862 191.555C419.55 189.997 418.778 188.568 417.647 187.452C416.515 186.336 415.075 185.584 413.513 185.293C411.95 185.002 410.336 185.185 408.878 185.818C407.42 186.452 406.185 187.507 405.332 188.848C404.479 190.189 404.047 191.754 404.091 193.342C404.136 194.931 404.655 196.47 405.581 197.761C406.508 199.052 407.799 200.037 409.29 200.588C410.781 201.139 412.403 201.232 413.947 200.854C421.941 200.694 421.592 208.642 421.592 208.642L407.058 231.569L347.7 193.793L362.162 171.069C369.342 166.448 372.452 174.687 372.452 174.687C372.76 176.25 373.529 177.686 374.661 178.809C375.793 179.931 377.236 180.689 378.802 180.985C380.369 181.28 381.989 181.099 383.452 180.466C384.915 179.833 386.155 178.776 387.011 177.431C387.868 176.087 388.302 174.517 388.257 172.924C388.213 171.33 387.692 169.787 386.762 168.493C385.831 167.198 384.535 166.212 383.038 165.661C381.542 165.11 379.915 165.02 378.367 165.402C370.374 165.562 370.737 157.615 370.737 157.615L385.475 134.455L408.424 149.071C408.424 149.071 416.374 149.42 416.214 141.429C415.96 140.379 415.92 139.289 416.094 138.224C416.269 137.158 416.656 136.138 417.232 135.225C418.377 133.491 420.152 132.271 422.181 131.823C424.211 131.376 426.335 131.736 428.103 132.827Z" fill="#2E82EF"/>
<path d="M463.494 179.801C464.089 180.838 464.576 181.934 464.947 183.07C465.417 185.063 465.466 187.131 465.092 189.143C464.917 191.116 464.208 193.005 463.043 194.607C460.587 197.512 456.198 197.788 452.39 197.425C448.067 197.026 443.799 196.169 439.658 194.868C439.273 194.781 438.911 194.613 438.597 194.374C438.261 193.994 438.031 193.534 437.928 193.037C437.611 191.833 437.402 190.603 437.303 189.361C441.663 188.112 446.489 189.129 451.038 188.461C451.348 188.459 451.653 188.384 451.928 188.241C452.203 188.098 452.44 187.891 452.619 187.639C452.798 187.386 452.915 187.094 452.958 186.787C453.001 186.48 452.971 186.167 452.869 185.874C452.651 183.317 451.067 181.08 450.326 178.61C449.6 176.233 449.661 173.685 450.5 171.345C450.75 170.52 451.176 169.76 451.748 169.115C452.32 168.471 453.025 167.957 453.814 167.611C455.631 167.015 456.328 168.439 457.331 169.776C459.64 172.955 461.7 176.306 463.494 179.801V179.801Z" fill="white"/>
<path d="M435.487 187.734C435.315 187.595 435.109 187.504 434.891 187.473C434.723 187.49 434.564 187.552 434.428 187.651C434.293 187.751 434.187 187.885 434.12 188.039C433.993 188.352 433.847 188.658 433.684 188.955C433.466 189.197 433.196 189.387 432.894 189.51C432.592 189.633 432.266 189.687 431.94 189.666C431.288 189.601 430.631 189.601 429.978 189.666C429.737 189.716 429.511 189.826 429.324 189.986C429.146 190.161 429.02 190.383 428.961 190.625C428.85 191.119 428.864 191.632 429.001 192.119C429.138 192.606 429.394 193.052 429.746 193.415C430.455 194.134 431.328 194.672 432.289 194.984C433.27 195.417 434.358 195.549 435.414 195.362C435.993 195.194 436.546 194.944 437.056 194.621L439.178 193.444C439.355 193.36 439.513 193.242 439.643 193.095C440.108 192.514 439.469 190.771 439.047 190.19C437.987 189.202 436.787 188.374 435.487 187.734V187.734Z" fill="#FDB9A9"/>
<path d="M434.062 153.067C434.062 151.817 434.164 150.553 434.295 149.333C434.425 148.112 434.585 147.153 434.789 146.078C434.803 145.76 434.885 145.449 435.03 145.165C435.176 144.882 435.381 144.633 435.632 144.436C437.312 143.434 439.242 142.93 441.198 142.984C441.938 142.931 442.681 143.034 443.379 143.284C444.077 143.534 444.715 143.927 445.253 144.436C445.91 145.271 446.3 146.283 446.372 147.342C446.44 150.092 446.167 152.84 445.559 155.522C445.251 157.629 445.139 159.759 445.224 161.886C444.194 162.571 443.011 162.99 441.78 163.107C441.207 163.101 440.638 163.008 440.094 162.831C439.791 162.762 439.522 162.587 439.338 162.337C439.273 162.104 439.273 161.858 439.338 161.625C439.352 161.402 439.352 161.179 439.338 160.956C439.423 159.712 439.399 158.463 439.265 157.222C439.268 157.168 439.259 157.115 439.239 157.064C439.219 157.014 439.188 156.969 439.149 156.932C439.069 156.903 438.982 156.903 438.902 156.932H438.553C437.935 156.997 437.311 156.997 436.693 156.932C435.949 156.859 435.256 156.518 434.745 155.973C434.155 155.127 433.91 154.087 434.062 153.067V153.067Z" fill="#FDB9A9"/>
<path d="M436.649 145.105C436.213 145.105 435.821 145.337 435.443 145.105C435.048 144.777 434.7 144.396 434.411 143.972C433.717 143.051 433.376 141.911 433.452 140.761C433.479 140.24 433.65 139.737 433.946 139.308C434.269 138.917 434.683 138.613 435.152 138.421C436.054 137.978 437.057 137.782 438.059 137.855C439.511 138.043 440.865 138.69 441.925 139.7C442.148 139.933 442.422 140.112 442.725 140.223C443.003 140.281 443.29 140.281 443.568 140.223C445.407 140.068 447.235 140.63 448.669 141.792C449.483 142.504 450.122 143.419 450.965 144.044C451.808 144.669 452.637 144.901 453.073 145.701C453.255 146.072 453.329 146.487 453.285 146.899C453.241 147.31 453.082 147.7 452.826 148.025C452.285 148.662 451.54 149.093 450.718 149.246C450.809 149.482 450.851 149.734 450.843 149.987C450.834 150.24 450.776 150.489 450.67 150.719C450.565 150.949 450.414 151.155 450.228 151.326C450.041 151.498 449.823 151.63 449.585 151.716C449.249 151.767 448.925 151.875 448.625 152.035C448.422 152.195 448.335 152.442 448.131 152.602C447.652 152.994 447.027 153.125 446.823 153.793C446.762 154.075 446.738 154.363 446.751 154.651C446.715 155.077 446.542 155.48 446.256 155.798C446.067 156.002 445.733 156.51 445.457 156.569C445.181 156.627 444.934 156.292 444.847 156.002C444.506 154.77 444.593 153.459 445.094 152.282C445.453 151.714 445.663 151.065 445.704 150.394C445.704 149.725 444.745 149.202 444.251 149.594C443.756 149.987 443.727 150.931 443.204 150.742C443.529 149.803 443.505 148.779 443.137 147.856C442.768 146.933 442.081 146.173 441.198 145.715C440.219 145.416 439.199 145.273 438.175 145.294C437.697 145.193 437.21 145.139 436.722 145.134L436.649 145.105Z" fill="#473F47"/>
<path d="M438.553 156.961C439.996 156.686 441.408 156.268 442.768 155.711C442.891 156.856 442.615 158.009 441.988 158.974C441.361 159.94 440.42 160.661 439.324 161.014V161.014C439.433 159.772 439.433 158.523 439.324 157.28C439.322 157.173 439.281 157.069 439.207 156.99C439.127 156.961 439.04 156.961 438.96 156.99H438.626L438.553 156.961Z" fill="#DE9F93"/>
<path d="M393.047 167.407C393.267 167.723 393.41 168.086 393.463 168.468C393.516 168.849 393.478 169.237 393.352 169.601C393.1 170.329 392.732 171.011 392.262 171.621L389.98 174.992C389.384 175.863 388.527 176.851 387.524 176.764C385.024 176.59 383.92 170.11 384.85 168.192C385.925 165.795 391.405 165.359 393.047 167.407Z" fill="#FDB9A9"/>
<path d="M404.82 225.365V295.702H334.474V268.503C334.474 268.503 338.442 261.616 345.099 266.033C346.199 267.186 347.62 267.983 349.178 268.321C350.735 268.659 352.359 268.523 353.839 267.931C355.318 267.338 356.587 266.316 357.48 264.997C358.373 263.677 358.851 262.12 358.851 260.526C358.851 258.933 358.373 257.376 357.48 256.056C356.587 254.736 355.318 253.714 353.839 253.121C352.359 252.529 350.735 252.393 349.178 252.731C347.62 253.07 346.199 253.867 345.099 255.02C345.099 255.02 338.05 260.308 334.474 252.55V225.365H361.668C369.429 221.791 364.138 214.744 364.138 214.744C362.985 213.644 362.188 212.224 361.85 210.667C361.511 209.109 361.647 207.487 362.24 206.007C362.833 204.528 363.855 203.26 365.175 202.367C366.495 201.474 368.053 200.997 369.647 200.997C371.241 200.997 372.799 201.474 374.119 202.367C375.439 203.26 376.461 204.528 377.054 206.007C377.647 207.487 377.783 209.109 377.444 210.667C377.106 212.224 376.309 213.644 375.155 214.744C370.795 221.399 377.626 225.365 377.626 225.365H404.82Z" fill="#2E82EF"/>
<path d="M404.82 225.365V295.702H334.474V268.503C334.474 268.503 338.442 261.616 345.099 266.033C346.199 267.186 347.62 267.983 349.178 268.321C350.735 268.659 352.359 268.523 353.839 267.931C355.318 267.338 356.587 266.316 357.48 264.997C358.373 263.677 358.851 262.12 358.851 260.526C358.851 258.933 358.373 257.376 357.48 256.056C356.587 254.736 355.318 253.714 353.839 253.121C352.359 252.529 350.735 252.393 349.178 252.731C347.62 253.07 346.199 253.867 345.099 255.02C345.099 255.02 338.05 260.308 334.474 252.55V225.365H361.668C369.429 221.791 364.138 214.744 364.138 214.744C362.985 213.644 362.188 212.224 361.85 210.667C361.511 209.109 361.647 207.487 362.24 206.007C362.833 204.528 363.855 203.26 365.175 202.367C366.495 201.474 368.053 200.997 369.647 200.997C371.241 200.997 372.799 201.474 374.119 202.367C375.439 203.26 376.461 204.528 377.054 206.007C377.647 207.487 377.783 209.109 377.444 210.667C377.106 212.224 376.309 213.644 375.155 214.744C370.795 221.399 377.626 225.365 377.626 225.365H404.82Z" fill="url(#paint10_linear)"/>
<path d="M288.517 190.19C288.513 191.782 288.032 193.337 287.137 194.655C286.242 195.973 284.973 196.993 283.494 197.585C282.015 198.177 280.392 198.313 278.835 197.976C277.277 197.64 275.856 196.846 274.754 195.696C268.097 191.337 264.129 198.166 264.129 198.166V225.365H334.474V155.028H264.129V182.213C267.705 189.972 274.754 184.683 274.754 184.683C275.856 183.533 277.277 182.739 278.835 182.403C280.392 182.066 282.015 182.203 283.494 182.794C284.973 183.386 286.242 184.406 287.137 185.724C288.032 187.042 288.513 188.597 288.517 190.19V190.19Z" fill="#2E82EF"/>
<path d="M293.793 235.986C292.64 237.086 291.843 238.506 291.505 240.064C291.166 241.621 291.302 243.244 291.895 244.723C292.487 246.202 293.51 247.47 294.83 248.363C296.15 249.256 297.708 249.734 299.302 249.734C300.896 249.734 302.453 249.256 303.774 248.363C305.094 247.47 306.116 246.202 306.709 244.723C307.302 243.244 307.438 241.621 307.099 240.064C306.761 238.506 305.964 237.086 304.81 235.986C304.81 235.986 299.52 228.939 307.281 225.365H291.308C291.308 225.365 298.212 229.332 293.793 235.986Z" fill="#2E82EF"/>
<path d="M264.129 155.028V182.213C267.705 189.972 274.754 184.683 274.754 184.683C275.854 183.53 277.275 182.733 278.832 182.395C280.39 182.056 282.014 182.192 283.493 182.785C284.973 183.377 286.241 184.399 287.135 185.719C288.028 187.039 288.506 188.596 288.506 190.19C288.506 191.783 288.028 193.34 287.135 194.66C286.241 195.98 284.973 197.002 283.493 197.594C282.014 198.187 280.39 198.323 278.832 197.984C277.275 197.646 275.854 196.849 274.754 195.696C268.097 191.337 264.129 198.166 264.129 198.166V225.365H291.308C291.308 225.365 298.197 229.332 293.779 235.986C292.625 237.086 291.828 238.506 291.49 240.064C291.151 241.621 291.287 243.244 291.88 244.723C292.473 246.202 293.495 247.47 294.815 248.363C296.136 249.256 297.693 249.734 299.287 249.734C300.881 249.734 302.439 249.256 303.759 248.363C305.079 247.47 306.102 246.202 306.694 244.723C307.287 243.244 307.423 241.621 307.085 240.064C306.746 238.506 305.949 237.086 304.796 235.986C304.796 235.986 299.505 228.939 307.266 225.365H334.474V155.028H264.129Z" fill="url(#paint11_linear)"/>
<path d="M264.129 225.365V295.702H334.474V268.503C334.474 268.503 338.442 261.616 345.099 266.033C346.199 267.186 347.62 267.983 349.178 268.321C350.735 268.659 352.359 268.523 353.838 267.931C355.318 267.338 356.587 266.316 357.48 264.997C358.373 263.677 358.851 262.12 358.851 260.526C358.851 258.933 358.373 257.376 357.48 256.056C356.587 254.736 355.318 253.714 353.838 253.122C352.359 252.529 350.735 252.393 349.178 252.731C347.62 253.07 346.199 253.867 345.099 255.02C345.099 255.02 338.05 260.308 334.474 252.55V225.365H307.295C299.534 228.939 304.825 235.986 304.825 235.986C305.978 237.086 306.775 238.506 307.114 240.064C307.452 241.621 307.316 243.244 306.723 244.723C306.131 246.202 305.108 247.47 303.788 248.363C302.468 249.256 300.91 249.734 299.316 249.734C297.722 249.734 296.165 249.256 294.844 248.363C293.524 247.47 292.502 246.202 291.909 244.723C291.316 243.244 291.18 241.621 291.519 240.064C291.857 238.506 292.655 237.086 293.808 235.986C298.168 229.332 291.337 225.365 291.337 225.365H264.129Z" fill="#2E82EF"/>
<path d="M193.929 295.702V268.517C197.505 260.759 204.554 266.047 204.554 266.047C205.654 267.2 207.075 267.997 208.633 268.336C210.19 268.674 211.814 268.538 213.294 267.945C214.773 267.353 216.042 266.331 216.935 265.011C217.828 263.691 218.306 262.134 218.306 260.541C218.306 258.947 217.828 257.39 216.935 256.07C216.042 254.751 214.773 253.729 213.294 253.136C211.814 252.543 210.19 252.408 208.633 252.746C207.075 253.084 205.654 253.881 204.554 255.034C197.897 259.393 193.929 252.564 193.929 252.564V225.365H221.123C221.123 225.365 228.012 221.399 223.594 214.744C222.44 213.644 221.643 212.224 221.305 210.667C220.966 209.109 221.102 207.487 221.695 206.007C222.288 204.528 223.31 203.26 224.63 202.367C225.95 201.474 227.508 200.997 229.102 200.997C230.696 200.997 232.254 201.474 233.574 202.367C234.894 203.26 235.916 204.528 236.509 206.007C237.102 207.487 237.238 209.109 236.899 210.667C236.561 212.224 235.764 213.644 234.61 214.744C234.61 214.744 229.32 221.791 237.081 225.365H264.275V295.702H193.929Z" fill="#2E82EF"/>
<path d="M193.929 295.702V268.517C197.505 260.759 204.554 266.047 204.554 266.047C205.654 267.2 207.075 267.997 208.633 268.336C210.19 268.674 211.814 268.538 213.294 267.945C214.773 267.353 216.042 266.331 216.935 265.011C217.828 263.691 218.306 262.134 218.306 260.541C218.306 258.947 217.828 257.39 216.935 256.07C216.042 254.751 214.773 253.729 213.294 253.136C211.814 252.543 210.19 252.408 208.633 252.746C207.075 253.084 205.654 253.881 204.554 255.034C197.897 259.393 193.929 252.564 193.929 252.564V225.365H221.123C221.123 225.365 228.012 221.399 223.594 214.744C222.44 213.644 221.643 212.224 221.305 210.667C220.966 209.109 221.102 207.487 221.695 206.007C222.288 204.528 223.31 203.26 224.63 202.367C225.95 201.474 227.508 200.997 229.102 200.997C230.696 200.997 232.254 201.474 233.574 202.367C234.894 203.26 235.916 204.528 236.509 206.007C237.102 207.487 237.238 209.109 236.899 210.667C236.561 212.224 235.764 213.644 234.61 214.744C234.61 214.744 229.32 221.791 237.081 225.365H264.275V295.702H193.929Z" fill="url(#paint12_linear)"/>
<path d="M288.605 190.204C288.6 191.797 288.119 193.352 287.224 194.67C286.329 195.987 285.06 197.007 283.581 197.599C282.102 198.191 280.48 198.327 278.922 197.991C277.365 197.654 275.944 196.86 274.841 195.711C274.841 195.711 267.792 190.422 264.216 198.181V225.365H237.023C229.262 221.791 234.552 214.744 234.552 214.744C235.706 213.644 236.503 212.224 236.841 210.667C237.18 209.109 237.044 207.487 236.451 206.007C235.858 204.528 234.836 203.26 233.516 202.367C232.195 201.474 230.638 200.997 229.044 200.997C227.45 200.997 225.892 201.474 224.572 202.367C223.252 203.26 222.229 204.528 221.637 206.007C221.044 207.487 220.908 209.109 221.247 210.667C221.585 212.224 222.382 213.644 223.535 214.744C227.896 221.399 221.065 225.365 221.065 225.365H193.929V155.028H220.861C228.622 158.603 223.332 165.649 223.332 165.649C222.179 166.75 221.381 168.17 221.043 169.727C220.705 171.284 220.841 172.907 221.433 174.386C222.026 175.866 223.048 177.134 224.369 178.027C225.689 178.92 227.246 179.397 228.84 179.397C230.434 179.397 231.992 178.92 233.312 178.027C234.632 177.134 235.655 175.866 236.248 174.386C236.84 172.907 236.976 171.284 236.638 169.727C236.299 168.17 235.502 166.75 234.349 165.649C229.989 158.995 236.82 155.028 236.82 155.028H264.275V182.227C264.275 182.227 268.242 189.114 274.899 184.697C276.002 183.548 277.423 182.754 278.98 182.417C280.538 182.081 282.16 182.217 283.639 182.809C285.119 183.401 286.387 184.421 287.282 185.739C288.177 187.056 288.658 188.611 288.663 190.204H288.605Z" fill="#2E82EF"/>
<path d="M305.842 325.356C305.867 326.951 305.414 328.517 304.54 329.852C303.666 331.187 302.411 332.229 300.939 332.843C299.466 333.458 297.843 333.617 296.279 333.301C294.716 332.984 293.282 332.206 292.165 331.066C292.165 331.066 285.044 325.879 281.585 333.682L281.977 360.866L254.784 361.258C246.964 357.8 252.153 350.681 252.153 350.681C253.285 349.565 254.057 348.136 254.37 346.578C254.683 345.019 254.522 343.403 253.908 341.937C253.294 340.471 252.256 339.222 250.926 338.351C249.596 337.48 248.035 337.027 246.446 337.05C244.856 337.073 243.309 337.571 242.005 338.48C240.701 339.39 239.699 340.668 239.128 342.151C238.557 343.635 238.443 345.255 238.801 346.804C239.159 348.352 239.972 349.758 241.136 350.841C245.656 357.423 238.825 361.491 238.825 361.491L211.632 361.883L210.615 291.546L237.546 291.169C245.366 294.627 240.177 301.746 240.177 301.746C239.045 302.862 238.273 304.291 237.96 305.849C237.647 307.408 237.808 309.024 238.422 310.49C239.036 311.956 240.074 313.205 241.404 314.076C242.734 314.947 244.295 315.4 245.884 315.377C247.474 315.354 249.021 314.856 250.325 313.947C251.629 313.038 252.631 311.759 253.202 310.276C253.773 308.792 253.887 307.172 253.529 305.624C253.171 304.075 252.358 302.669 251.194 301.586C246.674 295.004 253.505 290.936 253.505 290.936L280.96 290.544L281.352 317.743C281.352 317.743 285.422 324.572 292.006 320.053C292.752 319.257 293.652 318.62 294.651 318.181C295.65 317.741 296.728 317.508 297.819 317.496C299.924 317.48 301.95 318.298 303.453 319.771C304.956 321.244 305.815 323.252 305.842 325.356V325.356Z" fill="#2E82EF"/>
<path d="M220.469 291.808C219.495 292.883 218.739 295.251 220.28 296.254C220.831 296.551 221.442 296.72 222.068 296.748L230.294 297.75C230.047 297.75 234.349 346.206 236.035 356.507C236.238 357.728 236.747 359.253 237.982 359.413C238.353 359.391 238.713 359.282 239.033 359.095C239.354 358.909 239.626 358.649 239.828 358.338C241.016 356.478 241.692 354.338 241.79 352.134C243.834 336.318 244.805 320.381 244.697 304.434C244.697 301.281 244.581 297.983 243.011 295.237C242.047 293.743 240.783 292.465 239.3 291.485C237.816 290.505 236.145 289.843 234.392 289.541C229.698 288.481 223.884 288.001 220.469 291.808Z" fill="url(#paint13_linear)"/>
<path d="M240.264 392.38V392.569C240.613 393.456 241.718 393.746 242.648 393.862C243.526 393.959 244.41 393.998 245.293 393.979C245.717 393.994 246.14 393.935 246.543 393.804C246.913 393.642 247.259 393.432 247.575 393.179L250.118 391.291C250.833 390.798 251.487 390.223 252.066 389.576C252.639 388.911 252.94 388.055 252.909 387.179C252.878 386.746 252.716 386.332 252.443 385.995C252.17 385.657 251.8 385.411 251.383 385.29C250.852 385.225 250.315 385.225 249.784 385.29C249.194 385.366 248.594 385.269 248.057 385.011C247.521 384.753 247.071 384.345 246.761 383.837C246.656 383.363 246.401 382.935 246.034 382.617C245.664 382.437 245.245 382.386 244.842 382.471C243.96 382.516 243.089 382.687 242.255 382.98C241.835 383.13 241.454 383.373 241.14 383.69C240.825 384.006 240.586 384.389 240.439 384.811C240.35 385.201 240.311 385.601 240.322 386.002C240.373 386.829 240.373 387.659 240.322 388.486C240.206 389.519 240.148 390.557 240.148 391.596C240.156 391.861 240.195 392.124 240.264 392.38V392.38Z" fill="#262836"/>
<path d="M264.929 392.714C263.216 393.498 261.454 394.168 259.653 394.719C258.936 395.029 258.133 395.075 257.385 394.85C257.092 394.708 256.833 394.505 256.625 394.254C256.417 394.004 256.265 393.712 256.179 393.397C256.022 392.756 255.958 392.095 255.99 391.436C256.101 390.416 256.311 389.408 256.615 388.428C256.775 387.513 256.906 386.598 257.022 385.682C257.211 384.36 257.385 383.052 257.545 381.745L262.123 382.718C262.603 382.82 263.054 384.665 263.344 385.057C263.557 385.346 263.832 385.584 264.149 385.752C264.466 385.921 264.817 386.016 265.176 386.031C265.956 385.918 266.742 385.855 267.53 385.842C268.038 385.961 268.492 386.245 268.821 386.65C269.15 387.055 269.335 387.558 269.347 388.08C269.343 388.598 269.231 389.11 269.018 389.583C268.806 390.055 268.497 390.479 268.112 390.826C267.341 391.523 266.456 392.084 265.495 392.482L264.929 392.714Z" fill="#262836"/>
<path d="M265.001 387.6C263.8 388.283 262.552 388.88 261.266 389.387H261.15C259.028 390.215 256.659 386.888 256.659 386.888C256.659 386.888 253.665 368.407 253.752 360.735C253.854 355.476 252.604 347.979 250.729 334.379C250.264 348.269 247.909 354.372 248.505 359.355C249.421 366.925 248.331 385.726 248.331 385.726C248.331 385.726 246.325 389.387 244.13 388.893H243.999C242.678 388.593 241.381 388.195 240.119 387.702C240.119 387.702 237.561 361.811 237.561 354.982C237.561 348.153 237.852 342.036 237.852 342.036L236.514 320.416L242.212 312.135L242.677 311.946L243.113 311.51L249.435 306.875C249.435 306.875 249.435 307.95 249.319 309.781L254.232 312.411L254.697 312.759L255.176 312.876L263.403 314.329C263.403 314.329 265.554 347.499 266.309 354.284C267.065 361.07 265.001 387.6 265.001 387.6Z" fill="#2E82EF"/>
<path d="M265.001 387.6C263.8 388.283 262.552 388.88 261.266 389.387H261.15C259.028 390.215 256.659 386.888 256.659 386.888C256.659 386.888 253.665 368.407 253.752 360.735C253.854 355.476 252.604 347.979 250.729 334.379C250.264 348.269 247.909 354.372 248.505 359.355C249.421 366.925 248.331 385.726 248.331 385.726C248.331 385.726 246.325 389.387 244.13 388.893H243.999C242.678 388.593 241.381 388.195 240.119 387.702C240.119 387.702 237.561 361.811 237.561 354.982C237.561 348.153 237.852 342.036 237.852 342.036L236.514 320.416L242.212 312.135L242.677 311.946L243.113 311.51L249.435 306.875C249.435 306.875 249.435 307.95 249.319 309.781L254.232 312.411L254.697 312.759L255.176 312.876L263.403 314.329C263.403 314.329 265.554 347.499 266.309 354.284C267.065 361.07 265.001 387.6 265.001 387.6Z" fill="url(#paint14_linear)"/>
<path d="M303.72 271.975C303.822 271.903 303.944 271.862 304.069 271.859C304.403 271.859 304.418 272.397 304.302 272.716C303.998 273.608 303.556 274.446 302.993 275.201C302.811 275.389 302.703 275.637 302.688 275.898C302.688 276.16 302.921 276.349 303.095 276.538C303.63 277.158 304.01 277.896 304.205 278.692C304.399 279.487 304.402 280.317 304.214 281.114C303.811 282.706 302.982 284.157 301.816 285.313C301.535 285.671 301.187 285.969 300.79 286.191C300.393 286.413 299.957 286.554 299.505 286.606C297.936 286.606 295.974 284.674 295.349 283.337C295.121 282.67 295.071 281.954 295.203 281.261C295.336 280.569 295.646 279.922 296.104 279.385C297.959 276.298 300.583 273.745 303.72 271.975V271.975Z" fill="#A67C52"/>
<path d="M258.185 256.719C258.694 257.243 259.478 257.78 259.26 258.463C259.144 258.826 258.752 259.044 258.461 259.306C257.744 260.066 257.357 261.08 257.386 262.124C257.416 263.164 257.269 264.201 256.95 265.19C256.768 265.68 256.423 266.092 255.973 266.356C255.523 266.621 254.995 266.722 254.479 266.643C253.883 266.483 253.287 265.96 252.706 266.207C252.124 266.454 252.124 266.934 251.892 267.34C251.574 267.841 251.123 268.243 250.588 268.5C250.054 268.756 249.458 268.858 248.869 268.793C247.703 268.618 246.579 268.229 245.555 267.646C245.12 267.472 244.742 267.18 244.465 266.803C244.296 266.434 244.255 266.02 244.348 265.626C244.708 264.443 245.295 263.343 246.078 262.386C247.331 260.455 248.085 258.243 248.273 255.949C248.389 254.351 248.273 252.593 249.305 251.358C250.758 249.673 254.057 249.687 255.787 250.922C257.516 252.157 256.586 255.078 258.185 256.719Z" fill="#A67C52"/>
<path d="M256.121 249.484C255.918 249.882 255.612 250.219 255.234 250.457C254.464 250.908 253.781 251.431 253.083 251.91C252.38 252.374 251.885 253.093 251.702 253.915C251.397 255.368 252.211 257.025 251.702 258.492C251.514 258.797 251.034 258.608 250.845 258.318C250.656 258.027 250.54 257.664 250.249 257.49C249.74 257.199 249.13 257.693 248.912 258.231C248.687 258.856 248.712 259.544 248.983 260.15C249.254 260.757 249.749 261.235 250.365 261.485C250.293 261.95 249.697 262.139 249.217 262.081C248.744 261.951 248.255 261.887 247.764 261.892C246.674 262.095 246.31 263.65 245.177 263.81C244.801 263.785 244.437 263.674 244.112 263.485C243.786 263.296 243.509 263.034 243.302 262.72L241.979 261.267C241.766 260.985 241.533 260.718 241.282 260.468C240.976 260.236 240.482 260.221 240.235 259.945C239.988 259.669 240.235 259.015 239.973 258.666C239.85 258.537 239.694 258.442 239.523 258.39C239.142 258.198 238.84 257.881 238.665 257.492C238.49 257.104 238.455 256.667 238.564 256.255C238.599 256.151 238.599 256.039 238.564 255.935C238.564 255.79 238.36 255.732 238.215 255.659C237.814 255.399 237.518 255.004 237.383 254.546C237.247 254.088 237.279 253.596 237.474 253.16C237.695 252.659 238.011 252.205 238.404 251.823C238.542 251.61 238.739 251.44 238.971 251.335C239.203 251.229 239.46 251.192 239.712 251.227L239.93 249.324C239.925 249.002 239.991 248.682 240.124 248.388C240.257 248.095 240.454 247.834 240.7 247.626C240.946 247.417 241.236 247.266 241.547 247.183C241.859 247.1 242.185 247.087 242.502 247.145L242.066 245.576C241.986 245.375 241.986 245.151 242.066 244.951C242.186 244.812 242.351 244.719 242.531 244.689C243.039 244.545 243.56 244.457 244.087 244.428C243.898 243.988 243.752 243.53 243.651 243.062C243.617 242.995 243.605 242.919 243.615 242.844C243.625 242.77 243.657 242.7 243.707 242.644C243.757 242.588 243.823 242.548 243.895 242.529C243.968 242.51 244.045 242.514 244.116 242.539C244.308 242.568 244.504 242.568 244.697 242.539C244.697 242.539 244.406 241.202 244.392 241.086C244.304 240.666 244.382 240.229 244.61 239.866C244.769 239.685 244.97 239.546 245.196 239.463C245.422 239.379 245.665 239.353 245.903 239.386C246.375 239.47 246.828 239.637 247.241 239.88C247.241 239.372 247.865 239.11 248.374 239.066C249.354 239.011 250.331 239.205 251.215 239.629C252.1 240.054 252.862 240.695 253.432 241.493C253.526 241.633 253.633 241.765 253.752 241.885C253.984 242.033 254.24 242.141 254.508 242.205C254.92 242.387 255.287 242.659 255.581 243.001C255.875 243.343 256.089 243.746 256.208 244.181C256.426 245.044 256.514 245.936 256.47 246.825C256.503 247.509 256.439 248.193 256.281 248.859C256.252 249.073 256.198 249.283 256.121 249.484Z" fill="#2F3554"/>
<path d="M248.898 265.96C250.108 266.467 251.283 267.054 252.415 267.718C252.764 267.906 253.067 268.169 253.301 268.488C253.427 268.663 253.504 268.869 253.524 269.083C253.544 269.297 253.508 269.513 253.418 269.709C253.112 270.246 252.386 270.058 251.833 269.854C249.272 268.985 246.57 268.611 243.869 268.75C243.688 268.78 243.503 268.759 243.334 268.69C243.164 268.62 243.017 268.505 242.91 268.358C242.847 268.179 242.823 267.99 242.841 267.802C242.858 267.613 242.917 267.431 243.011 267.268C244.392 264.493 246.645 264.943 248.898 265.96Z" fill="white"/>
<path d="M298.648 287.377C298.122 288.681 297.347 289.871 296.366 290.878C295.421 291.939 294.447 292.956 293.459 293.944C291.071 296.251 288.553 298.42 285.916 300.438C284.125 302.02 281.99 303.164 279.681 303.78C278.744 303.999 277.764 303.939 276.861 303.606C276.127 303.24 275.463 302.748 274.899 302.153C274.23 301.485 266.469 292.549 266.338 292.549C265.898 292.785 265.557 293.172 265.379 293.639C264.258 295.961 263.564 298.466 263.33 301.034C263.235 302.18 263.235 303.332 263.33 304.478C263.635 308.386 265.001 312.411 263.65 316.101C263.38 316.881 262.932 317.587 262.341 318.164C261.773 318.662 261.117 319.051 260.408 319.312C259.156 319.825 257.849 320.195 256.513 320.416C255.75 320.557 254.978 320.639 254.202 320.663C251.296 320.78 248.534 320.227 245.685 320.358C243.273 320.489 240.875 321.114 238.418 321.027C238.072 321.094 237.715 321.086 237.372 321.002C237.029 320.918 236.708 320.761 236.432 320.541C236.156 320.322 235.93 320.045 235.772 319.73C235.613 319.415 235.524 319.069 235.511 318.716C234.57 313.543 234.084 308.297 234.058 303.039C234.058 301.208 233.956 299.363 233.84 297.533C233.738 295.978 234.16 292.026 232.387 291.721C227.881 290.849 223.201 291.953 218.652 291.314C218.778 288.338 220.042 285.525 222.184 283.454C223.234 282.567 224.374 281.793 225.585 281.143C226.979 280.146 228.23 278.963 229.305 277.627C232.396 273.812 236.312 270.747 240.758 268.663C241.467 268.316 242.213 268.053 242.982 267.878H243.171C243.282 267.865 243.394 267.865 243.505 267.878C244.478 267.797 245.456 267.855 246.412 268.052C252.897 269.128 259.312 270.583 265.626 272.411C266.459 272.598 267.249 272.944 267.952 273.428C268.442 273.872 268.864 274.386 269.202 274.954C270.975 277.627 272.704 280.33 274.492 283.003C276.033 285.299 277.544 288.176 279.811 289.861C284.747 287.855 289.406 285.229 293.677 282.044C294.273 281.594 295.043 281.1 295.726 281.405C295.954 281.506 296.157 281.655 296.322 281.841C297.994 283.294 299.462 284.892 298.648 287.377Z" fill="white"/>
<defs>
<linearGradient id="paint0_linear" x1="250.365" y1="350.274" x2="253.372" y2="408.087" gradientUnits="userSpaceOnUse">
<stop offset="0.01"/>
<stop offset="0.08" stop-opacity="0.69"/>
<stop offset="0.21" stop-opacity="0.32"/>
<stop offset="1" stop-opacity="0"/>
</linearGradient>
<linearGradient id="paint1_linear" x1="69402.8" y1="3225.49" x2="69419" y2="6857.37" gradientUnits="userSpaceOnUse">
<stop offset="0.01"/>
<stop offset="0.08" stop-opacity="0.69"/>
<stop offset="0.21" stop-opacity="0.32"/>
<stop offset="1" stop-opacity="0"/>
</linearGradient>
<linearGradient id="paint2_linear" x1="-49877.4" y1="23033.2" x2="-49430.8" y2="23207.3" gradientUnits="userSpaceOnUse">
<stop offset="0.01"/>
<stop offset="0.08" stop-opacity="0.69"/>
<stop offset="0.21" stop-opacity="0.32"/>
<stop offset="1" stop-opacity="0"/>
</linearGradient>
<linearGradient id="paint3_linear" x1="273.93" y1="205.258" x2="147.975" y2="-50.5543" gradientUnits="userSpaceOnUse">
<stop offset="0.01"/>
<stop offset="0.08" stop-opacity="0.69"/>
<stop offset="0.21" stop-opacity="0.32"/>
<stop offset="1" stop-opacity="0"/>
</linearGradient>
<linearGradient id="paint4_linear" x1="3761.13" y1="1549.29" x2="3861.72" y2="2273.95" gradientUnits="userSpaceOnUse">
<stop offset="0.01"/>
<stop offset="0.08" stop-opacity="0.69"/>
<stop offset="0.21" stop-opacity="0.32"/>
<stop offset="1" stop-opacity="0"/>
</linearGradient>
<linearGradient id="paint5_linear" x1="-19956.6" y1="-3579.17" x2="-20170" y2="-3423.18" gradientUnits="userSpaceOnUse">
<stop offset="0.01"/>
<stop offset="0.08" stop-opacity="0.69"/>
<stop offset="0.21" stop-opacity="0.32"/>
<stop offset="1" stop-opacity="0"/>
</linearGradient>
<linearGradient id="paint6_linear" x1="12138.5" y1="12306.2" x2="11946" y2="29229.1" gradientUnits="userSpaceOnUse">
<stop offset="0.01"/>
<stop offset="0.08" stop-opacity="0.69"/>
<stop offset="0.21" stop-opacity="0.32"/>
<stop offset="1" stop-opacity="0"/>
</linearGradient>
<linearGradient id="paint7_linear" x1="12169.2" y1="21349.8" x2="5690.04" y2="23390.3" gradientUnits="userSpaceOnUse">
<stop offset="0.01"/>
<stop offset="0.08" stop-opacity="0.69"/>
<stop offset="0.21" stop-opacity="0.32"/>
<stop offset="1" stop-opacity="0"/>
</linearGradient>
<linearGradient id="paint8_linear" x1="7466.66" y1="19549.8" x2="-1482.3" y2="21681.6" gradientUnits="userSpaceOnUse">
<stop offset="0.01"/>
<stop offset="0.08" stop-opacity="0.69"/>
<stop offset="0.21" stop-opacity="0.32"/>
<stop offset="1" stop-opacity="0"/>
</linearGradient>
<linearGradient id="paint9_linear" x1="9364.36" y1="3158.16" x2="11362.8" y2="7893.29" gradientUnits="userSpaceOnUse">
<stop offset="0.01"/>
<stop offset="0.08" stop-opacity="0.69"/>
<stop offset="0.21" stop-opacity="0.32"/>
<stop offset="1" stop-opacity="0"/>
</linearGradient>
<linearGradient id="paint10_linear" x1="12249.5" y1="12965.4" x2="31839.9" y2="23166.9" gradientUnits="userSpaceOnUse">
<stop offset="0.01"/>
<stop offset="0.08" stop-opacity="0.69"/>
<stop offset="0.21" stop-opacity="0.32"/>
<stop offset="1" stop-opacity="0"/>
</linearGradient>
<linearGradient id="paint11_linear" x1="14274.8" y1="24125.9" x2="19832" y2="1930.37" gradientUnits="userSpaceOnUse">
<stop offset="0.01"/>
<stop offset="0.08" stop-opacity="0.69"/>
<stop offset="0.21" stop-opacity="0.32"/>
<stop offset="1" stop-opacity="0"/>
</linearGradient>
<linearGradient id="paint12_linear" x1="12277.1" y1="8581.46" x2="11415.6" y2="36728.3" gradientUnits="userSpaceOnUse">
<stop offset="0.01"/>
<stop offset="0.08" stop-opacity="0.69"/>
<stop offset="0.21" stop-opacity="0.32"/>
<stop offset="1" stop-opacity="0"/>
</linearGradient>
<linearGradient id="paint13_linear" x1="3882.63" y1="15395.5" x2="8079.62" y2="17029.8" gradientUnits="userSpaceOnUse">
<stop offset="0.01"/>
<stop offset="0.08" stop-opacity="0.69"/>
<stop offset="0.21" stop-opacity="0.32"/>
<stop offset="1" stop-opacity="0"/>
</linearGradient>
<linearGradient id="paint14_linear" x1="5136.1" y1="19768.9" x2="8671.68" y2="21563.2" gradientUnits="userSpaceOnUse">
<stop offset="0.01"/>
<stop offset="0.08" stop-opacity="0.69"/>
<stop offset="0.21" stop-opacity="0.32"/>
<stop offset="1" stop-opacity="0"/>
</linearGradient>
</defs>
</svg>
