<svg xmlns="http://www.w3.org/2000/svg" viewBox="0 0 400 300" width="406" height="306" class="illustration styles_illustrationTablet__1DWOa"><g id="_186_marketing_outline" data-name="#186_marketing_outline"><path d="M282.54,113.23a1,1,0,0,1-.91-.58,89.89,89.89,0,0,0-109.42-48,1,1,0,1,1-.62-1.9,91.9,91.9,0,0,1,111.86,49.08,1,1,0,0,1-.49,1.33A1,1,0,0,1,282.54,113.23Z" fill="#093f68"></path><path d="M119.65,193.23a1,1,0,0,1-.88-.53A91.87,91.87,0,0,1,108.25,150a90.85,90.85,0,0,1,9.58-40.88,1,1,0,0,1,1.35-.45,1,1,0,0,1,.44,1.34,88.9,88.9,0,0,0-9.37,40,89.83,89.83,0,0,0,10.29,41.76,1,1,0,0,1-.42,1.36A1.12,1.12,0,0,1,119.65,193.23Z" fill="#093f68"></path><path d="M200,241.75a91,91,0,0,1-38.49-8.44A1,1,0,0,1,161,232a1,1,0,0,1,1.32-.49A89.72,89.72,0,0,0,289,161.58a1,1,0,1,1,2,.25,91.75,91.75,0,0,1-91,79.92Z" fill="#093f68"></path><path d="M228.38,204.19v-11A19.12,19.12,0,0,0,209.25,174H191a19.13,19.13,0,0,0-19.14,19.13v11Z" fill="#2e82ef"></path><path d="M228.38,205.19H171.84a1,1,0,0,1-1-1v-11A20.15,20.15,0,0,1,191,173h18.27a20.15,20.15,0,0,1,20.13,20.13v11A1,1,0,0,1,228.38,205.19Zm-55.54-2h54.54v-10A18.15,18.15,0,0,0,209.25,175H191a18.15,18.15,0,0,0-18.14,18.13Z" fill="#093f68"></path><polygon points="200.36 200.11 195.55 175.89 205.17 175.89 200.36 200.11" fill="#fff"></polygon><path d="M200.36,201.11a1,1,0,0,1-1-.81l-4.81-24.21a1,1,0,0,1,.21-.83,1,1,0,0,1,.77-.37h9.62a1,1,0,0,1,.77.37,1,1,0,0,1,.21.83l-4.81,24.21A1,1,0,0,1,200.36,201.11Zm-3.59-24.22L200.36,195,204,176.89Z" fill="#093f68"></path><path d="M197.7,96.09a22.73,22.73,0,0,1,3.58-.28c5.53,0,11.17-.14,16.22,2.32a30.68,30.68,0,0,1,17.06,27.33s-1.16,22.64-1.16,22.64H167.15c-.38-1.33.22-2.9.27-4.22a18.2,18.2,0,0,0-.65-4.38,61.49,61.49,0,0,1-1.33-11.22A43.66,43.66,0,0,1,169.07,111c1.35-3.27,2.93-6.67,5.82-8.71s7.48-2.11,9.54.77A23.08,23.08,0,0,1,197.7,96.09Z" fill="#725858"></path><path d="M233.4,149.1H167.15a1,1,0,0,1-1-.72,7.31,7.31,0,0,1,.06-3.23,9.75,9.75,0,0,0,.17-1.32,12.11,12.11,0,0,0-.42-3.16c-.07-.32-.15-.64-.21-1a61.87,61.87,0,0,1-1.35-11.41,44.35,44.35,0,0,1,3.71-17.66c1.34-3.26,3-6.93,6.17-9.15,2.9-2,7.49-2.36,10.15.12a24.22,24.22,0,0,1,16.78-6.79h1c5.26,0,10.7,0,15.66,2.43a31.6,31.6,0,0,1,17.62,28.22s0,0-1.16,22.7A1,1,0,0,1,233.4,149.1Zm-65.37-2h64.42c.22-4.27,1.1-21.51,1.11-21.69A29.59,29.59,0,0,0,217.06,99c-4.54-2.21-9.75-2.22-14.78-2.22h-1a21.42,21.42,0,0,0-3.39.27h0a21.91,21.91,0,0,0-12.69,6.67,1,1,0,0,1-.8.32,1,1,0,0,1-.75-.42c-1.71-2.39-5.71-2.26-8.15-.54-2.69,1.91-4.18,5.14-5.47,8.28a42.45,42.45,0,0,0-3.56,16.87,60.57,60.57,0,0,0,1.31,11c.06.32.13.63.2.94a13.69,13.69,0,0,1,.47,3.68,11.82,11.82,0,0,1-.2,1.57A9.74,9.74,0,0,0,168,147.1Zm29.67-51h0Z" fill="#093f68"></path><path d="M195.55,170.36h9.62a0,0,0,0,1,0,0v5.54a4.08,4.08,0,0,1-4.08,4.08h-1.45a4.08,4.08,0,0,1-4.08-4.08v-5.54A0,0,0,0,1,195.55,170.36Z" fill="#ffc9b0"></path><path d="M201.09,181h-1.45a5.09,5.09,0,0,1-5.09-5.09v-5.53a1,1,0,0,1,1-1h9.62a1,1,0,0,1,1,1v5.53A5.09,5.09,0,0,1,201.09,181Zm-4.54-9.62v4.53a3.1,3.1,0,0,0,3.09,3.09h1.45a3.09,3.09,0,0,0,3.08-3.09v-4.53Z" fill="#093f68"></path><ellipse cx="174.46" cy="145.37" rx="8.8" ry="8.05" fill="#ffc9b0"></ellipse><path d="M174.46,154.42c-5.4,0-9.8-4.06-9.8-9s4.4-9.05,9.8-9.05,9.8,4.06,9.8,9.05S179.87,154.42,174.46,154.42Zm0-16.1c-4.3,0-7.8,3.16-7.8,7.05s3.5,7,7.8,7,7.8-3.16,7.8-7S178.76,138.32,174.46,138.32Z" fill="#093f68"></path><ellipse cx="225.76" cy="145.37" rx="8.8" ry="8.05" fill="#ffc9b0"></ellipse><path d="M225.76,154.42c-5.4,0-9.8-4.06-9.8-9s4.4-9.05,9.8-9.05,9.8,4.06,9.8,9.05S231.17,154.42,225.76,154.42Zm0-16.1c-4.3,0-7.8,3.16-7.8,7.05s3.5,7,7.8,7,7.8-3.16,7.8-7S230.06,138.32,225.76,138.32Z" fill="#093f68"></path><path d="M200.36,171.62h0a28.19,28.19,0,0,1-28.19-28.19V128.26s7.1-4,9.21-10.43c0,0,10.83,12.32,21.27,11.48a242.68,242.68,0,0,0,25.9-3.61v17.73A28.19,28.19,0,0,1,200.36,171.62Z" fill="#ffc9b0"></path><path d="M200.36,172.62a29.22,29.22,0,0,1-29.19-29.19V128.26a1,1,0,0,1,.51-.87c.07,0,6.79-3.94,8.75-9.87a1,1,0,0,1,1.7-.35c.1.12,10.62,11.93,20.44,11.15a240.9,240.9,0,0,0,25.78-3.6,1,1,0,0,1,1.2,1v17.73A29.22,29.22,0,0,1,200.36,172.62Zm-27.19-43.8v14.61a27.19,27.19,0,1,0,54.38,0V126.92a249.88,249.88,0,0,1-24.82,3.39c-9,.72-17.93-7.51-21-10.65C179.46,124.55,174.74,127.83,173.17,128.82Z" fill="#093f68"></path><path d="M200.23,149.1a17.14,17.14,0,0,1-2.58-.21,1,1,0,0,1,.35-2,12.35,12.35,0,0,0,3.66.07c0-.87-.92-3.5-2.19-5.93a1,1,0,1,1,1.78-.92c.92,1.77,3,6.09,2.21,7.83a1.58,1.58,0,0,1-1.07.91A9.16,9.16,0,0,1,200.23,149.1Z" fill="#093f68"></path><path d="M184.05,205.19a1,1,0,0,1-1-1V192.93a1,1,0,0,1,2,0v11.26A1,1,0,0,1,184.05,205.19Z" fill="#093f68"></path><path d="M216,205.14a1,1,0,0,1-1-1V192.93a1,1,0,0,1,2,0v11.21A1,1,0,0,1,216,205.14Z" fill="#093f68"></path><path d="M200.36,201.11a1,1,0,0,1-.46-.12l-12.36-6.47a1,1,0,0,1-.31-1.52l4.54-5.53-6.13-3.83a1,1,0,0,1-.46-.76,1,1,0,0,1,.33-.84l9.38-8.3a1,1,0,1,1,1.32,1.49l-8.37,7.42,6,3.73a1,1,0,0,1,.24,1.48l-4.48,5.46,11.27,5.9a1,1,0,0,1-.47,1.89Z" fill="#093f68"></path><path d="M200.36,201.11a1,1,0,0,1-.88-.54,1,1,0,0,1,.42-1.35l11.27-5.9-4.49-5.46a1,1,0,0,1,.25-1.48l5.95-3.73-8.37-7.42a1,1,0,1,1,1.32-1.49l9.38,8.3a1,1,0,0,1,.34.84,1,1,0,0,1-.47.76L209,187.47l4.54,5.53a1,1,0,0,1-.31,1.52L200.83,201A1,1,0,0,1,200.36,201.11Z" fill="#093f68"></path><circle cx="284.4" cy="148.1" r="20.55" fill="#ffbc0e"></circle><path d="M284.4,169.66A21.56,21.56,0,1,1,306,148.1,21.58,21.58,0,0,1,284.4,169.66Zm0-41.11A19.56,19.56,0,1,0,304,148.1,19.57,19.57,0,0,0,284.4,128.55Z" fill="#093f68"></path><path d="M282.56,160.85v-2c-.74-.2-1.45-.35-2.14-.59a6.2,6.2,0,0,1-3.28-2.46,6.12,6.12,0,0,1-.95-3.42h3.94a3.11,3.11,0,0,0,2.41,2.92v-5.35c-.79-.23-1.58-.44-2.36-.69a5.58,5.58,0,0,1-2.29-1.3,4.56,4.56,0,0,1-1.27-2.48,6.3,6.3,0,0,1,.25-3.44,5.7,5.7,0,0,1,3.45-3.42,16.77,16.77,0,0,1,2-.52l.24-.05v-2.67h3.68v.26c0,.77,0,1.53,0,2.29,0,.19.05.25.24.29a7.79,7.79,0,0,1,3.43,1.6,5.55,5.55,0,0,1,1.95,3.43c.07.36.1.73.14,1.12h-4a2.81,2.81,0,0,0-1.74-2.54v5l.43.1a14.36,14.36,0,0,1,3.14,1,4.56,4.56,0,0,1,2.73,3.8,6,6,0,0,1-1,4.35,6.09,6.09,0,0,1-3,2.2c-.74.25-1.51.42-2.31.64v2Zm3.69-10.15v4.65a3.4,3.4,0,0,0,1.63-.72,2,2,0,0,0-.09-3.22A14.61,14.61,0,0,0,286.25,150.7ZM282.54,146v-4.49a13.05,13.05,0,0,0-1.4.71,1.94,1.94,0,0,0,.12,3.24C281.66,145.62,282.09,145.76,282.54,146Z" fill="#fff"></path><path d="M286.24,161.85h-3.68a1,1,0,0,1-1-1v-1.24c-.5-.13-1-.26-1.46-.42a7.28,7.28,0,0,1-3.8-2.86,7.05,7.05,0,0,1-1.11-4,1,1,0,0,1,1-1h3.94a1,1,0,0,1,1,.88,2.88,2.88,0,0,0,.42,1.26v-2.82l-1.65-.48a6.61,6.61,0,0,1-2.69-1.55,5.61,5.61,0,0,1-1.56-3,7.37,7.37,0,0,1,.3-4,6.68,6.68,0,0,1,4-4,11.22,11.22,0,0,1,1.5-.41l.09,0v-1.87a1,1,0,0,1,1-1h3.68a1,1,0,0,1,1,1v2a8.58,8.58,0,0,1,3.31,1.68,6.61,6.61,0,0,1,2.3,4c0,.27.08.55.11.83l0,.35a1,1,0,0,1-.25.78,1,1,0,0,1-.75.34h-4a1.05,1.05,0,0,1-.74-.32v1a14.84,14.84,0,0,1,3,1,5.5,5.5,0,0,1,3.29,4.58,7,7,0,0,1-4.68,7.61c-.54.19-1.09.33-1.63.47h0v1.19A1,1,0,0,1,286.24,161.85Zm-2.68-2h1.68v-1a1,1,0,0,1,.74-1l.76-.2c.51-.13,1-.26,1.48-.43a5,5,0,0,0,2.49-1.84,5,5,0,0,0,.85-3.64,3.53,3.53,0,0,0-2.15-3,13,13,0,0,0-2.92-.93l-.36-.09-.11,0a1,1,0,0,1-.76-1v-5a1,1,0,0,1,1.43-.91,3.78,3.78,0,0,1,2.15,2.45h2a4.51,4.51,0,0,0-1.6-2.78,6.72,6.72,0,0,0-3-1.39,1.22,1.22,0,0,1-1-1.28v-1.54h-1.68V138a1,1,0,0,1-.81,1l-.19,0q-.33.09-.66.15a9.36,9.36,0,0,0-1.22.33,4.73,4.73,0,0,0-2.88,2.85,5.36,5.36,0,0,0-.2,2.9,3.56,3.56,0,0,0,1,1.95,4.59,4.59,0,0,0,1.88,1.06c.53.17,1.07.32,1.6.47l.74.21a1,1,0,0,1,.72,1v5.35a1,1,0,0,1-.39.8,1,1,0,0,1-.87.17,4,4,0,0,1-3-2.89h-2a4.58,4.58,0,0,0,.7,1.87,5.19,5.19,0,0,0,2.78,2.07c.44.15.9.27,1.37.38l.7.19a1,1,0,0,1,.74,1Zm2.69-3.5a1,1,0,0,1-.64-.24,1,1,0,0,1-.36-.76V150.7a1,1,0,0,1,1.42-.91l.47.21a7.35,7.35,0,0,1,1.17.56,2.7,2.7,0,0,1,1.31,2.18,3.23,3.23,0,0,1-1.1,2.66,4.36,4.36,0,0,1-2.1.93Zm1-4.09v1.59a1.26,1.26,0,0,0,.38-1,.75.75,0,0,0-.36-.62ZM282.54,147a1,1,0,0,1-.38-.08l-.4-.16a10.25,10.25,0,0,1-1-.41,2.68,2.68,0,0,1-1.47-2.3,3,3,0,0,1,1.25-2.66,7.85,7.85,0,0,1,1.07-.56l.44-.22a1,1,0,0,1,1,.05,1,1,0,0,1,.47.85V146a1,1,0,0,1-.44.83A1,1,0,0,1,282.54,147Zm-1-3.8a1.17,1.17,0,0,0-.22.73.78.78,0,0,0,.22.52Z" fill="#093f68"></path><path d="M149.36,203.64H118.43a5.41,5.41,0,0,0-5.41,5.42v17.83a5.41,5.41,0,0,0,5.41,5.41h3.72l6.93,9.58V232.3h20.28a5.41,5.41,0,0,0,5.41-5.41V209.06A5.41,5.41,0,0,0,149.36,203.64Z" fill="#70cc40"></path><path d="M129.08,242.88a1,1,0,0,1-.81-.41l-6.63-9.17h-3.21a6.42,6.42,0,0,1-6.41-6.41V209.06a6.42,6.42,0,0,1,6.41-6.42h30.92a6.43,6.43,0,0,1,6.42,6.42v17.83a6.43,6.43,0,0,1-6.42,6.41H130.08v8.58a1,1,0,0,1-.69,1A.87.87,0,0,1,129.08,242.88Zm-10.65-38.24a4.42,4.42,0,0,0-4.41,4.42v17.83a4.42,4.42,0,0,0,4.41,4.41h3.72a1,1,0,0,1,.81.42l5.12,7.07V232.3a1,1,0,0,1,1-1h20.27a4.42,4.42,0,0,0,4.42-4.41V209.06a4.42,4.42,0,0,0-4.42-4.42Z" fill="#093f68"></path><path d="M146,210.82H121.8a1,1,0,0,1,0-2H146a1,1,0,0,1,0,2Z" fill="#093f68"></path><path d="M146,218H121.8a1,1,0,1,1,0-2H146a1,1,0,0,1,0,2Z" fill="#093f68"></path><path d="M139,225.27H121.8a1,1,0,1,1,0-2H139a1,1,0,0,1,0,2Z" fill="#093f68"></path><path d="M126,90.54h5.23a0,0,0,0,1,0,0V105.3a2.61,2.61,0,0,1-2.61,2.61h0A2.61,2.61,0,0,1,126,105.3V90.54a0,0,0,0,1,0,0Z" transform="translate(-33.21 85.12) rotate(-32.67)" fill="#f56132"></path><path d="M131.89,108a3.63,3.63,0,0,1-3-1.66l-8-12.43a1,1,0,0,1-.14-.75,1,1,0,0,1,.44-.63l4.4-2.82a1,1,0,0,1,.75-.14A1,1,0,0,1,127,90l8,12.42a3.64,3.64,0,0,1-1.09,5h0A3.62,3.62,0,0,1,131.89,108Zm1.41-1.41h0ZM123.1,93.62l7.43,11.59a1.62,1.62,0,0,0,2.23.48h0a1.62,1.62,0,0,0,.48-2.23l-7.42-11.58Z" fill="#093f68"></path><path d="M156.36,91l-36.68,5a6.58,6.58,0,0,1-7.14-3.75l-.19-.45a6.59,6.59,0,0,1,2.38-7.7L144.17,61.7Z" fill="#f56132"></path><path d="M118.65,97.13a7.51,7.51,0,0,1-7-4.43l-.19-.46a7.64,7.64,0,0,1,2.7-8.88L143.56,60.9a1,1,0,0,1,.87-.17,1,1,0,0,1,.66.58l12.19,29.35A1,1,0,0,1,156.5,92l-36.69,5A9.17,9.17,0,0,1,118.65,97.13Zm25.09-33.85L115.34,85a5.62,5.62,0,0,0-2.07,6.52l.19.46a5.62,5.62,0,0,0,6.08,3.14l35.4-4.84Z" fill="#093f68"></path><rect x="150.07" y="57.11" width="5.06" height="36.58" rx="2.4" transform="translate(-17.25 64.33) rotate(-22.57)" fill="#f56132"></rect><path d="M158.58,93.52a3.4,3.4,0,0,1-3.14-2.09l-12.2-29.35a3.41,3.41,0,0,1,1.84-4.45l.24-.09a3.35,3.35,0,0,1,2.6,0,3.39,3.39,0,0,1,1.84,1.84L162,88.72a3.44,3.44,0,0,1,0,2.6,3.39,3.39,0,0,1-1.84,1.84h0l-.24.1A3.32,3.32,0,0,1,158.58,93.52Zm1.16-1.28h0Zm-13.12-33a1.49,1.49,0,0,0-.54.11l-.24.1a1.4,1.4,0,0,0-.75,1.83l12.19,29.35a1.41,1.41,0,0,0,1.83.76l.24-.11a1.37,1.37,0,0,0,.76-.75,1.42,1.42,0,0,0,0-1.07l-12.2-29.35a1.35,1.35,0,0,0-.76-.76A1.4,1.4,0,0,0,146.62,59.27Z" fill="#093f68"></path><path d="M154.74,64.48a1,1,0,0,1-.71-.3,1,1,0,0,1,0-1.41l6-5.94a1,1,0,0,1,1.41,1.42l-6,5.94A1,1,0,0,1,154.74,64.48Z" fill="#dfeaef"></path><path d="M161.89,81.68a1,1,0,0,1,0-2l8.46-.08h0a1,1,0,0,1,1,1,1,1,0,0,1-1,1l-8.46.08Z" fill="#dfeaef"></path><path d="M158.32,73.08a1,1,0,0,1-.39-1.92l7.24-3a1,1,0,0,1,.77,1.85l-7.24,3A.9.9,0,0,1,158.32,73.08Z" fill="#dfeaef"></path></g></svg>